<svg width="25" height="24" viewBox="0 0 25 24" fill="none" xmlns="http://www.w3.org/2000/svg">
<rect x="0.591618" width="24" height="24" rx="4" fill="#1E2029"/>
<path d="M17.5971 7.51231C17.5931 7.50467 17.5865 7.49869 17.5784 7.49543C16.6448 7.07377 15.6595 6.77308 14.6473 6.60091C14.6381 6.59923 14.6286 6.60044 14.6201 6.60438C14.6117 6.60832 14.6047 6.61478 14.6002 6.62285C14.466 6.86254 14.3443 7.10875 14.2353 7.36053C13.1442 7.19749 12.0343 7.19749 10.9432 7.36053C10.8336 7.10811 10.7098 6.86184 10.5726 6.62285C10.5679 6.61496 10.5608 6.60864 10.5524 6.60473C10.544 6.60082 10.5346 6.59949 10.5255 6.60091C9.51313 6.77272 8.52782 7.07343 7.59431 7.49546C7.58631 7.49879 7.57957 7.50449 7.57501 7.51175C5.70817 10.2561 5.19677 12.9329 5.44764 15.5766C5.44835 15.5831 5.45037 15.5894 5.45359 15.5951C5.45681 15.6007 5.46116 15.6057 5.46638 15.6098C6.55342 16.402 7.76929 17.0068 9.06211 17.3982C9.07121 17.4009 9.08093 17.4008 9.08997 17.3979C9.099 17.395 9.10691 17.3894 9.11263 17.3819C9.3903 17.01 9.63633 16.6162 9.84823 16.2045C9.85114 16.1989 9.85281 16.1927 9.85311 16.1863C9.85341 16.18 9.85235 16.1737 9.84999 16.1678C9.84763 16.1619 9.84404 16.1566 9.83943 16.1521C9.83483 16.1477 9.82932 16.1443 9.82328 16.1421C9.4353 15.996 9.05969 15.8198 8.69997 15.6153C8.69344 15.6115 8.68795 15.6062 8.684 15.5998C8.68004 15.5935 8.67773 15.5863 8.67729 15.5788C8.67684 15.5714 8.67826 15.5639 8.68143 15.5571C8.68459 15.5504 8.68941 15.5445 8.69544 15.5399C8.77114 15.4843 8.84552 15.4269 8.91852 15.3679C8.92493 15.3627 8.93267 15.3594 8.94089 15.3583C8.94912 15.3572 8.95748 15.3584 8.96505 15.3617C11.3217 16.4204 13.8731 16.4204 16.2018 15.3617C16.2094 15.3582 16.2179 15.3568 16.2262 15.3578C16.2345 15.3588 16.2424 15.3621 16.2489 15.3673C16.322 15.4267 16.3966 15.4842 16.4726 15.5399C16.4786 15.5444 16.4835 15.5503 16.4867 15.557C16.4899 15.5638 16.4914 15.5712 16.491 15.5787C16.4906 15.5861 16.4884 15.5933 16.4845 15.5997C16.4806 15.6061 16.4751 15.6115 16.4686 15.6153C16.1097 15.8215 15.7338 15.9976 15.3448 16.1416C15.3387 16.1438 15.3332 16.1473 15.3287 16.1518C15.3241 16.1563 15.3205 16.1617 15.3182 16.1676C15.3159 16.1736 15.3149 16.1799 15.3152 16.1863C15.3156 16.1926 15.3173 16.1988 15.3203 16.2045C15.5357 16.6139 15.7814 17.0073 16.0553 17.3813C16.0609 17.389 16.0687 17.3947 16.0778 17.3978C16.0869 17.4008 16.0967 17.4009 16.1058 17.3982C17.401 17.0081 18.619 16.4032 19.7074 15.6098C19.7127 15.6059 19.7171 15.6011 19.7203 15.5954C19.7235 15.5898 19.7255 15.5836 19.7261 15.5772C20.0264 12.5208 19.2233 9.86587 17.5971 7.51231ZM10.2002 13.9669C9.49065 13.9669 8.90603 13.3259 8.90603 12.5388C8.90603 11.7516 9.47932 11.1106 10.2002 11.1106C10.9267 11.1106 11.5056 11.7572 11.4943 12.5387C11.4943 13.3259 10.921 13.9669 10.2002 13.9669ZM14.985 13.9669C14.2755 13.9669 13.6909 13.3259 13.6909 12.5388C13.6909 11.7516 14.2642 11.1106 14.985 11.1106C15.7115 11.1106 16.2905 11.7572 16.2792 12.5387C16.2792 13.3259 15.7115 13.9669 14.985 13.9669Z" fill="white"/>
</svg>
