<svg width="25" height="24" viewBox="0 0 25 24" fill="none" xmlns="http://www.w3.org/2000/svg">
<rect x="0.391342" width="24" height="24" rx="4" fill="#1E2029"/>
<path fill-rule="evenodd" clip-rule="evenodd" d="M12.7237 5.40009C11.108 5.40092 9.54537 5.97315 8.3151 7.01445C7.08484 8.05574 6.2672 9.49821 6.00838 11.0839C5.74956 12.6696 6.06645 14.2952 6.90237 15.6699C7.7383 17.0446 9.03875 18.0788 10.5712 18.5877C10.9093 18.6504 11.0366 18.4409 11.0366 18.2627C11.0366 18.0845 11.0299 17.568 11.0276 17.0032C9.13434 17.4122 8.73428 16.2043 8.73428 16.2043C8.4255 15.4199 7.97923 15.2137 7.97923 15.2137C7.36166 14.7946 8.02544 14.8025 8.02544 14.8025C8.70949 14.8507 9.06899 15.5006 9.06899 15.5006C9.67528 16.5348 10.6614 16.2357 11.049 16.0609C11.1099 15.6227 11.2868 15.3247 11.4818 15.1555C9.96941 14.9851 8.38042 14.4047 8.38042 11.8118C8.37105 11.1393 8.62201 10.489 9.08138 9.9954C9.01151 9.82508 8.77823 9.13707 9.14787 8.20254C9.14787 8.20254 9.71923 8.02102 11.0197 8.89616C12.1352 8.59284 13.3121 8.59284 14.4276 8.89616C15.727 8.02102 16.2972 8.20254 16.2972 8.20254C16.668 9.13483 16.4347 9.82284 16.3648 9.9954C16.8257 10.4891 17.0771 11.1405 17.0669 11.814C17.0669 14.4125 15.4745 14.9851 13.9599 15.1521C14.2033 15.3628 14.4208 15.774 14.4208 16.406C14.4208 17.3114 14.413 18.0397 14.413 18.2627C14.413 18.4431 14.5358 18.6538 14.8806 18.5877C16.4133 18.0788 17.7138 17.0443 18.5498 15.6694C19.3857 14.2944 19.7024 12.6687 19.4433 11.0828C19.1842 9.49696 18.3661 8.05448 17.1354 7.01336C15.9048 5.97224 14.3417 5.40039 12.7259 5.40009H12.7237Z" fill="white"/>
<path d="M8.36508 15.1562C8.35043 15.1899 8.29634 15.1999 8.25239 15.1764C8.20844 15.1529 8.17576 15.1092 8.19153 15.0744C8.20731 15.0397 8.26028 15.0307 8.30423 15.0543C8.34818 15.0778 8.38199 15.1226 8.36508 15.1562Z" fill="white"/>
<path d="M8.63966 15.4621C8.61633 15.4738 8.58963 15.477 8.56413 15.4713C8.53864 15.4656 8.51595 15.4512 8.49992 15.4307C8.45597 15.3837 8.44695 15.3187 8.48076 15.2895C8.51457 15.2604 8.57543 15.2738 8.61938 15.3209C8.66333 15.368 8.67347 15.433 8.63966 15.4621Z" fill="white"/>
<path d="M8.91107 15.8513C8.86937 15.8804 8.79837 15.8513 8.75893 15.793C8.74802 15.7826 8.73935 15.77 8.73342 15.7562C8.7275 15.7423 8.72444 15.7274 8.72444 15.7123C8.72444 15.6973 8.7275 15.6824 8.73342 15.6685C8.73935 15.6546 8.74802 15.6421 8.75893 15.6317C8.80062 15.6037 8.87162 15.6317 8.91107 15.6888C8.95051 15.746 8.95164 15.8222 8.91107 15.8513Z" fill="white"/>
<path d="M9.27412 16.2275C9.23693 16.269 9.16143 16.2578 9.09945 16.2018C9.03747 16.1457 9.02281 16.0695 9.06 16.0292C9.09719 15.9889 9.1727 16.0001 9.23693 16.055C9.30117 16.1099 9.31357 16.1872 9.27412 16.2275Z" fill="white"/>
<path d="M9.78539 16.4471C9.76848 16.4997 9.69185 16.5233 9.61522 16.5008C9.53859 16.4784 9.48787 16.4157 9.50253 16.3619C9.51718 16.3081 9.59494 16.2835 9.67269 16.3081C9.75045 16.3328 9.80004 16.3922 9.78539 16.4471Z" fill="white"/>
<path d="M10.3459 16.4856C10.3459 16.5405 10.2828 16.5875 10.2016 16.5887C10.1205 16.5898 10.054 16.545 10.054 16.4901C10.054 16.4352 10.1171 16.3881 10.1982 16.387C10.2794 16.3858 10.3459 16.4295 10.3459 16.4856Z" fill="white"/>
<path d="M10.8646 16.3993C10.8748 16.4542 10.8184 16.5114 10.7373 16.5248C10.6562 16.5383 10.5852 16.5058 10.575 16.452C10.5649 16.3982 10.6235 16.3399 10.7024 16.3254C10.7812 16.3108 10.8545 16.3444 10.8646 16.3993Z" fill="white"/>
</svg>
