<svg width="24" height="24" viewBox="0 0 24 24" fill="none" xmlns="http://www.w3.org/2000/svg">
<rect width="24" height="24" rx="4" fill="#1E2029"/>
<g clip-path="url(#clip0_655_34)">
<path d="M12.9208 11.8965C12.9208 14.1589 11.1025 15.993 8.8596 15.993C6.61673 15.993 4.79829 14.1585 4.79829 11.8965C4.79829 9.6345 6.61659 7.7999 8.8596 7.7999C11.1026 7.7999 12.9208 9.63409 12.9208 11.8965Z" fill="white"/>
<path d="M17.376 11.8965C17.376 14.0261 16.4668 15.7532 15.3453 15.7532C14.2238 15.7532 13.3147 14.0261 13.3147 11.8965C13.3147 9.76693 14.2237 8.03987 15.3452 8.03987C16.4667 8.03987 17.3758 9.76638 17.3758 11.8965" fill="white"/>
<path d="M19.1983 11.8965C19.1983 13.8041 18.8786 15.3515 18.4841 15.3515C18.0896 15.3515 17.7701 13.8045 17.7701 11.8965C17.7701 9.9885 18.0897 8.44156 18.4841 8.44156C18.8784 8.44156 19.1983 9.98837 19.1983 11.8965Z" fill="white"/>
</g>
<defs>
<clipPath id="clip0_655_34">
<rect width="14.4" height="14.4" fill="white" transform="translate(4.79829 4.7999)"/>
</clipPath>
</defs>
</svg>
