<svg width="25" height="24" viewBox="0 0 25 24" fill="none" xmlns="http://www.w3.org/2000/svg">
<rect x="0.200294" width="24" height="24" rx="4" fill="#1E2029"/>
<path fill-rule="evenodd" clip-rule="evenodd" d="M6.50439 11.2495C10.0477 9.72537 12.4105 8.72058 13.5927 8.23511C16.9682 6.84899 17.6696 6.60821 18.1268 6.60026C18.2273 6.59851 18.4521 6.62311 18.5978 6.73977C18.7207 6.83828 18.7546 6.97135 18.7708 7.06475C18.787 7.15815 18.8071 7.37091 18.7911 7.53715C18.6082 9.43463 17.8167 14.0393 17.414 16.1645C17.2436 17.0638 16.9081 17.3653 16.5834 17.3948C15.8775 17.4589 15.3415 16.9343 14.6579 16.4919C13.5881 15.7995 12.9838 15.3686 11.9454 14.693C10.7453 13.9122 11.5232 13.4831 12.2072 12.7818C12.3861 12.5983 15.4961 9.80553 15.5563 9.55218C15.5638 9.5205 15.5708 9.40239 15.4997 9.34002C15.4287 9.27766 15.3238 9.29899 15.2481 9.31595C15.1408 9.33999 13.4318 10.4552 10.1212 12.6615C9.63608 12.9904 9.1967 13.1506 8.80304 13.1422C8.36905 13.133 7.53424 12.9 6.91364 12.7008C6.15245 12.4565 5.54747 12.3274 5.60015 11.9125C5.62759 11.6964 5.929 11.4754 6.50439 11.2495Z" fill="white"/>
</svg>
