<svg width="25" height="24" viewBox="0 0 25 24" fill="none" xmlns="http://www.w3.org/2000/svg">
<rect x="0.799713" width="24" height="24" rx="4" fill="#1E2029"/>
<mask id="path-2-inside-1_655_47" fill="white">
<path d="M18.0028 6H16.7806L7.00284 18H7.98062L18.0028 6Z"/>
</mask>
<path d="M16.7806 6V5H16.3055L16.0054 5.36833L16.7806 6ZM18.0028 6L18.7704 6.64102L20.1409 5H18.0028V6ZM7.98062 18V19H8.44833L8.74814 18.641L7.98062 18ZM7.00284 18L6.2276 17.3683L4.89809 19H7.00284V18ZM16.7806 7H18.0028V5H16.7806V7ZM17.2353 5.35898L7.21309 17.359L8.74814 18.641L18.7704 6.64102L17.2353 5.35898ZM7.98062 17H7.00284V19H7.98062V17ZM7.77807 18.6317L17.5559 6.63167L16.0054 5.36833L6.2276 17.3683L7.77807 18.6317Z" fill="white" mask="url(#path-2-inside-1_655_47)"/>
<path d="M18.0408 17.5H15.4375L7.94815 6.5H10.3174L18.0408 17.5Z" fill="#0E0E0E" stroke="white"/>
</svg>
