<svg width="30" height="33" viewBox="0 0 30 33" fill="none" xmlns="http://www.w3.org/2000/svg">
<path fill-rule="evenodd" clip-rule="evenodd" d="M0.762789 9.1811V16.1329C0.765039 16.1329 0.76729 16.1329 0.774038 16.1306C0.774038 16.6989 0.77367 17.267 0.773304 17.835C0.772387 19.2547 0.771469 20.6736 0.776289 22.0925C0.77854 22.61 0.796539 23.1274 0.834785 23.6426C0.866283 24.0723 1.07551 24.4278 1.41522 24.6955C1.57496 24.8192 1.7437 24.934 1.91693 25.0352L1.92276 25.0386C3.17844 25.7687 4.43411 26.4987 5.68979 27.2243C6.09128 27.4558 6.4931 27.6869 6.89501 27.9182C7.55156 28.2959 8.20832 28.6737 8.86421 29.0533C9.64936 29.5066 10.4345 29.9605 11.2197 30.4144C12.0048 30.8683 12.79 31.3222 13.5752 31.7755C13.8092 31.9105 14.0477 32.0365 14.2929 32.149C14.7114 32.3425 15.1456 32.374 15.5798 32.1985C15.8497 32.0883 16.122 31.9758 16.3739 31.8318C17.5978 31.1344 18.8172 30.4302 20.0366 29.7237L20.0376 29.7231C21.1262 29.0911 22.2147 28.4592 23.301 27.8227C23.3302 27.8055 23.3594 27.7883 23.3886 27.7712C23.6502 27.6175 23.9131 27.4631 24.1559 27.285C24.3269 27.159 24.4889 26.997 24.6036 26.8193C25.0288 26.1556 24.5361 25.258 23.7464 25.2287C23.4 25.2152 23.103 25.3524 22.815 25.5167C22.3332 25.7934 21.8522 26.0709 21.3716 26.3483C21.0667 26.5242 20.762 26.7 20.4573 26.8755C19.3931 27.4875 18.3267 28.1017 17.2626 28.7158C17.023 28.8542 16.7823 28.992 16.5416 29.1298C16.3008 29.2676 16.0601 29.4054 15.8205 29.5438C15.2221 29.888 14.6574 29.8452 14.0634 29.4853C13.1462 28.9278 12.2149 28.3929 11.284 27.8583C11.039 27.7175 10.794 27.5768 10.5493 27.4357C9.98592 27.1106 9.4213 26.7879 8.85641 26.4652C8.35429 26.1782 7.85196 25.8912 7.35012 25.6022C6.39397 25.0532 5.44007 24.502 4.49066 23.9441C4.16895 23.7551 3.85623 23.5504 3.54576 23.3389C3.30953 23.1769 3.1543 22.9452 3.09355 22.664C3.06445 22.5274 3.05762 22.3841 3.05091 22.2431L3.05081 22.241C3.00356 21.3051 3.01706 20.3692 3.03281 19.4311C3.04508 18.7821 3.04166 18.1321 3.03824 17.4825C3.03665 17.1795 3.03506 16.8766 3.03506 16.5738C3.03506 15.5962 3.03729 14.6208 3.03952 13.6432L3.03956 13.6266L3.03957 13.6234C3.04182 13.0035 3.04408 12.3814 3.0553 11.7616C3.05755 11.6221 3.0868 11.4759 3.13404 11.3454C3.22404 11.0979 3.43327 10.9787 3.68749 11.0394C3.87197 11.0822 4.06095 11.1519 4.22744 11.2441C4.84162 11.5861 5.45131 11.9393 6.05875 12.2948C6.31072 12.4433 6.5582 12.5985 6.79893 12.765C7.03966 12.9315 7.21964 13.1474 7.26013 13.4534C7.26546 13.4943 7.27156 13.5351 7.27767 13.5759C7.29477 13.6903 7.31187 13.8047 7.31187 13.9191C7.313 14.5638 7.31244 15.209 7.31187 15.8542C7.31131 16.4992 7.31075 17.1443 7.31187 17.7887C7.31187 18.3354 7.31412 18.8844 7.32987 19.4311C7.33662 19.6245 7.36586 19.8203 7.40861 20.0092C7.50985 20.4569 7.79107 20.7877 8.16453 21.0329C8.66623 21.3591 9.17693 21.6763 9.69438 21.9778C10.4739 22.4324 11.2568 22.8786 12.0401 23.3251C12.1678 23.3979 12.2956 23.4708 12.4234 23.5436C12.5291 23.6036 12.6348 23.6637 12.7405 23.7238C13.2536 24.0155 13.7676 24.3077 14.2862 24.5875C14.6664 24.7945 15.0736 24.8215 15.4853 24.682C15.618 24.637 15.7553 24.5875 15.879 24.52C15.9172 24.4991 15.9555 24.4782 15.9937 24.4572C16.4031 24.2332 16.8117 24.0095 17.2109 23.7709C17.5011 23.5954 17.7711 23.3861 17.9668 23.1049C18.2278 22.7315 18.2458 22.331 18.0253 21.9373C17.8116 21.5548 17.4538 21.4221 17.0354 21.4513C16.8014 21.4693 16.5854 21.5616 16.3784 21.6718C16.3235 21.7015 16.2685 21.7315 16.2135 21.7614C16.0186 21.8676 15.823 21.974 15.6248 22.0723C15.3211 22.223 14.9948 22.2838 14.6664 22.1803C14.4459 22.1105 14.2344 22.0093 14.0342 21.8945C12.961 21.2781 11.8924 20.6572 10.826 20.0317C10.5673 19.881 10.3153 19.719 10.0723 19.5435C9.86537 19.3973 9.71238 19.1926 9.66739 18.9406C9.61789 18.6684 9.57514 18.3917 9.57289 18.1172C9.55939 16.9316 9.55714 15.7482 9.55939 14.5626C9.55939 14.3461 9.5729 14.1285 9.58638 13.9114C9.59196 13.8216 9.59752 13.7319 9.60213 13.6424C9.62013 13.2892 9.78212 13.008 10.0588 12.801C10.2861 12.6322 10.5268 12.4793 10.772 12.3353C11.7347 11.7729 12.7019 11.2151 13.6692 10.6573L13.6697 10.6569C13.7043 10.6373 13.7388 10.6176 13.7733 10.5979C13.9994 10.4689 14.2249 10.3402 14.4571 10.225C14.7901 10.0585 15.1366 10.0675 15.4785 10.2137C15.6563 10.2902 15.8362 10.369 16.005 10.4657C17.0759 11.0844 18.1445 11.7053 19.2109 12.3308C19.4314 12.459 19.6451 12.5985 19.8543 12.7425C20.1761 12.963 20.365 13.2689 20.3988 13.6581C20.4159 13.8524 20.4267 14.0476 20.4375 14.2425C20.4437 14.3546 20.4499 14.4666 20.4573 14.5783C20.4843 15.0305 20.6193 15.4332 20.9995 15.7144C21.4517 16.0474 22.0366 15.9597 22.3718 15.5052C22.5113 15.314 22.5901 15.098 22.6351 14.8663C22.7158 14.4412 22.7095 14.0112 22.7031 13.5819C22.702 13.509 22.7009 13.4362 22.7003 13.3634C22.698 13.0575 22.671 12.7515 22.6418 12.4455C22.6036 12.0428 22.4101 11.7166 22.0929 11.4759C21.8364 11.2801 21.5709 11.0957 21.2942 10.9337C20.2905 10.3463 19.2826 9.76437 18.2749 9.1826C17.9974 9.02239 17.7199 8.8622 17.4426 8.7019C17.2199 8.57251 16.9951 8.44612 16.7703 8.31966C16.5182 8.17787 16.266 8.036 16.0162 7.88973C15.366 7.50952 14.7136 7.48702 14.0522 7.86048C13.875 7.96101 13.6971 8.06089 13.5191 8.16086C13.2271 8.32489 12.9346 8.48916 12.6438 8.65691C12.0791 8.982 11.515 9.30934 10.9509 9.63668C10.3867 9.96402 9.82262 10.2914 9.25792 10.6165C8.96095 10.7874 8.64599 10.8909 8.29277 10.8549C8.02955 10.8279 7.80683 10.7064 7.58635 10.5805C7.49505 10.5284 7.4037 10.4763 7.31231 10.4242C6.81147 10.1387 6.30976 9.85276 5.81127 9.56356C5.20101 9.2112 4.59274 8.85684 3.98448 8.50247C3.68009 8.32514 3.3757 8.14781 3.07106 7.97073C2.80558 7.81549 2.53111 7.68275 2.23414 7.59276C1.71444 7.43753 1.18125 7.7075 0.956272 8.1732C0.801039 8.49492 0.762789 8.83464 0.762789 9.1811ZM29.2474 18.0328C29.2472 17.4632 29.2471 16.8936 29.2471 16.3242C29.2448 16.3242 29.2426 16.3242 29.2358 16.3219C29.2358 15.7542 29.236 15.1864 29.2361 14.6186C29.2365 12.9141 29.237 11.2096 29.2336 9.50515C29.2336 9.27213 29.2128 9.03911 29.192 8.8061C29.1901 8.78489 29.1882 8.76368 29.1863 8.74248C29.1436 8.27678 28.9231 7.90331 28.5632 7.61309C28.4349 7.5096 28.2999 7.41511 28.1582 7.32962C27.7082 7.05965 27.256 6.79193 26.8016 6.53095C26.3261 6.25787 25.8502 5.98545 25.3744 5.71306C24.6076 5.27407 23.8409 4.83516 23.076 4.39367C22.7284 4.19345 22.383 3.98984 22.0377 3.78624C21.6924 3.58263 21.347 3.37903 20.9994 3.1788C20.6721 2.98981 20.3419 2.80477 20.0118 2.61973C19.6816 2.43468 19.3515 2.24964 19.0241 2.06066C18.7311 1.89143 18.4411 1.71771 18.1511 1.54397C17.8242 1.34816 17.4972 1.15231 17.1658 0.962772C16.6844 0.688299 16.1962 0.427322 15.7012 0.177597C15.1973 -0.0743752 14.6888 -0.0541267 14.1916 0.213596C14.1216 0.250816 14.0505 0.286293 13.9794 0.32181C13.8699 0.376457 13.7603 0.431206 13.6539 0.492567C13.3974 0.641066 13.1426 0.791815 12.8878 0.942564C12.633 1.09328 12.3783 1.244 12.1218 1.39248C11.6089 1.68829 11.0949 1.98242 10.5809 2.27655C10.0668 2.57073 9.55264 2.86492 9.03964 3.1608C8.5784 3.42629 8.11771 3.69292 7.65703 3.95954C7.19643 4.22611 6.73584 4.49269 6.27468 4.75813C5.99346 4.92237 5.73248 5.10685 5.53226 5.36782C5.32528 5.6378 5.22854 5.93476 5.31178 6.27448C5.46027 6.87966 6.02271 7.21488 6.62564 7.0439C6.85287 6.98091 7.07559 6.87967 7.28482 6.76493C7.76514 6.50019 8.2391 6.22591 8.71338 5.95145C8.80336 5.89938 8.89335 5.8473 8.9834 5.79528C9.45411 5.52276 9.92451 5.24992 10.3948 4.97712C11.1631 4.5315 11.9311 4.08601 12.7 3.64225C13.24 3.33178 13.7799 3.02581 14.3244 2.72434C14.7856 2.46787 15.2513 2.47012 15.7147 2.73559C15.8978 2.83942 16.0821 2.94127 16.2665 3.04314C16.5215 3.18406 16.7766 3.32501 17.0286 3.47127C17.4525 3.71866 17.8753 3.96803 18.2981 4.21739C18.8826 4.56216 19.467 4.9069 20.0545 5.24633C20.7816 5.66653 21.5124 6.08215 22.2433 6.49786C22.659 6.7343 23.0748 6.97077 23.4899 7.20813C23.5826 7.26103 23.6752 7.31391 23.7678 7.36678C24.4828 7.7748 25.1971 8.18248 25.9062 8.60074C26.1559 8.74698 26.3944 8.92246 26.6216 9.10244C26.8083 9.25093 26.9253 9.4534 26.9568 9.69638C26.961 9.72842 26.9655 9.76047 26.9699 9.79251C26.9893 9.93145 27.0086 10.0704 27.0086 10.2093C27.0113 11.6904 27.0115 13.1706 27.0118 14.6509C27.012 15.6375 27.0122 16.6241 27.0131 17.6111C27.0131 17.9797 27.014 18.348 27.015 18.7163C27.0165 19.3301 27.0181 19.9438 27.0153 20.5583C27.0153 20.7045 26.9861 20.8575 26.9343 20.9947C26.8533 21.2062 26.6913 21.3254 26.4484 21.3254C26.2121 21.3254 26.0119 21.2332 25.8162 21.1207C25.3227 20.8362 24.8305 20.5504 24.3377 20.2643C24.1564 20.1591 23.9751 20.0538 23.7936 19.9486C23.476 19.7647 23.1583 19.581 22.8405 19.3973C22.0034 18.9134 21.1662 18.4294 20.3312 17.9418C19.9409 17.7142 19.5518 17.4832 19.1626 17.2522C18.8364 17.0585 18.51 16.8648 18.1827 16.6729C17.7013 16.3917 17.438 15.9755 17.3616 15.4265C17.3076 15.0373 17.1298 14.7089 16.7924 14.4974C16.3806 14.2387 15.9577 13.9957 15.5302 13.7617C15.1905 13.575 14.8328 13.5795 14.4931 13.7595C14.0881 13.9732 13.6922 14.2004 13.2985 14.4321C13.1893 14.498 13.0933 14.5922 13.0002 14.6836C12.9916 14.6921 12.9831 14.7005 12.9745 14.7089C12.8373 14.8416 12.745 15.0126 12.7203 15.1993C12.6528 15.7348 12.6055 16.2725 12.655 16.8146C12.7023 17.3163 12.9407 17.6943 13.3637 17.953C13.6832 18.1488 14.0116 18.3287 14.3424 18.5042C14.6798 18.6842 15.0353 18.736 15.4065 18.6122C15.4428 18.6007 15.4787 18.5878 15.5148 18.5749C15.5703 18.555 15.6259 18.535 15.6832 18.52C15.7162 18.5116 15.7492 18.5029 15.782 18.4943C15.9082 18.4611 16.0339 18.428 16.1624 18.412C16.5246 18.3647 16.8351 18.5155 17.1366 18.691C17.5146 18.9103 17.8922 19.1306 18.27 19.3509C18.733 19.621 19.1962 19.8912 19.6608 20.1601C20.6112 20.7086 21.5629 21.2559 22.514 21.8029C22.8619 22.003 23.2097 22.203 23.5574 22.4031C23.7961 22.5401 24.0348 22.6769 24.2737 22.8138C25.0547 23.2614 25.8361 23.7093 26.6149 24.1624C26.6625 24.1905 26.7101 24.2188 26.7576 24.2471C27.0642 24.4297 27.3699 24.6119 27.7127 24.7248C28.3742 24.9431 29.0311 24.5809 29.1796 23.8992C29.2336 23.6607 29.2448 23.4087 29.2448 23.1635C29.2482 21.4539 29.2478 19.743 29.2474 18.0328Z" fill="url(#paint0_linear_358_75)"/>
<defs>
<linearGradient id="paint0_linear_358_75" x1="4.53197" y1="21.1608" x2="23.8127" y2="-1.09932" gradientUnits="userSpaceOnUse">
<stop stop-color="#77F6D3"/>
<stop offset="0.49" stop-color="#5C64F0"/>
<stop offset="1" stop-color="#9F57F2"/>
</linearGradient>
</defs>
</svg>
