<svg width="52" height="27" viewBox="0 0 52 27" fill="none" xmlns="http://www.w3.org/2000/svg">
<path d="M0.938 8.874C0.938 8.38 1.318 8 1.812 8H3.94C4.434 8 4.814 7.62 4.814 7.126V5.074C4.814 4.58 5.194 4.2 5.688 4.2H7.816C8.31 4.2 8.69 3.82 8.69 3.326V1.274C8.69 0.779998 9.07 0.399998 9.564 0.399998H19.444C19.938 0.399998 20.318 0.779998 20.318 1.274V3.326C20.318 3.82 20.736 4.2 21.192 4.2H23.32C23.852 4.2 24.194 4.58 24.194 5.074V18.526C24.194 19.02 23.852 19.4 23.32 19.4H21.192C20.736 19.4 20.318 19.78 20.318 20.274V22.326C20.318 22.82 19.938 23.2 19.444 23.2H17.316C16.822 23.2 16.442 23.58 16.442 24.074V26.126C16.442 26.62 16.062 27 15.568 27H5.688C5.194 27 4.814 26.62 4.814 26.126V24.074C4.814 23.58 4.434 23.2 3.94 23.2H1.812C1.318 23.2 0.938 22.82 0.938 22.326V8.874ZM4.814 22.326C4.814 22.82 5.194 23.2 5.688 23.2H15.568C16.062 23.2 16.442 22.82 16.442 22.326V20.274C16.442 19.78 16.822 19.4 17.316 19.4H19.444C19.938 19.4 20.318 19.02 20.318 18.526V5.074C20.318 4.58 19.938 4.2 19.444 4.2H9.564C9.07 4.2 8.69 4.58 8.69 5.074V7.126C8.69 7.62 8.31 8 7.816 8H5.688C5.194 8 4.814 8.38 4.814 8.874V22.326ZM10.628 14.726V12.674C10.628 12.18 11.008 11.8 11.502 11.8H13.63C14.124 11.8 14.504 12.18 14.504 12.674V14.726C14.504 15.22 14.124 15.6 13.63 15.6H11.502C11.008 15.6 10.628 15.22 10.628 14.726ZM28.065 27V23.2H36.881C37.375 23.2 37.755 22.82 37.755 22.326V5.074C37.755 4.58 37.375 4.2 36.881 4.2H28.065V0.399998H36.881C37.375 0.399998 37.755 0.779998 37.755 1.274V3.326C37.755 3.82 38.135 4.2 38.629 4.2H40.757C41.251 4.2 41.631 4.58 41.631 5.074V22.326C41.631 22.82 42.011 23.2 42.505 23.2H51.321V27H42.505C42.011 27 41.631 26.62 41.631 26.126V24.074C41.631 23.58 41.213 23.2 40.719 23.2H38.629C38.135 23.2 37.755 23.58 37.755 24.074V26.126C37.755 26.62 37.375 27 36.881 27H28.065Z" fill="#77F6D3"/>
</svg>
