<svg width="676" height="262" viewBox="0 0 676 262" fill="none" xmlns="http://www.w3.org/2000/svg">
<path d="M25 0V50.0002" stroke="#5D00FB" stroke-width="5.91719"/>
<path d="M42.7739 7.41919L7.226 42.5812" stroke="#5D00FB" stroke-width="5.91719"/>
<path d="M50 25.0742L-2.3534e-06 24.9258" stroke="#5D00FB" stroke-width="5.91719"/>
<path d="M42.6069 42.7483L7.39288 7.25191" stroke="#5D00FB" stroke-width="5.91719"/>
<path d="M10.404 117.364C10.404 116.48 11.084 115.8 11.968 115.8H36.584C37.468 115.8 38.148 116.48 38.148 117.364V121.036C38.148 121.92 38.828 122.6 39.712 122.6H43.52C44.404 122.6 45.084 123.28 45.084 124.164V143H38.148V124.164C38.148 123.28 37.468 122.6 36.584 122.6H11.968C11.084 122.6 10.404 123.28 10.404 124.164V143H3.468V124.164C3.468 123.28 4.148 122.6 5.032 122.6H8.84C9.724 122.6 10.404 121.92 10.404 121.036V117.364ZM3.468 115.8V103.764C3.468 102.88 4.148 102.2 5.032 102.2H8.84C9.724 102.2 10.404 101.52 10.404 100.636V96.9642C10.404 96.0802 11.084 95.4002 11.968 95.4002H36.584C37.468 95.4002 38.148 96.0802 38.148 96.9642V100.636C38.148 101.52 38.828 102.2 39.712 102.2H43.52C44.404 102.2 45.084 102.88 45.084 103.764V115.8H38.148V103.764C38.148 102.88 37.468 102.2 36.584 102.2H11.968C11.084 102.2 10.404 102.88 10.404 103.764V115.8H3.468ZM64.591 144.02C60.1936 144.02 56.635 142.366 53.915 139.056C51.195 135.702 49.835 131.214 49.835 125.592C49.835 120.152 51.2176 115.732 53.983 112.332C56.7936 108.887 60.375 107.164 64.727 107.164C69.079 107.164 72.3656 108.887 74.587 112.332H74.791V94.3802H84.039V143H75.131V138.444H74.995C72.7283 142.162 69.2603 144.02 64.591 144.02ZM66.631 136.268C69.351 136.268 71.4136 135.339 72.819 133.48C74.2696 131.622 74.995 129.06 74.995 125.796C74.995 118.362 72.2976 114.644 66.903 114.644C64.4096 114.644 62.5056 115.642 61.191 117.636C59.8763 119.631 59.219 122.283 59.219 125.592C59.219 128.992 59.8536 131.622 61.123 133.48C62.4376 135.339 64.2736 136.268 66.631 136.268ZM99.2986 143L87.1946 108.116H96.5786L102.155 126.204L103.719 131.78H103.855C104.172 130.284 104.671 128.426 105.351 126.204L111.063 108.116H120.311L108.139 143H99.2986ZM144.421 143C143.968 142.411 143.605 141.119 143.333 139.124H143.197C142.2 140.62 140.93 141.776 139.389 142.592C137.848 143.408 135.694 143.816 132.929 143.816C129.257 143.816 126.31 142.887 124.089 141.028C121.868 139.17 120.757 136.54 120.757 133.14C120.757 129.604 121.981 127.02 124.429 125.388C126.877 123.711 130.322 122.555 134.765 121.92C138.029 121.467 140.25 121.014 141.429 120.56C142.608 120.062 143.197 119.2 143.197 117.976C143.197 116.707 142.698 115.71 141.701 114.984C140.704 114.214 139.253 113.828 137.349 113.828C133.133 113.828 130.889 115.46 130.617 118.724H122.389C122.525 115.415 123.862 112.672 126.401 110.496C128.94 108.32 132.612 107.232 137.417 107.232C147.209 107.232 152.105 111.516 152.105 120.084V137.832C152.105 140.462 152.513 142.071 153.329 142.66V143H144.421ZM135.173 137.356C137.712 137.356 139.706 136.699 141.157 135.384C142.653 134.07 143.401 132.506 143.401 130.692V125.456C142.404 126.046 140.25 126.726 136.941 127.496C134.312 128.086 132.453 128.766 131.365 129.536C130.277 130.262 129.733 131.395 129.733 132.936C129.733 135.883 131.546 137.356 135.173 137.356ZM165.396 110.564C165.396 109.68 166.076 109 166.96 109H184.64C185.524 109 186.204 109.68 186.204 110.564V114.236C186.204 115.12 186.884 115.8 187.768 115.8H191.576C192.46 115.8 193.14 116.48 193.14 117.364V143H186.204V117.364C186.204 116.48 185.524 115.8 184.64 115.8H166.96C166.076 115.8 165.396 116.48 165.396 117.364V143H158.46V117.364C158.46 116.48 159.14 115.8 160.024 115.8H163.832C164.716 115.8 165.396 115.12 165.396 114.236V110.564ZM215.805 144.02C210.41 144.02 206.081 142.275 202.817 138.784C199.553 135.294 197.921 130.896 197.921 125.592C197.921 120.288 199.508 115.891 202.681 112.4C205.9 108.91 210.116 107.164 215.329 107.164C219.726 107.164 223.308 108.32 226.073 110.632C228.838 112.944 230.538 116.05 231.173 119.948H222.129C221.812 118.362 221.086 117.07 219.953 116.072C218.82 115.075 217.414 114.576 215.737 114.576C213.017 114.576 210.932 115.551 209.481 117.5C208.03 119.45 207.305 122.147 207.305 125.592C207.305 128.992 208.008 131.69 209.413 133.684C210.818 135.634 212.881 136.608 215.601 136.608C219.636 136.608 221.97 134.636 222.605 130.692H231.513C231.196 134.546 229.632 137.742 226.821 140.28C224.01 142.774 220.338 144.02 215.805 144.02ZM251.935 144.02C246.313 144.02 241.893 142.298 238.675 138.852C235.456 135.362 233.847 130.919 233.847 125.524C233.847 120.311 235.456 115.959 238.675 112.468C241.893 108.932 246.019 107.164 251.051 107.164C256.536 107.164 260.775 109.068 263.767 112.876C266.759 116.684 268.255 121.784 268.255 128.176H242.959C243.321 130.942 244.251 133.095 245.747 134.636C247.243 136.132 249.283 136.88 251.867 136.88C255.267 136.88 257.511 135.452 258.599 132.596H267.711C267.031 135.86 265.308 138.58 262.543 140.756C259.777 142.932 256.241 144.02 251.935 144.02ZM251.187 114.304C246.699 114.304 244.001 116.798 243.095 121.784H258.599C258.463 119.563 257.715 117.772 256.355 116.412C254.995 115.007 253.272 114.304 251.187 114.304ZM285.591 144.02C281.194 144.02 277.635 142.366 274.915 139.056C272.195 135.702 270.835 131.214 270.835 125.592C270.835 120.152 272.218 115.732 274.983 112.332C277.794 108.887 281.375 107.164 285.727 107.164C290.079 107.164 293.366 108.887 295.587 112.332H295.791V94.3802H305.039V143H296.131V138.444H295.995C293.728 142.162 290.26 144.02 285.591 144.02ZM287.631 136.268C290.351 136.268 292.414 135.339 293.819 133.48C295.27 131.622 295.995 129.06 295.995 125.796C295.995 118.362 293.298 114.644 287.903 114.644C285.41 114.644 283.506 115.642 282.191 117.636C280.876 119.631 280.219 122.283 280.219 125.592C280.219 128.992 280.854 131.622 282.123 133.48C283.438 135.339 285.274 136.268 287.631 136.268ZM363 102.2C363.884 102.2 364.564 102.88 364.564 103.764V109H357.628V103.764C357.628 102.88 356.948 102.2 356.064 102.2H331.448C330.564 102.2 329.884 102.88 329.884 103.764V114.236C329.884 115.12 330.564 115.8 331.448 115.8H356.064C356.948 115.8 357.628 116.48 357.628 117.364V121.036C357.628 121.92 358.308 122.6 359.192 122.6H363C363.884 122.6 364.564 123.28 364.564 124.164V134.636C364.564 135.52 363.884 136.2 363 136.2H359.192C358.308 136.2 357.628 136.88 357.628 137.764V141.436C357.628 142.32 356.948 143 356.064 143H331.448C330.564 143 329.884 142.32 329.884 141.436V137.764C329.884 136.88 329.204 136.2 328.32 136.2H324.512C323.628 136.2 322.948 135.52 322.948 134.636V129.4H329.884V134.636C329.884 135.52 330.564 136.2 331.448 136.2H356.064C356.948 136.2 357.628 135.52 357.628 134.636V124.164C357.628 123.28 356.948 122.6 356.064 122.6H331.448C330.564 122.6 329.884 121.92 329.884 121.036V117.364C329.884 116.48 329.204 115.8 328.32 115.8H324.512C323.628 115.8 322.948 115.12 322.948 114.236V103.764C322.948 102.88 323.628 102.2 324.512 102.2H328.32C329.204 102.2 329.884 101.52 329.884 100.636V96.9642C329.884 96.0802 330.564 95.4002 331.448 95.4002H356.064C356.948 95.4002 357.628 96.0802 357.628 96.9642V100.636C357.628 101.52 358.308 102.2 359.192 102.2H363ZM387.403 144.02C381.782 144.02 377.362 142.298 374.143 138.852C370.925 135.362 369.315 130.919 369.315 125.524C369.315 120.311 370.925 115.959 374.143 112.468C377.362 108.932 381.487 107.164 386.519 107.164C392.005 107.164 396.243 109.068 399.235 112.876C402.227 116.684 403.723 121.784 403.723 128.176H378.427C378.79 130.942 379.719 133.095 381.215 134.636C382.711 136.132 384.751 136.88 387.335 136.88C390.735 136.88 392.979 135.452 394.067 132.596H403.179C402.499 135.86 400.777 138.58 398.011 140.756C395.246 142.932 391.71 144.02 387.403 144.02ZM386.655 114.304C382.167 114.304 379.47 116.798 378.563 121.784H394.067C393.931 119.563 393.183 117.772 391.823 116.412C390.463 115.007 388.741 114.304 386.655 114.304ZM424.188 144.02C418.793 144.02 414.464 142.275 411.2 138.784C407.936 135.294 406.304 130.896 406.304 125.592C406.304 120.288 407.89 115.891 411.064 112.4C414.282 108.91 418.498 107.164 423.712 107.164C428.109 107.164 431.69 108.32 434.456 110.632C437.221 112.944 438.921 116.05 439.556 119.948H430.512C430.194 118.362 429.469 117.07 428.336 116.072C427.202 115.075 425.797 114.576 424.12 114.576C421.4 114.576 419.314 115.551 417.864 117.5C416.413 119.45 415.688 122.147 415.688 125.592C415.688 128.992 416.39 131.69 417.796 133.684C419.201 135.634 421.264 136.608 423.984 136.608C428.018 136.608 430.353 134.636 430.988 130.692H439.896C439.578 134.546 438.014 137.742 435.204 140.28C432.393 142.774 428.721 144.02 424.188 144.02ZM474.87 143H465.962V138.92H465.758C464.488 140.643 463.083 141.912 461.542 142.728C460.046 143.544 458.119 143.952 455.762 143.952C451.954 143.952 448.984 142.819 446.854 140.552C444.723 138.286 443.658 135.226 443.658 131.372V108.116H452.838V129.808C452.838 134.024 454.764 136.132 458.618 136.132C460.748 136.132 462.448 135.407 463.718 133.956C464.987 132.506 465.622 130.602 465.622 128.244V108.116H474.87V143ZM488.263 110.564C488.263 109.68 488.943 109 489.827 109H507.507C508.391 109 509.071 109.68 509.071 110.564V114.236C509.071 115.12 509.751 115.8 510.635 115.8H514.443C515.327 115.8 516.007 116.48 516.007 117.364V122.6H509.071V117.364C509.071 116.48 508.391 115.8 507.507 115.8H489.827C488.943 115.8 488.263 116.48 488.263 117.364V143H481.327V117.364C481.327 116.48 482.007 115.8 482.891 115.8H486.699C487.583 115.8 488.263 115.12 488.263 114.236V110.564ZM522.488 143V108.116H531.736V143H522.488ZM522.488 102.676V94.3802H531.736V102.676H522.488ZM535.655 114.236V108.116H540.483V97.2362H549.527V108.116H555.511V114.236H549.527V132.732C549.527 135.044 550.683 136.2 552.995 136.2L555.715 136.132V142.932C554.31 143.023 552.383 143.068 549.935 143.068C547.26 143.068 545.016 142.434 543.203 141.164C541.39 139.85 540.483 137.696 540.483 134.704V114.236H535.655ZM561.685 154.424V147.148H564.949C568.395 147.148 570.117 145.562 570.117 142.388C570.117 140.847 569.233 137.696 567.465 132.936L558.081 108.116H567.805L572.973 123.824L575.217 131.44H575.353C575.988 128.494 576.668 125.955 577.393 123.824L582.289 108.116H591.605L579.433 143.884C578.073 147.874 576.532 150.616 574.809 152.112C573.132 153.654 570.571 154.424 567.125 154.424H561.685ZM10.404 212.364C10.404 211.48 11.084 210.8 11.968 210.8H36.584C37.468 210.8 38.148 211.48 38.148 212.364V216.036C38.148 216.92 38.828 217.6 39.712 217.6H43.52C44.404 217.6 45.084 218.28 45.084 219.164V238H38.148V219.164C38.148 218.28 37.468 217.6 36.584 217.6H11.968C11.084 217.6 10.404 218.28 10.404 219.164V238H3.468V219.164C3.468 218.28 4.148 217.6 5.032 217.6H8.84C9.724 217.6 10.404 216.92 10.404 216.036V212.364ZM3.468 210.8V198.764C3.468 197.88 4.148 197.2 5.032 197.2H8.84C9.724 197.2 10.404 196.52 10.404 195.636V191.964C10.404 191.08 11.084 190.4 11.968 190.4H36.584C37.468 190.4 38.148 191.08 38.148 191.964V195.636C38.148 196.52 38.828 197.2 39.712 197.2H43.52C44.404 197.2 45.084 197.88 45.084 198.764V210.8H38.148V198.764C38.148 197.88 37.468 197.2 36.584 197.2H11.968C11.084 197.2 10.404 197.88 10.404 198.764V210.8H3.468ZM60.579 203.116V207.876H60.783C63.1856 204.068 66.631 202.164 71.119 202.164C74.7003 202.164 77.6016 203.388 79.823 205.836C82.0443 208.239 83.155 211.367 83.155 215.22V238H73.907V216.58C73.907 214.676 73.363 213.135 72.275 211.956C71.2323 210.778 69.759 210.188 67.855 210.188C65.815 210.188 64.115 210.936 62.755 212.432C61.4403 213.928 60.783 215.855 60.783 218.212V238H51.535V203.116H60.579ZM101.911 239.02C97.5139 239.02 93.9553 237.366 91.2353 234.056C88.5153 230.702 87.1553 226.214 87.1553 220.592C87.1553 215.152 88.5379 210.732 91.3033 207.332C94.1139 203.887 97.6953 202.164 102.047 202.164C106.399 202.164 109.686 203.887 111.907 207.332H112.111V189.38H121.359V238H112.451V233.444H112.315C110.049 237.162 106.581 239.02 101.911 239.02ZM103.951 231.268C106.671 231.268 108.734 230.339 110.139 228.48C111.59 226.622 112.315 224.06 112.315 220.796C112.315 213.362 109.618 209.644 104.223 209.644C101.73 209.644 99.8259 210.642 98.5113 212.636C97.1966 214.631 96.5393 217.283 96.5393 220.592C96.5393 223.992 97.1739 226.622 98.4433 228.48C99.7579 230.339 101.594 231.268 103.951 231.268ZM186.257 197.2C187.141 197.2 187.821 197.88 187.821 198.764V238H180.885V198.764C180.885 197.88 180.205 197.2 179.321 197.2H168.577C167.693 197.2 167.013 197.88 167.013 198.764V238H160.077V198.764C160.077 197.88 159.397 197.2 158.513 197.2H147.769C146.885 197.2 146.205 197.88 146.205 198.764V238H139.269V198.764C139.269 197.88 139.949 197.2 140.833 197.2H144.641C145.525 197.2 146.205 196.52 146.205 195.636V191.964C146.205 191.08 146.885 190.4 147.769 190.4H158.513C159.397 190.4 160.077 191.08 160.077 191.964V195.636C160.077 196.52 160.757 197.2 161.641 197.2H165.449C166.333 197.2 167.013 196.52 167.013 195.636V191.964C167.013 191.08 167.693 190.4 168.577 190.4H179.253C180.137 190.4 180.885 191.08 180.885 191.964V195.636C180.885 196.52 181.565 197.2 182.449 197.2H186.257ZM216.272 238C215.819 237.411 215.456 236.119 215.184 234.124H215.048C214.051 235.62 212.782 236.776 211.24 237.592C209.699 238.408 207.546 238.816 204.78 238.816C201.108 238.816 198.162 237.887 195.94 236.028C193.719 234.17 192.608 231.54 192.608 228.14C192.608 224.604 193.832 222.02 196.28 220.388C198.728 218.711 202.174 217.555 206.616 216.92C209.88 216.467 212.102 216.014 213.28 215.56C214.459 215.062 215.048 214.2 215.048 212.976C215.048 211.707 214.55 210.71 213.552 209.984C212.555 209.214 211.104 208.828 209.2 208.828C204.984 208.828 202.74 210.46 202.468 213.724H194.24C194.376 210.415 195.714 207.672 198.252 205.496C200.791 203.32 204.463 202.232 209.268 202.232C219.06 202.232 223.956 206.516 223.956 215.084V232.832C223.956 235.462 224.364 237.071 225.18 237.66V238H216.272ZM207.024 232.356C209.563 232.356 211.558 231.699 213.008 230.384C214.504 229.07 215.252 227.506 215.252 225.692V220.456C214.255 221.046 212.102 221.726 208.792 222.496C206.163 223.086 204.304 223.766 203.216 224.536C202.128 225.262 201.584 226.395 201.584 227.936C201.584 230.883 203.398 232.356 207.024 232.356ZM227.388 238L240.104 219.504L228.748 203.116H239.288L245.476 213.112H245.612L251.46 203.116H261.048L250.236 219.436L262.68 238H251.664L245.204 226.44H245.068L237.52 238H227.388ZM266.226 238V203.116H275.474V238H266.226ZM266.226 197.676V189.38H275.474V197.676H266.226ZM288.845 205.564C288.845 204.68 289.525 204 290.409 204H297.685C298.569 204 299.249 204.68 299.249 205.564V209.236C299.249 210.12 299.929 210.8 300.813 210.8H304.621C305.505 210.8 306.185 210.12 306.185 209.236V205.564C306.185 204.68 306.865 204 307.749 204H315.025C315.909 204 316.589 204.68 316.589 205.564V209.236C316.589 210.12 317.269 210.8 318.153 210.8H321.961C322.845 210.8 323.525 211.48 323.525 212.364V238H316.589V212.364C316.589 211.48 315.909 210.8 315.025 210.8H307.749C306.865 210.8 306.185 211.48 306.185 212.364V238H299.249V212.364C299.249 211.48 298.569 210.8 297.685 210.8H290.409C289.525 210.8 288.845 211.48 288.845 212.364V238H281.909V212.364C281.909 211.48 282.589 210.8 283.473 210.8H287.281C288.165 210.8 288.845 210.12 288.845 209.236V205.564ZM329.976 238V203.116H339.224V238H329.976ZM329.976 197.676V189.38H339.224V197.676H329.976ZM344.027 238V230.928L361.979 210.596V210.392H346.067V203.116H372.723V210.528L355.179 230.384V230.588H373.607V238H344.027ZM393.579 239.02C387.958 239.02 383.538 237.298 380.319 233.852C377.101 230.362 375.491 225.919 375.491 220.524C375.491 215.311 377.101 210.959 380.319 207.468C383.538 203.932 387.663 202.164 392.695 202.164C398.181 202.164 402.419 204.068 405.411 207.876C408.403 211.684 409.899 216.784 409.899 223.176H384.603C384.966 225.942 385.895 228.095 387.391 229.636C388.887 231.132 390.927 231.88 393.511 231.88C396.911 231.88 399.155 230.452 400.243 227.596H409.355C408.675 230.86 406.953 233.58 404.187 235.756C401.422 237.932 397.886 239.02 393.579 239.02ZM392.831 209.304C388.343 209.304 385.646 211.798 384.739 216.784H400.243C400.107 214.563 399.359 212.772 397.999 211.412C396.639 210.007 394.917 209.304 392.831 209.304ZM427.236 239.02C422.838 239.02 419.28 237.366 416.56 234.056C413.84 230.702 412.48 226.214 412.48 220.592C412.48 215.152 413.862 210.732 416.628 207.332C419.438 203.887 423.02 202.164 427.372 202.164C431.724 202.164 435.01 203.887 437.232 207.332H437.436V189.38H446.684V238H437.776V233.444H437.64C435.373 237.162 431.905 239.02 427.236 239.02ZM429.276 231.268C431.996 231.268 434.058 230.339 435.464 228.48C436.914 226.622 437.64 224.06 437.64 220.796C437.64 213.362 434.942 209.644 429.548 209.644C427.054 209.644 425.15 210.642 423.836 212.636C422.521 214.631 421.864 217.283 421.864 220.592C421.864 223.992 422.498 226.622 423.768 228.48C425.082 230.339 426.918 231.268 429.276 231.268ZM480.369 210.8C481.253 210.8 481.933 211.48 481.933 212.364V216.036C481.933 216.92 482.613 217.6 483.497 217.6H487.305C488.189 217.6 488.869 218.28 488.869 219.164V238H481.933V219.164C481.933 218.28 481.253 217.6 480.369 217.6H473.093C472.209 217.6 471.529 216.92 471.529 216.036V212.364C471.529 211.48 470.849 210.8 469.965 210.8H466.157C465.273 210.8 464.593 210.12 464.593 209.236V190.4H471.529V209.236C471.529 210.12 472.209 210.8 473.093 210.8H480.369ZM488.869 217.6V210.8H497.709C498.593 210.8 499.273 210.12 499.273 209.236V190.4H506.209V209.236C506.209 210.12 505.529 210.8 504.645 210.8H500.837C499.953 210.8 499.273 211.48 499.273 212.364V216.036C499.273 216.92 498.593 217.6 497.709 217.6H488.869ZM512.66 238V203.116H521.908V238H512.66ZM512.66 197.676V189.38H521.908V197.676H512.66ZM544.255 239.02C538.634 239.02 534.214 237.298 530.995 233.852C527.776 230.362 526.167 225.919 526.167 220.524C526.167 215.311 527.776 210.959 530.995 207.468C534.214 203.932 538.339 202.164 543.371 202.164C548.856 202.164 553.095 204.068 556.087 207.876C559.079 211.684 560.575 216.784 560.575 223.176H535.279C535.642 225.942 536.571 228.095 538.067 229.636C539.563 231.132 541.603 231.88 544.187 231.88C547.587 231.88 549.831 230.452 550.919 227.596H560.031C559.351 230.86 557.628 233.58 554.863 235.756C552.098 237.932 548.562 239.02 544.255 239.02ZM543.507 209.304C539.019 209.304 536.322 211.798 535.415 216.784H550.919C550.783 214.563 550.035 212.772 548.675 211.412C547.315 210.007 545.592 209.304 543.507 209.304ZM564.991 238V189.38H574.239V238H564.991ZM593.384 239.02C588.987 239.02 585.428 237.366 582.708 234.056C579.988 230.702 578.628 226.214 578.628 220.592C578.628 215.152 580.011 210.732 582.776 207.332C585.587 203.887 589.168 202.164 593.52 202.164C597.872 202.164 601.159 203.887 603.38 207.332H603.584V189.38H612.832V238H603.924V233.444H603.788C601.521 237.162 598.053 239.02 593.384 239.02ZM595.424 231.268C598.144 231.268 600.207 230.339 601.612 228.48C603.063 226.622 603.788 224.06 603.788 220.796C603.788 213.362 601.091 209.644 595.696 209.644C593.203 209.644 591.299 210.642 589.984 212.636C588.669 214.631 588.012 217.283 588.012 220.592C588.012 223.992 588.647 226.622 589.916 228.48C591.231 230.339 593.067 231.268 595.424 231.268ZM626.256 205.564C626.256 204.68 626.936 204 627.82 204H654V210.8H627.82C626.936 210.8 626.256 211.48 626.256 212.364V216.036C626.256 216.92 626.936 217.6 627.82 217.6H645.5C646.384 217.6 647.064 218.28 647.064 219.164V222.836C647.064 223.72 647.744 224.4 648.628 224.4H652.436C653.32 224.4 654 225.08 654 225.964V229.636C654 230.52 653.32 231.2 652.436 231.2H648.628C647.744 231.2 647.064 231.88 647.064 232.764V236.436C647.064 237.32 646.384 238 645.5 238H619.32V231.2H645.5C646.384 231.2 647.064 230.52 647.064 229.636V225.964C647.064 225.08 646.384 224.4 645.5 224.4H627.82C626.936 224.4 626.256 223.72 626.256 222.836V219.164C626.256 218.28 625.576 217.6 624.692 217.6H620.884C620 217.6 619.32 216.92 619.32 216.036V212.364C619.32 211.48 620 210.8 620.884 210.8H624.692C625.576 210.8 626.256 210.12 626.256 209.236V205.564Z" fill="white"/>
</svg>
