<svg width="319" height="65" viewBox="0 0 319 65" fill="none" xmlns="http://www.w3.org/2000/svg">
<path d="M3.10172 10.69C3.10172 10.3 3.40172 10 3.79172 10H14.6517C15.0417 10 15.3417 10.3 15.3417 10.69V12.31C15.3417 12.7 15.6417 13 16.0317 13H17.7117C18.1017 13 18.4017 13.3 18.4017 13.69V22H15.3417V13.69C15.3417 13.3 15.0417 13 14.6517 13H3.79172C3.40172 13 3.10172 13.3 3.10172 13.69V22H0.0417188V13.69C0.0417188 13.3 0.341719 13 0.731719 13H2.41172C2.80172 13 3.10172 12.7 3.10172 12.31V10.69ZM0.0417188 10V4.69C0.0417188 4.3 0.341719 4 0.731719 4H2.41172C2.80172 4 3.10172 3.7 3.10172 3.31V1.69C3.10172 1.3 3.40172 0.999999 3.79172 0.999999H14.6517C15.0417 0.999999 15.3417 1.3 15.3417 1.69V3.31C15.3417 3.7 15.6417 4 16.0317 4H17.7117C18.1017 4 18.4017 4.3 18.4017 4.69V10H15.3417V4.69C15.3417 4.3 15.0417 4 14.6517 4H3.79172C3.40172 4 3.10172 4.3 3.10172 4.69V10H0.0417188ZM27.0077 22.45C25.0677 22.45 23.4977 21.72 22.2977 20.26C21.0977 18.78 20.4977 16.8 20.4977 14.32C20.4977 11.92 21.1077 9.97 22.3277 8.47C23.5677 6.95 25.1477 6.19 27.0677 6.19C28.9877 6.19 30.4377 6.95 31.4177 8.47H31.5077V0.549999H35.5877V22H31.6577V19.99H31.5977C30.5977 21.63 29.0677 22.45 27.0077 22.45ZM27.9077 19.03C29.1077 19.03 30.0177 18.62 30.6377 17.8C31.2777 16.98 31.5977 15.85 31.5977 14.41C31.5977 11.13 30.4077 9.49 28.0277 9.49C26.9277 9.49 26.0877 9.93 25.5077 10.81C24.9277 11.69 24.6377 12.86 24.6377 14.32C24.6377 15.82 24.9177 16.98 25.4777 17.8C26.0577 18.62 26.8677 19.03 27.9077 19.03ZM42.3199 22L36.9799 6.61H41.1199L43.5799 14.59L44.2699 17.05H44.3299C44.4699 16.39 44.6899 15.57 44.9899 14.59L47.5099 6.61H51.5899L46.2199 22H42.3199ZM62.2268 22C62.0268 21.74 61.8668 21.17 61.7468 20.29H61.6868C61.2468 20.95 60.6868 21.46 60.0068 21.82C59.3268 22.18 58.3768 22.36 57.1568 22.36C55.5368 22.36 54.2368 21.95 53.2568 21.13C52.2768 20.31 51.7868 19.15 51.7868 17.65C51.7868 16.09 52.3268 14.95 53.4068 14.23C54.4868 13.49 56.0068 12.98 57.9668 12.7C59.4068 12.5 60.3868 12.3 60.9068 12.1C61.4268 11.88 61.6868 11.5 61.6868 10.96C61.6868 10.4 61.4668 9.96 61.0268 9.64C60.5868 9.3 59.9468 9.13 59.1068 9.13C57.2468 9.13 56.2568 9.85 56.1368 11.29H52.5068C52.5668 9.83 53.1568 8.62 54.2768 7.66C55.3968 6.7 57.0168 6.22 59.1368 6.22C63.4568 6.22 65.6168 8.11 65.6168 11.89V19.72C65.6168 20.88 65.7968 21.59 66.1568 21.85V22H62.2268ZM58.1468 19.51C59.2668 19.51 60.1468 19.22 60.7868 18.64C61.4468 18.06 61.7768 17.37 61.7768 16.57V14.26C61.3368 14.52 60.3868 14.82 58.9268 15.16C57.7668 15.42 56.9468 15.72 56.4668 16.06C55.9868 16.38 55.7468 16.88 55.7468 17.56C55.7468 18.86 56.5468 19.51 58.1468 19.51ZM71.4806 7.69C71.4806 7.3 71.7806 7 72.1706 7H79.9706C80.3606 7 80.6606 7.3 80.6606 7.69V9.31C80.6606 9.7 80.9606 10 81.3506 10H83.0306C83.4206 10 83.7206 10.3 83.7206 10.69V22H80.6606V10.69C80.6606 10.3 80.3606 10 79.9706 10H72.1706C71.7806 10 71.4806 10.3 71.4806 10.69V22H68.4206V10.69C68.4206 10.3 68.7206 10 69.1106 10H70.7906C71.1806 10 71.4806 9.7 71.4806 9.31V7.69ZM93.7198 22.45C91.3398 22.45 89.4298 21.68 87.9898 20.14C86.5498 18.6 85.8298 16.66 85.8298 14.32C85.8298 11.98 86.5298 10.04 87.9298 8.5C89.3498 6.96 91.2098 6.19 93.5098 6.19C95.4498 6.19 97.0298 6.7 98.2498 7.72C99.4698 8.74 100.22 10.11 100.5 11.83H96.5098C96.3698 11.13 96.0498 10.56 95.5498 10.12C95.0498 9.68 94.4298 9.46 93.6898 9.46C92.4898 9.46 91.5698 9.89 90.9298 10.75C90.2898 11.61 89.9698 12.8 89.9698 14.32C89.9698 15.82 90.2798 17.01 90.8998 17.89C91.5198 18.75 92.4298 19.18 93.6298 19.18C95.4098 19.18 96.4398 18.31 96.7198 16.57H100.65C100.51 18.27 99.8198 19.68 98.5798 20.8C97.3398 21.9 95.7198 22.45 93.7198 22.45ZM109.659 22.45C107.179 22.45 105.229 21.69 103.809 20.17C102.389 18.63 101.679 16.67 101.679 14.29C101.679 11.99 102.389 10.07 103.809 8.53C105.229 6.97 107.049 6.19 109.269 6.19C111.689 6.19 113.559 7.03 114.879 8.71C116.199 10.39 116.859 12.64 116.859 15.46H105.699C105.859 16.68 106.269 17.63 106.929 18.31C107.589 18.97 108.489 19.3 109.629 19.3C111.129 19.3 112.119 18.67 112.599 17.41H116.619C116.319 18.85 115.559 20.05 114.339 21.01C113.119 21.97 111.559 22.45 109.659 22.45ZM109.329 9.34C107.349 9.34 106.159 10.44 105.759 12.64H112.599C112.539 11.66 112.209 10.87 111.609 10.27C111.009 9.65 110.249 9.34 109.329 9.34ZM124.508 22.45C122.568 22.45 120.998 21.72 119.798 20.26C118.598 18.78 117.998 16.8 117.998 14.32C117.998 11.92 118.608 9.97 119.828 8.47C121.068 6.95 122.648 6.19 124.568 6.19C126.488 6.19 127.938 6.95 128.918 8.47H129.008V0.549999H133.088V22H129.158V19.99H129.098C128.098 21.63 126.568 22.45 124.508 22.45ZM125.408 19.03C126.608 19.03 127.518 18.62 128.138 17.8C128.778 16.98 129.098 15.85 129.098 14.41C129.098 11.13 127.908 9.49 125.528 9.49C124.428 9.49 123.588 9.93 123.008 10.81C122.428 11.69 122.138 12.86 122.138 14.32C122.138 15.82 122.418 16.98 122.978 17.8C123.558 18.62 124.368 19.03 125.408 19.03ZM158.659 4C159.049 4 159.349 4.3 159.349 4.69V7H156.289V4.69C156.289 4.3 155.989 4 155.599 4H144.739C144.349 4 144.049 4.3 144.049 4.69V9.31C144.049 9.7 144.349 10 144.739 10H155.599C155.989 10 156.289 10.3 156.289 10.69V12.31C156.289 12.7 156.589 13 156.979 13H158.659C159.049 13 159.349 13.3 159.349 13.69V18.31C159.349 18.7 159.049 19 158.659 19H156.979C156.589 19 156.289 19.3 156.289 19.69V21.31C156.289 21.7 155.989 22 155.599 22H144.739C144.349 22 144.049 21.7 144.049 21.31V19.69C144.049 19.3 143.749 19 143.359 19H141.679C141.289 19 140.989 18.7 140.989 18.31V16H144.049V18.31C144.049 18.7 144.349 19 144.739 19H155.599C155.989 19 156.289 18.7 156.289 18.31V13.69C156.289 13.3 155.989 13 155.599 13H144.739C144.349 13 144.049 12.7 144.049 12.31V10.69C144.049 10.3 143.749 10 143.359 10H141.679C141.289 10 140.989 9.7 140.989 9.31V4.69C140.989 4.3 141.289 4 141.679 4H143.359C143.749 4 144.049 3.7 144.049 3.31V1.69C144.049 1.3 144.349 0.999999 144.739 0.999999H155.599C155.989 0.999999 156.289 1.3 156.289 1.69V3.31C156.289 3.7 156.589 4 156.979 4H158.659ZM169.425 22.45C166.945 22.45 164.995 21.69 163.575 20.17C162.155 18.63 161.445 16.67 161.445 14.29C161.445 11.99 162.155 10.07 163.575 8.53C164.995 6.97 166.815 6.19 169.035 6.19C171.455 6.19 173.325 7.03 174.645 8.71C175.965 10.39 176.625 12.64 176.625 15.46H165.465C165.625 16.68 166.035 17.63 166.695 18.31C167.355 18.97 168.255 19.3 169.395 19.3C170.895 19.3 171.885 18.67 172.365 17.41H176.385C176.085 18.85 175.325 20.05 174.105 21.01C172.885 21.97 171.325 22.45 169.425 22.45ZM169.095 9.34C167.115 9.34 165.925 10.44 165.525 12.64H172.365C172.305 11.66 171.975 10.87 171.375 10.27C170.775 9.65 170.015 9.34 169.095 9.34ZM185.653 22.45C183.273 22.45 181.363 21.68 179.923 20.14C178.483 18.6 177.763 16.66 177.763 14.32C177.763 11.98 178.463 10.04 179.863 8.5C181.283 6.96 183.143 6.19 185.443 6.19C187.383 6.19 188.963 6.7 190.183 7.72C191.403 8.74 192.153 10.11 192.433 11.83H188.443C188.303 11.13 187.983 10.56 187.483 10.12C186.983 9.68 186.363 9.46 185.623 9.46C184.423 9.46 183.503 9.89 182.863 10.75C182.223 11.61 181.903 12.8 181.903 14.32C181.903 15.82 182.213 17.01 182.833 17.89C183.453 18.75 184.363 19.18 185.563 19.18C187.343 19.18 188.373 18.31 188.653 16.57H192.583C192.443 18.27 191.753 19.68 190.513 20.8C189.273 21.9 187.653 22.45 185.653 22.45ZM208.013 22H204.083V20.2H203.993C203.433 20.96 202.813 21.52 202.133 21.88C201.473 22.24 200.623 22.42 199.583 22.42C197.903 22.42 196.593 21.92 195.653 20.92C194.713 19.92 194.243 18.57 194.243 16.87V6.61H198.293V16.18C198.293 18.04 199.143 18.97 200.843 18.97C201.783 18.97 202.533 18.65 203.093 18.01C203.653 17.37 203.933 16.53 203.933 15.49V6.61H208.013V22ZM213.922 7.69C213.922 7.3 214.222 7 214.612 7H222.412C222.802 7 223.102 7.3 223.102 7.69V9.31C223.102 9.7 223.402 10 223.792 10H225.472C225.862 10 226.162 10.3 226.162 10.69V13H223.102V10.69C223.102 10.3 222.802 10 222.412 10H214.612C214.222 10 213.922 10.3 213.922 10.69V22H210.862V10.69C210.862 10.3 211.162 10 211.552 10H213.232C213.622 10 213.922 9.7 213.922 9.31V7.69ZM229.021 22V6.61H233.101V22H229.021ZM229.021 4.21V0.549999H233.101V4.21H229.021ZM234.83 9.31V6.61H236.96V1.81H240.95V6.61H243.59V9.31H240.95V17.47C240.95 18.49 241.46 19 242.48 19L243.68 18.97V21.97C243.06 22.01 242.21 22.03 241.13 22.03C239.95 22.03 238.96 21.75 238.16 21.19C237.36 20.61 236.96 19.66 236.96 18.34V9.31H234.83ZM246.314 27.04V23.83H247.754C249.274 23.83 250.034 23.13 250.034 21.73C250.034 21.05 249.644 19.66 248.864 17.56L244.724 6.61H249.014L251.294 13.54L252.284 16.9H252.344C252.624 15.6 252.924 14.48 253.244 13.54L255.404 6.61H259.514L254.144 22.39C253.544 24.15 252.864 25.36 252.104 26.02C251.364 26.7 250.234 27.04 248.714 27.04H246.314ZM269.205 10.69C269.205 10.3 269.505 10 269.895 10H280.755C281.145 10 281.445 10.3 281.445 10.69V12.31C281.445 12.7 281.745 13 282.135 13H283.815C284.205 13 284.505 13.3 284.505 13.69V22H281.445V13.69C281.445 13.3 281.145 13 280.755 13H269.895C269.505 13 269.205 13.3 269.205 13.69V22H266.145V13.69C266.145 13.3 266.445 13 266.835 13H268.515C268.905 13 269.205 12.7 269.205 12.31V10.69ZM266.145 10V4.69C266.145 4.3 266.445 4 266.835 4H268.515C268.905 4 269.205 3.7 269.205 3.31V1.69C269.205 1.3 269.505 0.999999 269.895 0.999999H280.755C281.145 0.999999 281.445 1.3 281.445 1.69V3.31C281.445 3.7 281.745 4 282.135 4H283.815C284.205 4 284.505 4.3 284.505 4.69V10H281.445V4.69C281.445 4.3 281.145 4 280.755 4H269.895C269.505 4 269.205 4.3 269.205 4.69V10H266.145ZM291.341 6.61V8.71H291.431C292.491 7.03 294.011 6.19 295.991 6.19C297.571 6.19 298.851 6.73 299.831 7.81C300.811 8.87 301.301 10.25 301.301 11.95V22H297.221V12.55C297.221 11.71 296.981 11.03 296.501 10.51C296.041 9.99 295.391 9.73 294.551 9.73C293.651 9.73 292.901 10.06 292.301 10.72C291.721 11.38 291.431 12.23 291.431 13.27V22H287.351V6.61H291.341ZM309.576 22.45C307.636 22.45 306.066 21.72 304.866 20.26C303.666 18.78 303.066 16.8 303.066 14.32C303.066 11.92 303.676 9.97 304.896 8.47C306.136 6.95 307.716 6.19 309.636 6.19C311.556 6.19 313.006 6.95 313.986 8.47H314.076V0.549999H318.156V22H314.226V19.99H314.166C313.166 21.63 311.636 22.45 309.576 22.45ZM310.476 19.03C311.676 19.03 312.586 18.62 313.206 17.8C313.846 16.98 314.166 15.85 314.166 14.41C314.166 11.13 312.976 9.49 310.596 9.49C309.496 9.49 308.656 9.93 308.076 10.81C307.496 11.69 307.206 12.86 307.206 14.32C307.206 15.82 307.486 16.98 308.046 17.8C308.626 18.62 309.436 19.03 310.476 19.03ZM66.1819 46C66.5719 46 66.8719 46.3 66.8719 46.69V64H63.8119V46.69C63.8119 46.3 63.5119 46 63.1219 46H58.3819C57.9919 46 57.6919 46.3 57.6919 46.69V64H54.6319V46.69C54.6319 46.3 54.3319 46 53.9419 46H49.2019C48.8119 46 48.5119 46.3 48.5119 46.69V64H45.4519V46.69C45.4519 46.3 45.7519 46 46.1419 46H47.8219C48.2119 46 48.5119 45.7 48.5119 45.31V43.69C48.5119 43.3 48.8119 43 49.2019 43H53.9419C54.3319 43 54.6319 43.3 54.6319 43.69V45.31C54.6319 45.7 54.9319 46 55.3219 46H57.0019C57.3919 46 57.6919 45.7 57.6919 45.31V43.69C57.6919 43.3 57.9919 43 58.3819 43H63.0919C63.4819 43 63.8119 43.3 63.8119 43.69V45.31C63.8119 45.7 64.1119 46 64.5019 46H66.1819ZM79.4241 64C79.2241 63.74 79.0641 63.17 78.9441 62.29H78.8841C78.4441 62.95 77.8841 63.46 77.2041 63.82C76.5241 64.18 75.5741 64.36 74.3541 64.36C72.7341 64.36 71.4341 63.95 70.4541 63.13C69.4741 62.31 68.9841 61.15 68.9841 59.65C68.9841 58.09 69.5241 56.95 70.6041 56.23C71.6841 55.49 73.2041 54.98 75.1641 54.7C76.6041 54.5 77.5841 54.3 78.1041 54.1C78.6241 53.88 78.8841 53.5 78.8841 52.96C78.8841 52.4 78.6641 51.96 78.2241 51.64C77.7841 51.3 77.1441 51.13 76.3041 51.13C74.4441 51.13 73.4541 51.85 73.3341 53.29H69.7041C69.7641 51.83 70.3541 50.62 71.4741 49.66C72.5941 48.7 74.2141 48.22 76.3341 48.22C80.6541 48.22 82.8141 50.11 82.8141 53.89V61.72C82.8141 62.88 82.9941 63.59 83.3541 63.85V64H79.4241ZM75.3441 61.51C76.4641 61.51 77.3441 61.22 77.9841 60.64C78.6441 60.06 78.9741 59.37 78.9741 58.57V56.26C78.5341 56.52 77.5841 56.82 76.1241 57.16C74.9641 57.42 74.1441 57.72 73.6641 58.06C73.1841 58.38 72.9441 58.88 72.9441 59.56C72.9441 60.86 73.7441 61.51 75.3441 61.51ZM84.3279 64L89.9379 55.84L84.9279 48.61H89.5779L92.3079 53.02H92.3679L94.9479 48.61H99.1779L94.4079 55.81L99.8979 64H95.0379L92.1879 58.9H92.1279L88.7979 64H84.3279ZM101.463 64V48.61H105.543V64H101.463ZM101.463 46.21V42.55H105.543V46.21H101.463ZM111.442 49.69C111.442 49.3 111.742 49 112.132 49H115.342C115.732 49 116.032 49.3 116.032 49.69V51.31C116.032 51.7 116.332 52 116.722 52H118.402C118.792 52 119.092 51.7 119.092 51.31V49.69C119.092 49.3 119.392 49 119.782 49H122.992C123.382 49 123.682 49.3 123.682 49.69V51.31C123.682 51.7 123.982 52 124.372 52H126.052C126.442 52 126.742 52.3 126.742 52.69V64H123.682V52.69C123.682 52.3 123.382 52 122.992 52H119.782C119.392 52 119.092 52.3 119.092 52.69V64H116.032V52.69C116.032 52.3 115.732 52 115.342 52H112.132C111.742 52 111.442 52.3 111.442 52.69V64H108.382V52.69C108.382 52.3 108.682 52 109.072 52H110.752C111.142 52 111.442 51.7 111.442 51.31V49.69ZM129.588 64V48.61H133.668V64H129.588ZM129.588 46.21V42.55H133.668V46.21H129.588ZM135.787 64V60.88L143.707 51.91V51.82H136.687V48.61H148.447V51.88L140.707 60.64V60.73H148.837V64H135.787ZM157.648 64.45C155.168 64.45 153.218 63.69 151.798 62.17C150.378 60.63 149.668 58.67 149.668 56.29C149.668 53.99 150.378 52.07 151.798 50.53C153.218 48.97 155.038 48.19 157.258 48.19C159.678 48.19 161.548 49.03 162.868 50.71C164.188 52.39 164.848 54.64 164.848 57.46H153.688C153.848 58.68 154.258 59.63 154.918 60.31C155.578 60.97 156.478 61.3 157.618 61.3C159.118 61.3 160.108 60.67 160.588 59.41H164.608C164.308 60.85 163.548 62.05 162.328 63.01C161.108 63.97 159.548 64.45 157.648 64.45ZM157.318 51.34C155.338 51.34 154.148 52.44 153.748 54.64H160.588C160.528 53.66 160.198 52.87 159.598 52.27C158.998 51.65 158.238 51.34 157.318 51.34ZM172.496 64.45C170.556 64.45 168.986 63.72 167.786 62.26C166.586 60.78 165.986 58.8 165.986 56.32C165.986 53.92 166.596 51.97 167.816 50.47C169.056 48.95 170.636 48.19 172.556 48.19C174.476 48.19 175.926 48.95 176.906 50.47H176.996V42.55H181.076V64H177.146V61.99H177.086C176.086 63.63 174.556 64.45 172.496 64.45ZM173.396 61.03C174.596 61.03 175.506 60.62 176.126 59.8C176.766 58.98 177.086 57.85 177.086 56.41C177.086 53.13 175.896 51.49 173.516 51.49C172.416 51.49 171.576 51.93 170.996 52.81C170.416 53.69 170.126 54.86 170.126 56.32C170.126 57.82 170.406 58.98 170.966 59.8C171.546 60.62 172.356 61.03 173.396 61.03ZM195.937 52C196.327 52 196.627 52.3 196.627 52.69V54.31C196.627 54.7 196.927 55 197.317 55H198.997C199.387 55 199.687 55.3 199.687 55.69V64H196.627V55.69C196.627 55.3 196.327 55 195.937 55H192.727C192.337 55 192.037 54.7 192.037 54.31V52.69C192.037 52.3 191.737 52 191.347 52H189.667C189.277 52 188.977 51.7 188.977 51.31V43H192.037V51.31C192.037 51.7 192.337 52 192.727 52H195.937ZM199.687 55V52H203.587C203.977 52 204.277 51.7 204.277 51.31V43H207.337V51.31C207.337 51.7 207.037 52 206.647 52H204.967C204.577 52 204.277 52.3 204.277 52.69V54.31C204.277 54.7 203.977 55 203.587 55H199.687ZM210.183 64V48.61H214.263V64H210.183ZM210.183 46.21V42.55H214.263V46.21H210.183ZM224.122 64.45C221.642 64.45 219.692 63.69 218.272 62.17C216.852 60.63 216.142 58.67 216.142 56.29C216.142 53.99 216.852 52.07 218.272 50.53C219.692 48.97 221.512 48.19 223.732 48.19C226.152 48.19 228.022 49.03 229.342 50.71C230.662 52.39 231.322 54.64 231.322 57.46H220.162C220.322 58.68 220.732 59.63 221.392 60.31C222.052 60.97 222.952 61.3 224.092 61.3C225.592 61.3 226.582 60.67 227.062 59.41H231.082C230.782 60.85 230.022 62.05 228.802 63.01C227.582 63.97 226.022 64.45 224.122 64.45ZM223.792 51.34C221.812 51.34 220.622 52.44 220.222 54.64H227.062C227.002 53.66 226.672 52.87 226.072 52.27C225.472 51.65 224.712 51.34 223.792 51.34ZM233.271 64V42.55H237.351V64H233.271ZM245.797 64.45C243.857 64.45 242.287 63.72 241.087 62.26C239.887 60.78 239.287 58.8 239.287 56.32C239.287 53.92 239.897 51.97 241.117 50.47C242.357 48.95 243.937 48.19 245.857 48.19C247.777 48.19 249.227 48.95 250.207 50.47H250.297V42.55H254.377V64H250.447V61.99H250.387C249.387 63.63 247.857 64.45 245.797 64.45ZM246.697 61.03C247.897 61.03 248.807 60.62 249.427 59.8C250.067 58.98 250.387 57.85 250.387 56.41C250.387 53.13 249.197 51.49 246.817 51.49C245.717 51.49 244.877 51.93 244.297 52.81C243.717 53.69 243.427 54.86 243.427 56.32C243.427 57.82 243.707 58.98 244.267 59.8C244.847 60.62 245.657 61.03 246.697 61.03ZM260.299 49.69C260.299 49.3 260.599 49 260.989 49H272.539V52H260.989C260.599 52 260.299 52.3 260.299 52.69V54.31C260.299 54.7 260.599 55 260.989 55H268.789C269.179 55 269.479 55.3 269.479 55.69V57.31C269.479 57.7 269.779 58 270.169 58H271.849C272.239 58 272.539 58.3 272.539 58.69V60.31C272.539 60.7 272.239 61 271.849 61H270.169C269.779 61 269.479 61.3 269.479 61.69V63.31C269.479 63.7 269.179 64 268.789 64H257.239V61H268.789C269.179 61 269.479 60.7 269.479 60.31V58.69C269.479 58.3 269.179 58 268.789 58H260.989C260.599 58 260.299 57.7 260.299 57.31V55.69C260.299 55.3 259.999 55 259.609 55H257.929C257.539 55 257.239 54.7 257.239 54.31V52.69C257.239 52.3 257.539 52 257.929 52H259.609C259.999 52 260.299 51.7 260.299 51.31V49.69Z" fill="white"/>
</svg>
