<svg width="429" height="262" viewBox="0 0 429 262" fill="none" xmlns="http://www.w3.org/2000/svg">
<path d="M25 0V50.0002" stroke="#9F57F2" stroke-width="5.91719"/>
<path d="M42.7739 7.41919L7.226 42.5812" stroke="#9F57F2" stroke-width="5.91719"/>
<path d="M50 25.0742L-2.3534e-06 24.9258" stroke="#9F57F2" stroke-width="5.91719"/>
<path d="M42.6069 42.7483L7.39288 7.25191" stroke="#9F57F2" stroke-width="5.91719"/>
<path d="M19.108 149.596V143.748C13.5773 143.431 9.29333 141.958 6.256 139.328C3.21867 136.654 1.632 133.027 1.496 128.448H10.744C11.0613 130.851 11.8773 132.687 13.192 133.956C14.552 135.18 16.524 135.928 19.108 136.2V123.28C18.9267 123.28 18.8133 123.258 18.768 123.212C16.7733 122.759 15.1413 122.351 13.872 121.988C12.6027 121.626 11.1747 121.082 9.588 120.356C8.04667 119.586 6.82267 118.77 5.916 117.908C5.05467 117.002 4.30667 115.823 3.672 114.372C3.08267 112.876 2.788 111.199 2.788 109.34C2.788 105.079 4.26133 101.747 7.208 99.3442C10.2 96.9416 14.1667 95.6269 19.108 95.4002V91.3882H23.188V95.4682C27.812 95.8762 31.4613 97.3269 34.136 99.8202C36.856 102.268 38.3747 105.623 38.692 109.884H29.648C29.1947 106.167 27.0413 103.923 23.188 103.152V114.916C23.2787 114.962 23.4147 114.984 23.596 114.984C26.0893 115.483 28.1973 116.027 29.92 116.616C31.6427 117.206 33.32 118.022 34.952 119.064C36.584 120.107 37.808 121.467 38.624 123.144C39.44 124.822 39.848 126.816 39.848 129.128C39.848 133.571 38.3067 137.084 35.224 139.668C32.1867 142.207 28.1747 143.59 23.188 143.816V149.596H19.108ZM30.328 130.284C30.328 128.652 29.7387 127.406 28.56 126.544C27.4267 125.683 25.636 124.935 23.188 124.3V136.2C25.3187 135.974 27.0413 135.384 28.356 134.432C29.6707 133.435 30.328 132.052 30.328 130.284ZM14.076 104.716C12.852 105.623 12.24 106.824 12.24 108.32C12.24 109.816 12.7613 110.995 13.804 111.856C14.892 112.672 16.66 113.398 19.108 114.032V102.948C16.9773 103.175 15.3 103.764 14.076 104.716ZM52.1735 117.364C52.1735 116.48 52.8535 115.8 53.7375 115.8H78.3535C79.2375 115.8 79.9175 116.48 79.9175 117.364V121.036C79.9175 121.92 80.5975 122.6 81.4815 122.6H85.2895C86.1735 122.6 86.8535 123.28 86.8535 124.164V143H79.9175V124.164C79.9175 123.28 79.2375 122.6 78.3535 122.6H53.7375C52.8535 122.6 52.1735 123.28 52.1735 124.164V143H45.2375V124.164C45.2375 123.28 45.9175 122.6 46.8015 122.6H50.6095C51.4935 122.6 52.1735 121.92 52.1735 121.036V117.364ZM45.2375 115.8V103.764C45.2375 102.88 45.9175 102.2 46.8015 102.2H50.6095C51.4935 102.2 52.1735 101.52 52.1735 100.636V96.9642C52.1735 96.0802 52.8535 95.4002 53.7375 95.4002H78.3535C79.2375 95.4002 79.9175 96.0802 79.9175 96.9642V100.636C79.9175 101.52 80.5975 102.2 81.4815 102.2H85.2895C86.1735 102.2 86.8535 102.88 86.8535 103.764V115.8H79.9175V103.764C79.9175 102.88 79.2375 102.2 78.3535 102.2H53.7375C52.8535 102.2 52.1735 102.88 52.1735 103.764V115.8H45.2375ZM128.461 141.436C128.461 142.32 127.78 143 126.897 143H102.281C101.397 143 100.717 142.32 100.717 141.436V137.764C100.717 136.88 100.037 136.2 99.1525 136.2H95.3445C94.4605 136.2 93.7805 135.52 93.7805 134.636V103.764C93.7805 102.88 94.4605 102.2 95.3445 102.2H99.1525C100.037 102.2 100.717 101.52 100.717 100.636V96.9642C100.717 96.0802 101.397 95.4002 102.281 95.4002H126.897C127.78 95.4002 128.461 96.0802 128.461 96.9642V100.636C128.461 101.52 129.141 102.2 130.025 102.2H133.833C134.717 102.2 135.397 102.88 135.397 103.764V109H128.461V103.764C128.461 102.88 127.78 102.2 126.897 102.2H102.281C101.397 102.2 100.717 102.88 100.717 103.764V134.636C100.717 135.52 101.397 136.2 102.281 136.2H126.897C127.78 136.2 128.461 135.52 128.461 134.636V124.164C128.461 123.28 127.78 122.6 126.897 122.6H114.589V115.8H126.897C127.78 115.8 128.461 116.48 128.461 117.364V121.036C128.461 121.92 129.141 122.6 130.025 122.6H133.833C134.717 122.6 135.397 123.28 135.397 124.164V134.636C135.397 135.52 134.717 136.2 133.833 136.2H130.025C129.141 136.2 128.461 136.88 128.461 137.764V141.436ZM142.323 130.964C142.323 130.08 143.003 129.4 143.887 129.4H147.695C148.579 129.4 149.259 128.72 149.259 127.836V124.164C149.259 123.28 149.939 122.6 150.823 122.6H154.631C155.515 122.6 156.195 121.92 156.195 121.036V117.364C156.195 116.48 155.515 115.8 154.631 115.8H150.823C149.939 115.8 149.259 115.12 149.259 114.236V110.564C149.259 109.68 148.579 109 147.695 109H143.887C143.003 109 142.323 108.32 142.323 107.436V95.4002H149.259V107.436C149.259 108.32 149.939 109 150.823 109H154.631C155.515 109 156.195 109.68 156.195 110.564V114.236C156.195 115.12 156.875 115.8 157.759 115.8H168.503C169.387 115.8 170.067 115.12 170.067 114.236V110.564C170.067 109.68 170.747 109 171.631 109H175.439C176.323 109 177.003 108.32 177.003 107.436V95.4002H183.939V107.436C183.939 108.32 183.259 109 182.375 109H178.567C177.683 109 177.003 109.68 177.003 110.564V114.236C177.003 115.12 176.323 115.8 175.439 115.8H171.631C170.747 115.8 170.067 116.48 170.067 117.364V121.036C170.067 121.92 170.747 122.6 171.631 122.6H175.439C176.323 122.6 177.003 123.28 177.003 124.164V127.836C177.003 128.72 177.683 129.4 178.567 129.4H182.375C183.259 129.4 183.939 130.08 183.939 130.964V143H177.003V130.964C177.003 130.08 176.323 129.4 175.439 129.4H171.631C170.747 129.4 170.067 128.72 170.067 127.836V124.164C170.067 123.28 169.387 122.6 168.503 122.6H157.759C156.875 122.6 156.195 123.28 156.195 124.164V127.836C156.195 128.72 155.515 129.4 154.631 129.4H150.823C149.939 129.4 149.259 130.08 149.259 130.964V143H142.323V130.964ZM223.776 143C223.323 142.411 222.96 141.119 222.688 139.124H222.552C221.555 140.62 220.286 141.776 218.744 142.592C217.203 143.408 215.05 143.816 212.284 143.816C208.612 143.816 205.666 142.887 203.444 141.028C201.223 139.17 200.112 136.54 200.112 133.14C200.112 129.604 201.336 127.02 203.784 125.388C206.232 123.711 209.678 122.555 214.12 121.92C217.384 121.467 219.606 121.014 220.784 120.56C221.963 120.062 222.552 119.2 222.552 117.976C222.552 116.707 222.054 115.71 221.056 114.984C220.059 114.214 218.608 113.828 216.704 113.828C212.488 113.828 210.244 115.46 209.972 118.724H201.744C201.88 115.415 203.218 112.672 205.756 110.496C208.295 108.32 211.967 107.232 216.772 107.232C226.564 107.232 231.46 111.516 231.46 120.084V137.832C231.46 140.462 231.868 142.071 232.684 142.66V143H223.776ZM214.528 137.356C217.067 137.356 219.062 136.699 220.512 135.384C222.008 134.07 222.756 132.506 222.756 130.692V125.456C221.759 126.046 219.606 126.726 216.296 127.496C213.667 128.086 211.808 128.766 210.72 129.536C209.632 130.262 209.088 131.395 209.088 132.936C209.088 135.883 210.902 137.356 214.528 137.356ZM246.384 108.116V112.876H246.588C248.99 109.068 252.436 107.164 256.924 107.164C260.505 107.164 263.406 108.388 265.628 110.836C267.849 113.239 268.96 116.367 268.96 120.22V143H259.712V121.58C259.712 119.676 259.168 118.135 258.08 116.956C257.037 115.778 255.564 115.188 253.66 115.188C251.62 115.188 249.92 115.936 248.56 117.432C247.245 118.928 246.588 120.855 246.588 123.212V143H237.34V108.116H246.384ZM287.716 144.02C283.319 144.02 279.76 142.366 277.04 139.056C274.32 135.702 272.96 131.214 272.96 125.592C272.96 120.152 274.343 115.732 277.108 112.332C279.919 108.887 283.5 107.164 287.852 107.164C292.204 107.164 295.491 108.887 297.712 112.332H297.916V94.3802H307.164V143H298.256V138.444H298.12C295.853 142.162 292.385 144.02 287.716 144.02ZM289.756 136.268C292.476 136.268 294.539 135.339 295.944 133.48C297.395 131.622 298.12 129.06 298.12 125.796C298.12 118.362 295.423 114.644 290.028 114.644C287.535 114.644 285.631 115.642 284.316 117.636C283.001 119.631 282.344 122.283 282.344 125.592C282.344 128.992 282.979 131.622 284.248 133.48C285.563 135.339 287.399 136.268 289.756 136.268ZM19.108 244.596V238.748C13.5773 238.431 9.29333 236.958 6.256 234.328C3.21867 231.654 1.632 228.027 1.496 223.448H10.744C11.0613 225.851 11.8773 227.687 13.192 228.956C14.552 230.18 16.524 230.928 19.108 231.2V218.28C18.9267 218.28 18.8133 218.258 18.768 218.212C16.7733 217.759 15.1413 217.351 13.872 216.988C12.6027 216.626 11.1747 216.082 9.588 215.356C8.04667 214.586 6.82267 213.77 5.916 212.908C5.05467 212.002 4.30667 210.823 3.672 209.372C3.08267 207.876 2.788 206.199 2.788 204.34C2.788 200.079 4.26133 196.747 7.208 194.344C10.2 191.942 14.1667 190.627 19.108 190.4V186.388H23.188V190.468C27.812 190.876 31.4613 192.327 34.136 194.82C36.856 197.268 38.3747 200.623 38.692 204.884H29.648C29.1947 201.167 27.0413 198.923 23.188 198.152V209.916C23.2787 209.962 23.4147 209.984 23.596 209.984C26.0893 210.483 28.1973 211.027 29.92 211.616C31.6427 212.206 33.32 213.022 34.952 214.064C36.584 215.107 37.808 216.467 38.624 218.144C39.44 219.822 39.848 221.816 39.848 224.128C39.848 228.571 38.3067 232.084 35.224 234.668C32.1867 237.207 28.1747 238.59 23.188 238.816V244.596H19.108ZM30.328 225.284C30.328 223.652 29.7387 222.406 28.56 221.544C27.4267 220.683 25.636 219.935 23.188 219.3V231.2C25.3187 230.974 27.0413 230.384 28.356 229.432C29.6707 228.435 30.328 227.052 30.328 225.284ZM14.076 199.716C12.852 200.623 12.24 201.824 12.24 203.32C12.24 204.816 12.7613 205.995 13.804 206.856C14.892 207.672 16.66 208.398 19.108 209.032V197.948C16.9773 198.175 15.3 198.764 14.076 199.716ZM52.1735 212.364C52.1735 211.48 52.8535 210.8 53.7375 210.8H78.3535C79.2375 210.8 79.9175 211.48 79.9175 212.364V216.036C79.9175 216.92 80.5975 217.6 81.4815 217.6H85.2895C86.1735 217.6 86.8535 218.28 86.8535 219.164V238H79.9175V219.164C79.9175 218.28 79.2375 217.6 78.3535 217.6H53.7375C52.8535 217.6 52.1735 218.28 52.1735 219.164V238H45.2375V219.164C45.2375 218.28 45.9175 217.6 46.8015 217.6H50.6095C51.4935 217.6 52.1735 216.92 52.1735 216.036V212.364ZM45.2375 210.8V198.764C45.2375 197.88 45.9175 197.2 46.8015 197.2H50.6095C51.4935 197.2 52.1735 196.52 52.1735 195.636V191.964C52.1735 191.08 52.8535 190.4 53.7375 190.4H78.3535C79.2375 190.4 79.9175 191.08 79.9175 191.964V195.636C79.9175 196.52 80.5975 197.2 81.4815 197.2H85.2895C86.1735 197.2 86.8535 197.88 86.8535 198.764V210.8H79.9175V198.764C79.9175 197.88 79.2375 197.2 78.3535 197.2H53.7375C52.8535 197.2 52.1735 197.88 52.1735 198.764V210.8H45.2375ZM93.7805 190.4H100.717V229.636C100.717 230.52 101.397 231.2 102.281 231.2H126.897C127.78 231.2 128.461 230.52 128.461 229.636V224.4H135.397V229.636C135.397 230.52 134.717 231.2 133.833 231.2H130.025C129.141 231.2 128.461 231.88 128.461 232.764V236.436C128.461 237.32 127.78 238 126.897 238H102.281C101.397 238 100.717 237.32 100.717 236.436V232.764C100.717 231.88 100.037 231.2 99.1525 231.2H95.3445C94.4605 231.2 93.7805 230.52 93.7805 229.636V190.4ZM177.003 216.036C177.003 216.92 176.323 217.6 175.439 217.6H156.127V210.8H175.439C176.323 210.8 177.003 210.12 177.003 209.236V198.764C177.003 197.88 176.323 197.2 175.439 197.2H150.823C149.939 197.2 149.259 197.88 149.259 198.764V238H142.323V198.764C142.323 197.88 143.003 197.2 143.887 197.2H147.695C148.579 197.2 149.259 196.52 149.259 195.636V191.964C149.259 191.08 149.939 190.4 150.823 190.4H175.439C176.323 190.4 177.003 191.08 177.003 191.964V195.636C177.003 196.52 177.683 197.2 178.567 197.2H182.375C183.259 197.2 183.939 197.88 183.939 198.764V209.236C183.939 210.12 183.259 210.8 182.375 210.8H178.567C177.683 210.8 177.003 211.48 177.003 212.364V216.036ZM200.044 197.676V189.38H239.144V197.676H224.524V238H214.664V197.676H200.044ZM265.195 233.784C261.795 237.275 257.42 239.02 252.071 239.02C246.721 239.02 242.347 237.275 238.947 233.784C235.547 230.248 233.847 225.851 233.847 220.592C233.847 215.334 235.547 210.959 238.947 207.468C242.347 203.932 246.721 202.164 252.071 202.164C257.42 202.164 261.795 203.932 265.195 207.468C268.595 210.959 270.295 215.334 270.295 220.592C270.295 225.851 268.595 230.248 265.195 233.784ZM252.071 231.948C254.836 231.948 256.989 230.928 258.531 228.888C260.117 226.803 260.911 224.038 260.911 220.592C260.911 217.147 260.117 214.382 258.531 212.296C256.989 210.211 254.836 209.168 252.071 209.168C249.26 209.168 247.084 210.211 245.543 212.296C244.001 214.336 243.231 217.102 243.231 220.592C243.231 224.038 244.001 226.803 245.543 228.888C247.084 230.928 249.26 231.948 252.071 231.948ZM297.578 238L287.786 222.088L283.774 226.236V238H274.594V189.38H283.774V216.308L296.15 203.116H307.234L294.382 216.376L308.798 238H297.578ZM325.712 239.02C320.091 239.02 315.671 237.298 312.452 233.852C309.233 230.362 307.624 225.919 307.624 220.524C307.624 215.311 309.233 210.959 312.452 207.468C315.671 203.932 319.796 202.164 324.828 202.164C330.313 202.164 334.552 204.068 337.544 207.876C340.536 211.684 342.032 216.784 342.032 223.176H316.736C317.099 225.942 318.028 228.095 319.524 229.636C321.02 231.132 323.06 231.88 325.644 231.88C329.044 231.88 331.288 230.452 332.376 227.596H341.488C340.808 230.86 339.085 233.58 336.32 235.756C333.555 237.932 330.019 239.02 325.712 239.02ZM324.964 209.304C320.476 209.304 317.779 211.798 316.872 216.784H332.376C332.24 214.563 331.492 212.772 330.132 211.412C328.772 210.007 327.049 209.304 324.964 209.304ZM353.724 205.564C353.724 204.68 354.404 204 355.288 204H372.968C373.852 204 374.532 204.68 374.532 205.564V209.236C374.532 210.12 375.212 210.8 376.096 210.8H379.904C380.788 210.8 381.468 211.48 381.468 212.364V238H374.532V212.364C374.532 211.48 373.852 210.8 372.968 210.8H355.288C354.404 210.8 353.724 211.48 353.724 212.364V238H346.788V212.364C346.788 211.48 347.468 210.8 348.352 210.8H352.16C353.044 210.8 353.724 210.12 353.724 209.236V205.564ZM402.093 239.02C397.106 239.02 393.208 237.932 390.397 235.756C387.586 233.535 386.045 230.52 385.773 226.712H394.341C394.93 230.566 397.469 232.492 401.957 232.492C403.997 232.492 405.561 232.13 406.649 231.404C407.782 230.679 408.349 229.704 408.349 228.48C408.349 228.027 408.258 227.619 408.077 227.256C407.941 226.894 407.669 226.576 407.261 226.304C406.898 225.987 406.558 225.738 406.241 225.556C405.969 225.375 405.47 225.194 404.745 225.012C404.02 224.831 403.453 224.695 403.045 224.604C402.682 224.514 402.025 224.4 401.073 224.264C400.166 224.083 399.532 223.947 399.169 223.856C397.265 223.494 395.701 223.131 394.477 222.768C393.298 222.36 392.052 221.794 390.737 221.068C389.422 220.298 388.425 219.278 387.745 218.008C387.11 216.694 386.793 215.13 386.793 213.316C386.793 209.69 388.108 206.924 390.737 205.02C393.412 203.116 396.834 202.164 401.005 202.164C405.493 202.164 409.006 203.207 411.545 205.292C414.129 207.332 415.602 210.143 415.965 213.724H407.601C407.238 210.324 404.994 208.624 400.869 208.624C399.01 208.624 397.537 208.964 396.449 209.644C395.406 210.324 394.885 211.276 394.885 212.5C394.885 212.908 394.953 213.294 395.089 213.656C395.27 213.974 395.542 214.268 395.905 214.54C396.313 214.767 396.698 214.971 397.061 215.152C397.424 215.288 397.945 215.447 398.625 215.628C399.305 215.764 399.894 215.9 400.393 216.036C400.892 216.127 401.572 216.263 402.433 216.444C403.294 216.58 403.974 216.694 404.473 216.784C405.924 217.102 407.102 217.396 408.009 217.668C408.961 217.895 410.049 218.303 411.273 218.892C412.497 219.436 413.449 220.071 414.129 220.796C414.854 221.476 415.466 222.428 415.965 223.652C416.509 224.831 416.781 226.214 416.781 227.8C416.781 231.246 415.421 233.988 412.701 236.028C410.026 238.023 406.49 239.02 402.093 239.02Z" fill="white"/>
</svg>
