<svg width="326" height="26" viewBox="0 0 326 26" fill="none" xmlns="http://www.w3.org/2000/svg">
<path d="M8.29035 25.91V23.33C5.85035 23.19 3.96035 22.54 2.62035 21.38C1.28035 20.2 0.580352 18.6 0.520352 16.58H4.60035C4.74035 17.64 5.10035 18.45 5.68035 19.01C6.28035 19.55 7.15035 19.88 8.29035 20V14.3C8.21035 14.3 8.16035 14.29 8.14035 14.27C7.26035 14.07 6.54035 13.89 5.98035 13.73C5.42035 13.57 4.79035 13.33 4.09035 13.01C3.41035 12.67 2.87035 12.31 2.47035 11.93C2.09035 11.53 1.76035 11.01 1.48035 10.37C1.22035 9.71 1.09035 8.97 1.09035 8.15C1.09035 6.27 1.74035 4.8 3.04035 3.74C4.36035 2.68 6.11035 2.1 8.29035 2V0.229998H10.0904V2.03C12.1304 2.21 13.7404 2.85 14.9204 3.95C16.1204 5.03 16.7904 6.51 16.9304 8.39H12.9404C12.7404 6.75 11.7904 5.76 10.0904 5.42V10.61C10.1304 10.63 10.1904 10.64 10.2704 10.64C11.3704 10.86 12.3004 11.1 13.0604 11.36C13.8204 11.62 14.5604 11.98 15.2804 12.44C16.0004 12.9 16.5404 13.5 16.9004 14.24C17.2604 14.98 17.4404 15.86 17.4404 16.88C17.4404 18.84 16.7604 20.39 15.4004 21.53C14.0604 22.65 12.2904 23.26 10.0904 23.36V25.91H8.29035ZM13.2404 17.39C13.2404 16.67 12.9804 16.12 12.4604 15.74C11.9604 15.36 11.1704 15.03 10.0904 14.75V20C11.0304 19.9 11.7904 19.64 12.3704 19.22C12.9504 18.78 13.2404 18.17 13.2404 17.39ZM6.07035 6.11C5.53035 6.51 5.26035 7.04 5.26035 7.7C5.26035 8.36 5.49035 8.88 5.95035 9.26C6.43035 9.62 7.21035 9.94 8.29035 10.22V5.33C7.35035 5.43 6.61035 5.69 6.07035 6.11ZM22.8781 11.69C22.8781 11.3 23.1781 11 23.5681 11H34.4281C34.8181 11 35.1181 11.3 35.1181 11.69V13.31C35.1181 13.7 35.4181 14 35.8081 14H37.4881C37.8781 14 38.1781 14.3 38.1781 14.69V23H35.1181V14.69C35.1181 14.3 34.8181 14 34.4281 14H23.5681C23.1781 14 22.8781 14.3 22.8781 14.69V23H19.8181V14.69C19.8181 14.3 20.1181 14 20.5081 14H22.1881C22.5781 14 22.8781 13.7 22.8781 13.31V11.69ZM19.8181 11V5.69C19.8181 5.3 20.1181 5 20.5081 5H22.1881C22.5781 5 22.8781 4.7 22.8781 4.31V2.69C22.8781 2.3 23.1781 2 23.5681 2H34.4281C34.8181 2 35.1181 2.3 35.1181 2.69V4.31C35.1181 4.7 35.4181 5 35.8081 5H37.4881C37.8781 5 38.1781 5.3 38.1781 5.69V11H35.1181V5.69C35.1181 5.3 34.8181 5 34.4281 5H23.5681C23.1781 5 22.8781 5.3 22.8781 5.69V11H19.8181ZM56.5341 22.31C56.5341 22.7 56.2341 23 55.8441 23H44.9841C44.5941 23 44.2941 22.7 44.2941 22.31V20.69C44.2941 20.3 43.9941 20 43.6041 20H41.9241C41.5341 20 41.2341 19.7 41.2341 19.31V5.69C41.2341 5.3 41.5341 5 41.9241 5H43.6041C43.9941 5 44.2941 4.7 44.2941 4.31V2.69C44.2941 2.3 44.5941 2 44.9841 2H55.8441C56.2341 2 56.5341 2.3 56.5341 2.69V4.31C56.5341 4.7 56.8341 5 57.2241 5H58.9041C59.2941 5 59.5941 5.3 59.5941 5.69V8H56.5341V5.69C56.5341 5.3 56.2341 5 55.8441 5H44.9841C44.5941 5 44.2941 5.3 44.2941 5.69V19.31C44.2941 19.7 44.5941 20 44.9841 20H55.8441C56.2341 20 56.5341 19.7 56.5341 19.31V14.69C56.5341 14.3 56.2341 14 55.8441 14H50.4141V11H55.8441C56.2341 11 56.5341 11.3 56.5341 11.69V13.31C56.5341 13.7 56.8341 14 57.2241 14H58.9041C59.2941 14 59.5941 14.3 59.5941 14.69V19.31C59.5941 19.7 59.2941 20 58.9041 20H57.2241C56.8341 20 56.5341 20.3 56.5341 20.69V22.31ZM62.6501 17.69C62.6501 17.3 62.9501 17 63.3401 17H65.0201C65.4101 17 65.7101 16.7 65.7101 16.31V14.69C65.7101 14.3 66.0101 14 66.4001 14H68.0801C68.4701 14 68.7701 13.7 68.7701 13.31V11.69C68.7701 11.3 68.4701 11 68.0801 11H66.4001C66.0101 11 65.7101 10.7 65.7101 10.31V8.69C65.7101 8.3 65.4101 8 65.0201 8H63.3401C62.9501 8 62.6501 7.7 62.6501 7.31V2H65.7101V7.31C65.7101 7.7 66.0101 8 66.4001 8H68.0801C68.4701 8 68.7701 8.3 68.7701 8.69V10.31C68.7701 10.7 69.0701 11 69.4601 11H74.2001C74.5901 11 74.8901 10.7 74.8901 10.31V8.69C74.8901 8.3 75.1901 8 75.5801 8H77.2601C77.6501 8 77.9501 7.7 77.9501 7.31V2H81.0101V7.31C81.0101 7.7 80.7101 8 80.3201 8H78.6401C78.2501 8 77.9501 8.3 77.9501 8.69V10.31C77.9501 10.7 77.6501 11 77.2601 11H75.5801C75.1901 11 74.8901 11.3 74.8901 11.69V13.31C74.8901 13.7 75.1901 14 75.5801 14H77.2601C77.6501 14 77.9501 14.3 77.9501 14.69V16.31C77.9501 16.7 78.2501 17 78.6401 17H80.3201C80.7101 17 81.0101 17.3 81.0101 17.69V23H77.9501V17.69C77.9501 17.3 77.6501 17 77.2601 17H75.5801C75.1901 17 74.8901 16.7 74.8901 16.31V14.69C74.8901 14.3 74.5901 14 74.2001 14H69.4601C69.0701 14 68.7701 14.3 68.7701 14.69V16.31C68.7701 16.7 68.4701 17 68.0801 17H66.4001C66.0101 17 65.7101 17.3 65.7101 17.69V23H62.6501V17.69ZM98.5852 23C98.3852 22.74 98.2252 22.17 98.1052 21.29H98.0452C97.6052 21.95 97.0452 22.46 96.3652 22.82C95.6852 23.18 94.7352 23.36 93.5152 23.36C91.8952 23.36 90.5952 22.95 89.6152 22.13C88.6352 21.31 88.1452 20.15 88.1452 18.65C88.1452 17.09 88.6852 15.95 89.7652 15.23C90.8452 14.49 92.3652 13.98 94.3252 13.7C95.7652 13.5 96.7452 13.3 97.2652 13.1C97.7852 12.88 98.0452 12.5 98.0452 11.96C98.0452 11.4 97.8252 10.96 97.3852 10.64C96.9452 10.3 96.3052 10.13 95.4652 10.13C93.6052 10.13 92.6152 10.85 92.4952 12.29H88.8652C88.9252 10.83 89.5152 9.62 90.6352 8.66C91.7552 7.7 93.3752 7.22 95.4952 7.22C99.8152 7.22 101.975 9.11 101.975 12.89V20.72C101.975 21.88 102.155 22.59 102.515 22.85V23H98.5852ZM94.5052 20.51C95.6252 20.51 96.5052 20.22 97.1452 19.64C97.8052 19.06 98.1352 18.37 98.1352 17.57V15.26C97.6952 15.52 96.7452 15.82 95.2852 16.16C94.1252 16.42 93.3052 16.72 92.8252 17.06C92.3452 17.38 92.1052 17.88 92.1052 18.56C92.1052 19.86 92.9052 20.51 94.5052 20.51ZM108.559 7.61V9.71H108.649C109.709 8.03 111.229 7.19 113.209 7.19C114.789 7.19 116.069 7.73 117.049 8.81C118.029 9.87 118.519 11.25 118.519 12.95V23H114.439V13.55C114.439 12.71 114.199 12.03 113.719 11.51C113.259 10.99 112.609 10.73 111.769 10.73C110.869 10.73 110.119 11.06 109.519 11.72C108.939 12.38 108.649 13.23 108.649 14.27V23H104.569V7.61H108.559ZM126.794 23.45C124.854 23.45 123.284 22.72 122.084 21.26C120.884 19.78 120.284 17.8 120.284 15.32C120.284 12.92 120.894 10.97 122.114 9.47C123.354 7.95 124.934 7.19 126.854 7.19C128.774 7.19 130.224 7.95 131.204 9.47H131.294V1.55H135.374V23H131.444V20.99H131.384C130.384 22.63 128.854 23.45 126.794 23.45ZM127.694 20.03C128.894 20.03 129.804 19.62 130.424 18.8C131.064 17.98 131.384 16.85 131.384 15.41C131.384 12.13 130.194 10.49 127.814 10.49C126.714 10.49 125.874 10.93 125.294 11.81C124.714 12.69 124.424 13.86 124.424 15.32C124.424 16.82 124.704 17.98 125.264 18.8C125.844 19.62 126.654 20.03 127.694 20.03ZM150.175 25.91V23.33C147.735 23.19 145.845 22.54 144.505 21.38C143.165 20.2 142.465 18.6 142.405 16.58H146.485C146.625 17.64 146.985 18.45 147.565 19.01C148.165 19.55 149.035 19.88 150.175 20V14.3C150.095 14.3 150.045 14.29 150.025 14.27C149.145 14.07 148.425 13.89 147.865 13.73C147.305 13.57 146.675 13.33 145.975 13.01C145.295 12.67 144.755 12.31 144.355 11.93C143.975 11.53 143.645 11.01 143.365 10.37C143.105 9.71 142.975 8.97 142.975 8.15C142.975 6.27 143.625 4.8 144.925 3.74C146.245 2.68 147.995 2.1 150.175 2V0.229998H151.975V2.03C154.015 2.21 155.625 2.85 156.805 3.95C158.005 5.03 158.675 6.51 158.815 8.39H154.825C154.625 6.75 153.675 5.76 151.975 5.42V10.61C152.015 10.63 152.075 10.64 152.155 10.64C153.255 10.86 154.185 11.1 154.945 11.36C155.705 11.62 156.445 11.98 157.165 12.44C157.885 12.9 158.425 13.5 158.785 14.24C159.145 14.98 159.325 15.86 159.325 16.88C159.325 18.84 158.645 20.39 157.285 21.53C155.945 22.65 154.175 23.26 151.975 23.36V25.91H150.175ZM155.125 17.39C155.125 16.67 154.865 16.12 154.345 15.74C153.845 15.36 153.055 15.03 151.975 14.75V20C152.915 19.9 153.675 19.64 154.255 19.22C154.835 18.78 155.125 18.17 155.125 17.39ZM147.955 6.11C147.415 6.51 147.145 7.04 147.145 7.7C147.145 8.36 147.375 8.88 147.835 9.26C148.315 9.62 149.095 9.94 150.175 10.22V5.33C149.235 5.43 148.495 5.69 147.955 6.11ZM164.763 11.69C164.763 11.3 165.063 11 165.453 11H176.313C176.703 11 177.003 11.3 177.003 11.69V13.31C177.003 13.7 177.303 14 177.693 14H179.373C179.763 14 180.063 14.3 180.063 14.69V23H177.003V14.69C177.003 14.3 176.703 14 176.313 14H165.453C165.063 14 164.763 14.3 164.763 14.69V23H161.703V14.69C161.703 14.3 162.003 14 162.393 14H164.073C164.463 14 164.763 13.7 164.763 13.31V11.69ZM161.703 11V5.69C161.703 5.3 162.003 5 162.393 5H164.073C164.463 5 164.763 4.7 164.763 4.31V2.69C164.763 2.3 165.063 2 165.453 2H176.313C176.703 2 177.003 2.3 177.003 2.69V4.31C177.003 4.7 177.303 5 177.693 5H179.373C179.763 5 180.063 5.3 180.063 5.69V11H177.003V5.69C177.003 5.3 176.703 5 176.313 5H165.453C165.063 5 164.763 5.3 164.763 5.69V11H161.703ZM183.119 2H186.179V19.31C186.179 19.7 186.479 20 186.869 20H197.729C198.119 20 198.419 19.7 198.419 19.31V17H201.479V19.31C201.479 19.7 201.179 20 200.789 20H199.109C198.719 20 198.419 20.3 198.419 20.69V22.31C198.419 22.7 198.119 23 197.729 23H186.869C186.479 23 186.179 22.7 186.179 22.31V20.69C186.179 20.3 185.879 20 185.489 20H183.809C183.419 20 183.119 19.7 183.119 19.31V2ZM219.835 13.31C219.835 13.7 219.535 14 219.145 14H210.625V11H219.145C219.535 11 219.835 10.7 219.835 10.31V5.69C219.835 5.3 219.535 5 219.145 5H208.285C207.895 5 207.595 5.3 207.595 5.69V23H204.535V5.69C204.535 5.3 204.835 5 205.225 5H206.905C207.295 5 207.595 4.7 207.595 4.31V2.69C207.595 2.3 207.895 2 208.285 2H219.145C219.535 2 219.835 2.3 219.835 2.69V4.31C219.835 4.7 220.135 5 220.525 5H222.205C222.595 5 222.895 5.3 222.895 5.69V10.31C222.895 10.7 222.595 11 222.205 11H220.525C220.135 11 219.835 11.3 219.835 11.69V13.31ZM230 5.21V1.55H247.25V5.21H240.8V23H236.45V5.21H230ZM258.743 21.14C257.243 22.68 255.313 23.45 252.953 23.45C250.593 23.45 248.663 22.68 247.163 21.14C245.663 19.58 244.913 17.64 244.913 15.32C244.913 13 245.663 11.07 247.163 9.53C248.663 7.97 250.593 7.19 252.953 7.19C255.313 7.19 257.243 7.97 258.743 9.53C260.243 11.07 260.993 13 260.993 15.32C260.993 17.64 260.243 19.58 258.743 21.14ZM252.953 20.33C254.173 20.33 255.123 19.88 255.803 18.98C256.503 18.06 256.853 16.84 256.853 15.32C256.853 13.8 256.503 12.58 255.803 11.66C255.123 10.74 254.173 10.28 252.953 10.28C251.713 10.28 250.753 10.74 250.073 11.66C249.393 12.56 249.053 13.78 249.053 15.32C249.053 16.84 249.393 18.06 250.073 18.98C250.753 19.88 251.713 20.33 252.953 20.33ZM273.029 23L268.709 15.98L266.939 17.81V23H262.889V1.55H266.939V13.43L272.399 7.61H277.289L271.619 13.46L277.979 23H273.029ZM285.442 23.45C282.962 23.45 281.012 22.69 279.592 21.17C278.172 19.63 277.462 17.67 277.462 15.29C277.462 12.99 278.172 11.07 279.592 9.53C281.012 7.97 282.832 7.19 285.052 7.19C287.472 7.19 289.342 8.03 290.662 9.71C291.982 11.39 292.642 13.64 292.642 16.46H281.482C281.642 17.68 282.052 18.63 282.712 19.31C283.372 19.97 284.272 20.3 285.412 20.3C286.912 20.3 287.902 19.67 288.382 18.41H292.402C292.102 19.85 291.342 21.05 290.122 22.01C288.902 22.97 287.342 23.45 285.442 23.45ZM285.112 10.34C283.132 10.34 281.942 11.44 281.542 13.64H288.382C288.322 12.66 287.992 11.87 287.392 11.27C286.792 10.65 286.032 10.34 285.112 10.34ZM297.8 8.69C297.8 8.3 298.1 8 298.49 8H306.29C306.68 8 306.98 8.3 306.98 8.69V10.31C306.98 10.7 307.28 11 307.67 11H309.35C309.74 11 310.04 11.3 310.04 11.69V23H306.98V11.69C306.98 11.3 306.68 11 306.29 11H298.49C298.1 11 297.8 11.3 297.8 11.69V23H294.74V11.69C294.74 11.3 295.04 11 295.43 11H297.11C297.5 11 297.8 10.7 297.8 10.31V8.69ZM319.139 23.45C316.939 23.45 315.219 22.97 313.979 22.01C312.739 21.03 312.059 19.7 311.939 18.02H315.719C315.979 19.72 317.099 20.57 319.079 20.57C319.979 20.57 320.669 20.41 321.149 20.09C321.649 19.77 321.899 19.34 321.899 18.8C321.899 18.6 321.859 18.42 321.779 18.26C321.719 18.1 321.599 17.96 321.419 17.84C321.259 17.7 321.109 17.59 320.969 17.51C320.849 17.43 320.629 17.35 320.309 17.27C319.989 17.19 319.739 17.13 319.559 17.09C319.399 17.05 319.109 17 318.689 16.94C318.289 16.86 318.009 16.8 317.849 16.76C317.009 16.6 316.319 16.44 315.779 16.28C315.259 16.1 314.709 15.85 314.129 15.53C313.549 15.19 313.109 14.74 312.809 14.18C312.529 13.6 312.389 12.91 312.389 12.11C312.389 10.51 312.969 9.29 314.129 8.45C315.309 7.61 316.819 7.19 318.659 7.19C320.639 7.19 322.189 7.65 323.309 8.57C324.449 9.47 325.099 10.71 325.259 12.29H321.569C321.409 10.79 320.419 10.04 318.599 10.04C317.779 10.04 317.129 10.19 316.649 10.49C316.189 10.79 315.959 11.21 315.959 11.75C315.959 11.93 315.989 12.1 316.049 12.26C316.129 12.4 316.249 12.53 316.409 12.65C316.589 12.75 316.759 12.84 316.919 12.92C317.079 12.98 317.309 13.05 317.609 13.13C317.909 13.19 318.169 13.25 318.389 13.31C318.609 13.35 318.909 13.41 319.289 13.49C319.669 13.55 319.969 13.6 320.189 13.64C320.829 13.78 321.349 13.91 321.749 14.03C322.169 14.13 322.649 14.31 323.189 14.57C323.729 14.81 324.149 15.09 324.449 15.41C324.769 15.71 325.039 16.13 325.259 16.67C325.499 17.19 325.619 17.8 325.619 18.5C325.619 20.02 325.019 21.23 323.819 22.13C322.639 23.01 321.079 23.45 319.139 23.45Z" fill="white"/>
</svg>
