<svg width="698" height="50" viewBox="0 0 698 50" fill="none" xmlns="http://www.w3.org/2000/svg">
<path d="M7.904 22.364C7.904 21.48 8.584 20.8 9.468 20.8H34.084C34.968 20.8 35.648 21.48 35.648 22.364V26.036C35.648 26.92 36.328 27.6 37.212 27.6H41.02C41.904 27.6 42.584 28.28 42.584 29.164V48H35.648V29.164C35.648 28.28 34.968 27.6 34.084 27.6H9.468C8.584 27.6 7.904 28.28 7.904 29.164V48H0.968V29.164C0.968 28.28 1.648 27.6 2.532 27.6H6.34C7.224 27.6 7.904 26.92 7.904 26.036V22.364ZM0.968 20.8V8.764C0.968 7.88 1.648 7.2 2.532 7.2H6.34C7.224 7.2 7.904 6.52 7.904 5.636V1.964C7.904 1.08 8.584 0.399997 9.468 0.399997H34.084C34.968 0.399997 35.648 1.08 35.648 1.964V5.636C35.648 6.52 36.328 7.2 37.212 7.2H41.02C41.904 7.2 42.584 7.88 42.584 8.764V20.8H35.648V8.764C35.648 7.88 34.968 7.2 34.084 7.2H9.468C8.584 7.2 7.904 7.88 7.904 8.764V20.8H0.968ZM49.511 0.399997H56.447V39.636C56.447 40.52 57.127 41.2 58.011 41.2H82.627C83.511 41.2 84.191 40.52 84.191 39.636V34.4H91.127V39.636C91.127 40.52 90.447 41.2 89.563 41.2H85.755C84.871 41.2 84.191 41.88 84.191 42.764V46.436C84.191 47.32 83.511 48 82.627 48H58.011C57.127 48 56.447 47.32 56.447 46.436V42.764C56.447 41.88 55.767 41.2 54.883 41.2H51.075C50.191 41.2 49.511 40.52 49.511 39.636V0.399997ZM132.734 26.036C132.734 26.92 132.054 27.6 131.17 27.6H111.858V20.8H131.17C132.054 20.8 132.734 20.12 132.734 19.236V8.764C132.734 7.88 132.054 7.2 131.17 7.2H106.554C105.67 7.2 104.99 7.88 104.99 8.764V48H98.0539V8.764C98.0539 7.88 98.7339 7.2 99.6179 7.2H103.426C104.31 7.2 104.99 6.52 104.99 5.636V1.964C104.99 1.08 105.67 0.399997 106.554 0.399997H131.17C132.054 0.399997 132.734 1.08 132.734 1.964V5.636C132.734 6.52 133.414 7.2 134.298 7.2H138.106C138.99 7.2 139.67 7.88 139.67 8.764V19.236C139.67 20.12 138.99 20.8 138.106 20.8H134.298C133.414 20.8 132.734 21.48 132.734 22.364V26.036ZM205.582 26.036C205.582 26.92 204.902 27.6 204.018 27.6H184.706V20.8H204.018C204.902 20.8 205.582 20.12 205.582 19.236V8.764C205.582 7.88 204.902 7.2 204.018 7.2H179.402C178.518 7.2 177.838 7.88 177.838 8.764V48H170.902V8.764C170.902 7.88 171.582 7.2 172.466 7.2H176.274C177.158 7.2 177.838 6.52 177.838 5.636V1.964C177.838 1.08 178.518 0.399997 179.402 0.399997H204.018C204.902 0.399997 205.582 1.08 205.582 1.964V5.636C205.582 6.52 206.262 7.2 207.146 7.2H210.954C211.838 7.2 212.518 7.88 212.518 8.764V19.236C212.518 20.12 211.838 20.8 210.954 20.8H207.146C206.262 20.8 205.582 21.48 205.582 22.364V26.036ZM236.649 49.088C233.838 49.088 231.277 48.5893 228.965 47.592C226.698 46.5947 224.749 45.2347 223.117 43.512C221.53 41.7893 220.283 39.772 219.377 37.46C218.515 35.1027 218.085 32.5867 218.085 29.912C218.085 27.192 218.515 24.676 219.377 22.364C220.283 20.0067 221.53 17.9667 223.117 16.244C224.749 14.5213 226.698 13.184 228.965 12.232C231.277 11.2347 233.838 10.736 236.649 10.736C239.459 10.736 241.998 11.2347 244.265 12.232C246.531 13.184 248.458 14.5213 250.045 16.244C251.677 17.9667 252.923 20.0067 253.785 22.364C254.646 24.676 255.077 27.192 255.077 29.912C255.077 32.5867 254.646 35.1027 253.785 37.46C252.923 39.772 251.677 41.7893 250.045 43.512C248.458 45.2347 246.531 46.5947 244.265 47.592C241.998 48.5893 239.459 49.088 236.649 49.088ZM236.581 42.56C238.167 42.56 239.55 42.2427 240.729 41.608C241.953 40.9733 242.973 40.0893 243.789 38.956C244.605 37.8227 245.217 36.4853 245.625 34.944C246.078 33.4027 246.305 31.7253 246.305 29.912C246.305 28.0987 246.078 26.4213 245.625 24.88C245.217 23.2933 244.605 21.9333 243.789 20.8C242.973 19.6213 241.953 18.7147 240.729 18.08C239.55 17.4453 238.167 17.128 236.581 17.128C234.994 17.128 233.589 17.4453 232.365 18.08C231.141 18.7147 230.121 19.6213 229.305 20.8C228.489 21.9333 227.877 23.2933 227.469 24.88C227.061 26.4213 226.857 28.0987 226.857 29.912C226.857 31.7253 227.061 33.4027 227.469 34.944C227.877 36.4853 228.489 37.8227 229.305 38.956C230.121 40.0893 231.141 40.9733 232.365 41.608C233.589 42.2427 234.994 42.56 236.581 42.56ZM277.887 49.088C275.076 49.088 272.515 48.5893 270.203 47.592C267.936 46.5947 265.987 45.2347 264.355 43.512C262.768 41.7893 261.522 39.772 260.615 37.46C259.754 35.1027 259.323 32.5867 259.323 29.912C259.323 27.192 259.754 24.676 260.615 22.364C261.522 20.0067 262.768 17.9667 264.355 16.244C265.987 14.5213 267.936 13.184 270.203 12.232C272.515 11.2347 275.076 10.736 277.887 10.736C280.698 10.736 283.236 11.2347 285.503 12.232C287.77 13.184 289.696 14.5213 291.283 16.244C292.915 17.9667 294.162 20.0067 295.023 22.364C295.884 24.676 296.315 27.192 296.315 29.912C296.315 32.5867 295.884 35.1027 295.023 37.46C294.162 39.772 292.915 41.7893 291.283 43.512C289.696 45.2347 287.77 46.5947 285.503 47.592C283.236 48.5893 280.698 49.088 277.887 49.088ZM277.819 42.56C279.406 42.56 280.788 42.2427 281.967 41.608C283.191 40.9733 284.211 40.0893 285.027 38.956C285.843 37.8227 286.455 36.4853 286.863 34.944C287.316 33.4027 287.543 31.7253 287.543 29.912C287.543 28.0987 287.316 26.4213 286.863 24.88C286.455 23.2933 285.843 21.9333 285.027 20.8C284.211 19.6213 283.191 18.7147 281.967 18.08C280.788 17.4453 279.406 17.128 277.819 17.128C276.232 17.128 274.827 17.4453 273.603 18.08C272.379 18.7147 271.359 19.6213 270.543 20.8C269.727 21.9333 269.115 23.2933 268.707 24.88C268.299 26.4213 268.095 28.0987 268.095 29.912C268.095 31.7253 268.299 33.4027 268.707 34.944C269.115 36.4853 269.727 37.8227 270.543 38.956C271.359 40.0893 272.379 40.9733 273.603 41.608C274.827 42.2427 276.232 42.56 277.819 42.56ZM315.793 46.436C315.793 47.32 315.113 48 314.229 48H301.921V41.2H314.229C315.113 41.2 315.793 40.52 315.793 39.636V8.764C315.793 7.88 315.113 7.2 314.229 7.2H301.921V0.399997H314.229C315.113 0.399997 315.793 1.08 315.793 1.964V5.636C315.793 6.52 316.473 7.2 317.357 7.2H321.165C322.049 7.2 322.729 7.88 322.729 8.764V39.636C322.729 40.52 323.409 41.2 324.293 41.2H336.601V48H324.293C323.409 48 322.729 47.32 322.729 46.436V42.764C322.729 41.88 322.049 41.2 321.165 41.2H317.357C316.473 41.2 315.793 41.88 315.793 42.764V46.436ZM407.915 7.2C408.799 7.2 409.479 7.88 409.479 8.764V14H402.543V8.764C402.543 7.88 401.863 7.2 400.979 7.2H376.363C375.479 7.2 374.799 7.88 374.799 8.764V19.236C374.799 20.12 375.479 20.8 376.363 20.8H400.979C401.863 20.8 402.543 21.48 402.543 22.364V26.036C402.543 26.92 403.223 27.6 404.107 27.6H407.915C408.799 27.6 409.479 28.28 409.479 29.164V39.636C409.479 40.52 408.799 41.2 407.915 41.2H404.107C403.223 41.2 402.543 41.88 402.543 42.764V46.436C402.543 47.32 401.863 48 400.979 48H376.363C375.479 48 374.799 47.32 374.799 46.436V42.764C374.799 41.88 374.119 41.2 373.235 41.2H369.427C368.543 41.2 367.863 40.52 367.863 39.636V34.4H374.799V39.636C374.799 40.52 375.479 41.2 376.363 41.2H400.979C401.863 41.2 402.543 40.52 402.543 39.636V29.164C402.543 28.28 401.863 27.6 400.979 27.6H376.363C375.479 27.6 374.799 26.92 374.799 26.036V22.364C374.799 21.48 374.119 20.8 373.235 20.8H369.427C368.543 20.8 367.863 20.12 367.863 19.236V8.764C367.863 7.88 368.543 7.2 369.427 7.2H373.235C374.119 7.2 374.799 6.52 374.799 5.636V1.964C374.799 1.08 375.479 0.399997 376.363 0.399997H400.979C401.863 0.399997 402.543 1.08 402.543 1.964V5.636C402.543 6.52 403.223 7.2 404.107 7.2H407.915ZM424.906 48C424.022 48 423.342 47.32 423.342 46.436V42.764C423.342 41.88 422.662 41.2 421.778 41.2H417.97C417.086 41.2 416.406 40.52 416.406 39.636V22.364C416.406 21.48 417.086 20.8 417.97 20.8H421.778C422.662 20.8 423.342 20.12 423.342 19.236V15.564C423.342 14.68 422.662 14 421.778 14H417.97C417.086 14 416.406 13.32 416.406 12.436V0.399997H423.342V12.436C423.342 13.32 424.022 14 424.906 14H440.682V20.8H424.906C424.022 20.8 423.342 21.48 423.342 22.364V39.636C423.342 40.52 424.022 41.2 424.906 41.2H447.618V48H424.906ZM463.363 18.216H463.567C465.879 13.5013 469.347 11.144 473.971 11.144C475.013 11.144 475.784 11.2573 476.283 11.484V19.236H476.011C475.285 19.0547 474.492 18.964 473.631 18.964C470.775 18.9187 468.395 19.848 466.491 21.752C464.587 23.6107 463.635 26.2853 463.635 29.776V48H454.999V11.688H463.363V18.216ZM505.352 48V42.832H505.216C503.901 44.8267 502.382 46.3453 500.66 47.388C498.982 48.4307 496.852 48.952 494.268 48.952C490.278 48.952 487.173 47.8187 484.952 45.552C482.776 43.24 481.688 40.112 481.688 36.168V11.688H490.324V34.944C490.324 37.12 490.913 38.7973 492.092 39.976C493.27 41.1547 494.948 41.744 497.124 41.744C499.572 41.744 501.521 40.928 502.972 39.296C504.422 37.6187 505.148 35.5107 505.148 32.972V11.688H513.716V48H505.352ZM538.196 49.088C535.385 49.088 532.847 48.5893 530.58 47.592C528.313 46.5947 526.364 45.2347 524.732 43.512C523.145 41.7893 521.921 39.772 521.06 37.46C520.199 35.1027 519.768 32.5867 519.768 29.912C519.768 27.192 520.199 24.676 521.06 22.364C521.921 20.0067 523.145 17.9667 524.732 16.244C526.319 14.5213 528.223 13.184 530.444 12.232C532.711 11.2347 535.249 10.736 538.06 10.736C540.372 10.736 542.457 11.0533 544.316 11.688C546.22 12.3227 547.852 13.2067 549.212 14.34C550.617 15.4733 551.751 16.856 552.612 18.488C553.519 20.0747 554.131 21.8427 554.448 23.792H546.016C545.608 21.7973 544.724 20.2333 543.364 19.1C542.049 17.9213 540.304 17.332 538.128 17.332C536.541 17.332 535.136 17.6493 533.912 18.284C532.733 18.8733 531.736 19.7347 530.92 20.868C530.149 22.0013 529.56 23.3387 529.152 24.88C528.744 26.4213 528.54 28.0987 528.54 29.912C528.54 31.68 528.744 33.3347 529.152 34.876C529.56 36.372 530.149 37.6867 530.92 38.82C531.736 39.908 532.733 40.7693 533.912 41.404C535.136 42.0387 536.541 42.356 538.128 42.356C540.531 42.356 542.412 41.6987 543.772 40.384C545.177 39.0693 545.993 37.2107 546.22 34.808H554.652C554.516 36.9387 554.04 38.888 553.224 40.656C552.408 42.3787 551.275 43.8747 549.824 45.144C548.419 46.368 546.741 47.32 544.792 48C542.843 48.7253 540.644 49.088 538.196 49.088ZM568.343 48C567.459 48 566.779 47.32 566.779 46.436V42.764C566.779 41.88 566.099 41.2 565.215 41.2H561.407C560.523 41.2 559.843 40.52 559.843 39.636V22.364C559.843 21.48 560.523 20.8 561.407 20.8H565.215C566.099 20.8 566.779 20.12 566.779 19.236V15.564C566.779 14.68 566.099 14 565.215 14H561.407C560.523 14 559.843 13.32 559.843 12.436V0.399997H566.779V12.436C566.779 13.32 567.459 14 568.343 14H584.119V20.8H568.343C567.459 20.8 566.779 21.48 566.779 22.364V39.636C566.779 40.52 567.459 41.2 568.343 41.2H591.055V48H568.343ZM621.828 48V42.832H621.692C620.378 44.8267 618.859 46.3453 617.136 47.388C615.459 48.4307 613.328 48.952 610.744 48.952C606.755 48.952 603.65 47.8187 601.428 45.552C599.252 43.24 598.164 40.112 598.164 36.168V11.688H606.8V34.944C606.8 37.12 607.39 38.7973 608.568 39.976C609.747 41.1547 611.424 41.744 613.6 41.744C616.048 41.744 617.998 40.928 619.448 39.296C620.899 37.6187 621.624 35.5107 621.624 32.972V11.688H630.192V48H621.828ZM646.445 18.216H646.649C648.961 13.5013 652.429 11.144 657.053 11.144C658.095 11.144 658.866 11.2573 659.365 11.484V19.236H659.093C658.367 19.0547 657.574 18.964 656.713 18.964C653.857 18.9187 651.477 19.848 649.573 21.752C647.669 23.6107 646.717 26.2853 646.717 29.776V48H638.081V11.688H646.445V18.216ZM680.706 49.088C677.804 49.088 675.198 48.5893 672.886 47.592C670.619 46.5947 668.692 45.2347 667.106 43.512C665.519 41.7893 664.295 39.772 663.434 37.46C662.618 35.1027 662.21 32.5867 662.21 29.912C662.21 27.192 662.64 24.676 663.502 22.364C664.363 20.0067 665.587 17.9667 667.174 16.244C668.76 14.5213 670.664 13.184 672.886 12.232C675.107 11.2347 677.555 10.736 680.23 10.736C682.904 10.736 685.262 11.1893 687.302 12.096C689.387 12.9573 691.2 14.204 692.742 15.836C694.51 17.74 695.824 20.0747 696.686 22.84C697.547 25.56 697.955 28.62 697.91 32.02H670.778C671.095 35.148 672.07 37.6867 673.702 39.636C675.379 41.54 677.736 42.492 680.774 42.492C682.859 42.492 684.559 42.084 685.874 41.268C687.234 40.4067 688.208 39.228 688.798 37.732H697.23C696.776 39.364 696.074 40.8827 695.122 42.288C694.215 43.648 693.059 44.8493 691.654 45.892C690.248 46.8893 688.616 47.66 686.758 48.204C684.944 48.7933 682.927 49.088 680.706 49.088ZM680.23 16.992C677.374 16.992 675.198 17.876 673.702 19.644C672.206 21.412 671.276 23.724 670.914 26.58H689.002C688.82 23.588 687.959 21.2533 686.418 19.576C684.922 17.8533 682.859 16.992 680.23 16.992Z" fill="white"/>
</svg>
