<svg width="654" height="81" viewBox="0 0 654 81" fill="none" xmlns="http://www.w3.org/2000/svg">
<path d="M11.83 68H54.18C55.61 68 56.71 66.9 56.71 65.47V15.53C56.71 14.1 55.61 13 54.18 13H11.83V68ZM0.61 76.47V4.52999C0.61 3.09999 1.71 1.99999 3.14 1.99999H54.18C55.61 1.99999 56.71 3.09999 56.71 4.52999V10.47C56.71 11.9 57.81 13 59.24 13H65.4C66.83 13 67.93 14.1 67.93 15.53V65.47C67.93 66.9 66.83 68 65.4 68H59.24C57.81 68 56.71 69.1 56.71 70.53V76.47C56.71 77.9 55.61 79 54.18 79H3.14C1.71 79 0.61 77.9 0.61 76.47ZM103.885 80.54C95.4521 80.54 88.7421 77.7167 83.7554 72.07C78.8421 66.35 76.3854 59.2 76.3854 50.62C76.3854 42.1867 78.8787 35.11 83.8654 29.39C88.9254 23.5967 95.4154 20.7 103.335 20.7C111.695 20.7 118.149 23.6333 122.695 29.5C127.242 35.2933 129.515 43.03 129.515 52.71H85.5154C85.8821 58.7233 87.6421 63.6367 90.7954 67.45C94.0221 71.19 98.3854 73.06 103.885 73.06C112.392 73.06 117.635 69.1733 119.615 61.4H128.305C126.985 67.4867 124.199 72.2167 119.945 75.59C115.692 78.89 110.339 80.54 103.885 80.54ZM115.215 32.58C112.355 29.3533 108.395 27.74 103.335 27.74C98.2754 27.74 94.2421 29.4267 91.2354 32.8C88.3021 36.1733 86.4687 40.5733 85.7354 46H119.945C119.652 40.28 118.075 35.8067 115.215 32.58ZM162.538 80.54C154.251 80.54 147.578 77.68 142.518 71.96C137.531 66.24 135.038 59.1267 135.038 50.62C135.038 42.1133 137.531 35 142.518 29.28C147.578 23.56 154.251 20.7 162.538 20.7C169.211 20.7 174.674 22.4967 178.928 26.09C183.181 29.61 185.821 34.4133 186.848 40.5H177.828C177.168 36.6133 175.518 33.57 172.878 31.37C170.238 29.17 166.791 28.07 162.538 28.07C156.671 28.07 152.124 30.1967 148.898 34.45C145.744 38.7033 144.168 44.0933 144.168 50.62C144.168 57.1467 145.744 62.5367 148.898 66.79C152.124 70.97 156.671 73.06 162.538 73.06C167.084 73.06 170.714 71.85 173.428 69.43C176.141 66.9367 177.681 63.4533 178.048 58.98H186.848C186.261 65.8 183.841 71.1167 179.588 74.93C175.334 78.67 169.651 80.54 162.538 80.54ZM219.579 80.54C211.145 80.54 204.435 77.7167 199.449 72.07C194.535 66.35 192.079 59.2 192.079 50.62C192.079 42.1867 194.572 35.11 199.559 29.39C204.619 23.5967 211.109 20.7 219.029 20.7C227.389 20.7 233.842 23.6333 238.389 29.5C242.935 35.2933 245.209 43.03 245.209 52.71H201.209C201.575 58.7233 203.335 63.6367 206.489 67.45C209.715 71.19 214.079 73.06 219.579 73.06C228.085 73.06 233.329 69.1733 235.309 61.4H243.999C242.679 67.4867 239.892 72.2167 235.639 75.59C231.385 78.89 226.032 80.54 219.579 80.54ZM230.909 32.58C228.049 29.3533 224.089 27.74 219.029 27.74C213.969 27.74 209.935 29.4267 206.929 32.8C203.995 36.1733 202.162 40.5733 201.429 46H235.639C235.345 40.28 233.769 35.8067 230.909 32.58ZM264.701 26.53C264.701 25.1 265.801 24 267.231 24H295.831C297.261 24 298.361 25.1 298.361 26.53V32.47C298.361 33.9 299.461 35 300.891 35H307.051C308.481 35 309.581 36.1 309.581 37.53V79H298.361V37.53C298.361 36.1 297.261 35 295.831 35H267.231C265.801 35 264.701 36.1 264.701 37.53V79H253.481V37.53C253.481 36.1 254.581 35 256.011 35H262.171C263.601 35 264.701 33.9 264.701 32.47V26.53ZM317.645 29.39V22.13H325.895V4.2H334.805V22.13H345.805V29.39H334.805V66.35C334.805 69.87 336.711 71.63 340.525 71.63C342.138 71.63 343.715 71.3733 345.255 70.86H345.585V78.56C343.165 79.0733 340.781 79.33 338.435 79.33C330.075 79.33 325.895 75.6633 325.895 68.33V29.39H317.645ZM363.915 22.13V31.59H364.135C365.968 28.5833 368.352 26.1633 371.285 24.33C374.218 22.4233 377.482 21.47 381.075 21.47C382.395 21.47 383.605 21.69 384.705 22.13V30.71H384.375C383.275 30.3433 381.955 30.16 380.415 30.16C375.868 30.16 371.982 31.7733 368.755 35C365.528 38.1533 363.915 42.2967 363.915 47.43V79H355.005V22.13H363.915ZM435.222 79.55C429.575 79.55 426.312 76.7267 425.432 71.08H425.322C420.628 77.0933 414.322 80.1 406.402 80.1C400.755 80.1 396.135 78.7433 392.542 76.03C388.948 73.3167 387.152 69.3933 387.152 64.26C387.152 61.62 387.555 59.3467 388.362 57.44C389.242 55.46 390.342 53.8833 391.662 52.71C392.982 51.4633 394.778 50.4 397.052 49.52C399.398 48.5667 401.635 47.87 403.762 47.43C405.888 46.9167 408.602 46.4033 411.902 45.89C414.028 45.5967 415.532 45.3767 416.412 45.23C417.365 45.01 418.575 44.7167 420.042 44.35C421.508 43.91 422.535 43.4333 423.122 42.92C423.708 42.4067 424.258 41.71 424.772 40.83C425.285 39.95 425.542 38.9233 425.542 37.75C425.542 34.5233 424.405 32.0667 422.132 30.38C419.932 28.62 416.815 27.74 412.782 27.74C403.615 27.74 398.885 31.92 398.592 40.28H390.012C390.158 34.4867 392.138 29.83 395.952 26.31C399.838 22.79 405.412 21.03 412.672 21.03C426.678 21.03 433.682 27.0433 433.682 39.07V66.13C433.682 68.6233 434.085 70.3833 434.892 71.41C435.772 72.4367 437.385 72.6933 439.732 72.18H440.062V78.67C438.595 79.2567 436.982 79.55 435.222 79.55ZM408.382 73.28C413.882 73.28 418.135 71.7033 421.142 68.55C424.148 65.3233 425.652 61.8033 425.652 57.99V48.31C422.938 49.9967 418.612 51.39 412.672 52.49C410.472 52.93 408.748 53.2967 407.502 53.59C406.255 53.81 404.825 54.25 403.212 54.91C401.598 55.4967 400.388 56.1567 399.582 56.89C398.775 57.6233 398.078 58.6133 397.492 59.86C396.905 61.0333 396.612 62.4267 396.612 64.04C396.612 70.2 400.535 73.28 408.382 73.28ZM446.966 79V0.349996H455.876V79H446.966ZM468.335 79V22.13H477.245V79H468.335ZM468.335 11.35V0.349996H477.245V11.35H468.335ZM487.08 79V71.96L518.76 30.27V29.94H488.95V22.13H531.19V27.41L498.52 70.53V70.86H532.4V79H487.08ZM563.329 80.54C554.895 80.54 548.185 77.7167 543.199 72.07C538.285 66.35 535.829 59.2 535.829 50.62C535.829 42.1867 538.322 35.11 543.309 29.39C548.369 23.5967 554.859 20.7 562.779 20.7C571.139 20.7 577.592 23.6333 582.139 29.5C586.685 35.2933 588.959 43.03 588.959 52.71H544.959C545.325 58.7233 547.085 63.6367 550.239 67.45C553.465 71.19 557.829 73.06 563.329 73.06C571.835 73.06 577.079 69.1733 579.059 61.4H587.749C586.429 67.4867 583.642 72.2167 579.389 75.59C575.135 78.89 569.782 80.54 563.329 80.54ZM574.659 32.58C571.799 29.3533 567.839 27.74 562.779 27.74C557.719 27.74 553.685 29.4267 550.679 32.8C547.745 36.1733 545.912 40.5733 545.179 46H579.389C579.095 40.28 577.519 35.8067 574.659 32.58ZM653.331 65.47C653.331 66.9 652.231 68 650.801 68H644.641C643.211 68 642.111 69.1 642.111 70.53V76.47C642.111 77.9 641.011 79 639.581 79H610.981C609.551 79 608.451 77.9 608.451 76.47V70.53C608.451 69.1 607.351 68 605.921 68H599.761C598.331 68 597.231 66.9 597.231 65.47V37.53C597.231 36.1 598.331 35 599.761 35H605.921C607.351 35 608.451 33.9 608.451 32.47V26.53C608.451 25.1 609.551 24 610.981 24H636.501V35H610.981C609.551 35 608.451 36.1 608.451 37.53V65.47C608.451 66.9 609.551 68 610.981 68H639.581C641.011 68 642.111 66.9 642.111 65.47V1.99999H653.331V65.47Z" fill="white"/>
</svg>
