<svg width="364" height="51" viewBox="0 0 364 51" fill="none" xmlns="http://www.w3.org/2000/svg">
<mask id="path-1-outside-1_1_2602" maskUnits="userSpaceOnUse" x="-1" y="-1" width="366" height="53" fill="black">
<rect fill="white" x="-1" y="-1" width="366" height="53"/>
<path d="M7.404 2.964C7.404 2.08 8.084 1.4 8.968 1.4H33.584C34.468 1.4 35.148 2.08 35.148 2.964V6.636C35.148 7.52 35.828 8.2 36.712 8.2H40.52C41.404 8.2 42.084 8.88 42.084 9.764V15H35.148V9.764C35.148 8.88 34.468 8.2 33.584 8.2H8.968C8.084 8.2 7.404 8.88 7.404 9.764V20.236C7.404 21.12 8.084 21.8 8.968 21.8H28.212V28.6H8.968C8.084 28.6 7.404 29.28 7.404 30.164V49H0.468V30.164C0.468 29.28 1.148 28.6 2.032 28.6H5.84C6.724 28.6 7.404 27.92 7.404 27.036V23.364C7.404 22.48 6.724 21.8 5.84 21.8H2.032C1.148 21.8 0.468 21.12 0.468 20.236V9.764C0.468 8.88 1.148 8.2 2.032 8.2H5.84C6.724 8.2 7.404 7.52 7.404 6.636V2.964ZM70.499 49C70.0456 48.4107 69.683 47.1187 69.411 45.124H69.275C68.2776 46.62 67.0083 47.776 65.467 48.592C63.9256 49.408 61.7723 49.816 59.007 49.816C55.335 49.816 52.3883 48.8867 50.167 47.028C47.9456 45.1693 46.835 42.54 46.835 39.14C46.835 35.604 48.059 33.02 50.507 31.388C52.955 29.7107 56.4003 28.5547 60.843 27.92C64.107 27.4667 66.3283 27.0133 67.507 26.56C68.6856 26.0613 69.275 25.2 69.275 23.976C69.275 22.7067 68.7763 21.7093 67.779 20.984C66.7816 20.2133 65.331 19.828 63.427 19.828C59.211 19.828 56.967 21.46 56.695 24.724H48.467C48.603 21.4147 49.9403 18.672 52.479 16.496C55.0176 14.32 58.6896 13.232 63.495 13.232C73.287 13.232 78.183 17.516 78.183 26.084V43.832C78.183 46.4613 78.591 48.0707 79.407 48.66V49H70.499ZM61.251 43.356C63.7896 43.356 65.7843 42.6987 67.235 41.384C68.731 40.0693 69.479 38.5053 69.479 36.692V31.456C68.4816 32.0453 66.3283 32.7253 63.019 33.496C60.3896 34.0853 58.531 34.7653 57.443 35.536C56.355 36.2613 55.811 37.3947 55.811 38.936C55.811 41.8827 57.6243 43.356 61.251 43.356ZM84.0623 49V14.116H93.3103V49H84.0623ZM84.0623 8.676V0.379998H93.3103V8.676H84.0623ZM108.177 14.116V19.692H108.381C109.469 17.652 110.671 16.156 111.985 15.204C113.3 14.2067 114.955 13.708 116.949 13.708C117.901 13.708 118.627 13.7987 119.125 13.98V22.072H118.921C115.793 21.7547 113.277 22.4347 111.373 24.112C109.469 25.7893 108.517 28.4187 108.517 32V49H99.2693V14.116H108.177ZM135.007 1.4H141.943V40.636C141.943 41.52 142.623 42.2 143.507 42.2H168.123C169.007 42.2 169.687 41.52 169.687 40.636V35.4H176.623V40.636C176.623 41.52 175.943 42.2 175.059 42.2H171.251C170.367 42.2 169.687 42.88 169.687 43.764V47.436C169.687 48.32 169.007 49 168.123 49H143.507C142.623 49 141.943 48.32 141.943 47.436V43.764C141.943 42.88 141.263 42.2 140.379 42.2H136.571C135.687 42.2 135.007 41.52 135.007 40.636V1.4ZM205.038 49C204.585 48.4107 204.222 47.1187 203.95 45.124H203.814C202.817 46.62 201.547 47.776 200.006 48.592C198.465 49.408 196.311 49.816 193.546 49.816C189.874 49.816 186.927 48.8867 184.706 47.028C182.485 45.1693 181.374 42.54 181.374 39.14C181.374 35.604 182.598 33.02 185.046 31.388C187.494 29.7107 190.939 28.5547 195.382 27.92C198.646 27.4667 200.867 27.0133 202.046 26.56C203.225 26.0613 203.814 25.2 203.814 23.976C203.814 22.7067 203.315 21.7093 202.318 20.984C201.321 20.2133 199.87 19.828 197.966 19.828C193.75 19.828 191.506 21.46 191.234 24.724H183.006C183.142 21.4147 184.479 18.672 187.018 16.496C189.557 14.32 193.229 13.232 198.034 13.232C207.826 13.232 212.722 17.516 212.722 26.084V43.832C212.722 46.4613 213.13 48.0707 213.946 48.66V49H205.038ZM195.79 43.356C198.329 43.356 200.323 42.6987 201.774 41.384C203.27 40.0693 204.018 38.5053 204.018 36.692V31.456C203.021 32.0453 200.867 32.7253 197.558 33.496C194.929 34.0853 193.07 34.7653 191.982 35.536C190.894 36.2613 190.35 37.3947 190.35 38.936C190.35 41.8827 192.163 43.356 195.79 43.356ZM249.541 49H240.633V44.92H240.429C239.16 46.6427 237.755 47.912 236.213 48.728C234.717 49.544 232.791 49.952 230.433 49.952C226.625 49.952 223.656 48.8187 221.525 46.552C219.395 44.2853 218.329 41.2253 218.329 37.372V14.116H227.509V35.808C227.509 40.024 229.436 42.132 233.289 42.132C235.42 42.132 237.12 41.4067 238.389 39.956C239.659 38.5053 240.293 36.6013 240.293 34.244V14.116H249.541V49ZM264.567 14.116V18.876H264.771C267.174 15.068 270.619 13.164 275.107 13.164C278.689 13.164 281.59 14.388 283.811 16.836C286.033 19.2387 287.143 22.3667 287.143 26.22V49H277.895V27.58C277.895 25.676 277.351 24.1347 276.263 22.956C275.221 21.7773 273.747 21.188 271.843 21.188C269.803 21.188 268.103 21.936 266.743 23.432C265.429 24.928 264.771 26.8547 264.771 29.212V49H255.523V14.116H264.567ZM309.028 50.02C303.633 50.02 299.304 48.2747 296.04 44.784C292.776 41.2933 291.144 36.896 291.144 31.592C291.144 26.288 292.73 21.8907 295.904 18.4C299.122 14.9093 303.338 13.164 308.552 13.164C312.949 13.164 316.53 14.32 319.296 16.632C322.061 18.944 323.761 22.0493 324.396 25.948H315.352C315.034 24.3613 314.309 23.0693 313.176 22.072C312.042 21.0747 310.637 20.576 308.96 20.576C306.24 20.576 304.154 21.5507 302.704 23.5C301.253 25.4493 300.528 28.1467 300.528 31.592C300.528 34.992 301.23 37.6893 302.636 39.684C304.041 41.6333 306.104 42.608 308.824 42.608C312.858 42.608 315.193 40.636 315.828 36.692H324.736C324.418 40.5453 322.854 43.7413 320.044 46.28C317.233 48.7733 313.561 50.02 309.028 50.02ZM329.245 49V1.4H336.181V49H329.245ZM339.649 21.8V15H355.425C356.309 15 356.989 15.68 356.989 16.564V20.236C356.989 21.12 357.669 21.8 358.553 21.8H362.361C363.245 21.8 363.925 22.48 363.925 23.364V49H356.989V23.364C356.989 22.48 356.309 21.8 355.425 21.8H339.649Z"/>
</mask>
<path d="M42.084 15V16H43.084V15H42.084ZM35.148 15H34.148V16H35.148V15ZM28.212 21.8H29.212V20.8H28.212V21.8ZM28.212 28.6V29.6H29.212V28.6H28.212ZM7.404 49V50H8.404V49H7.404ZM0.468 49H-0.532V50H0.468V49ZM8.404 2.964C8.404 2.63228 8.63628 2.4 8.968 2.4V0.399998C7.53172 0.399998 6.404 1.52771 6.404 2.964H8.404ZM8.968 2.4H33.584V0.399998H8.968V2.4ZM33.584 2.4C33.9157 2.4 34.148 2.63228 34.148 2.964H36.148C36.148 1.52771 35.0203 0.399998 33.584 0.399998V2.4ZM34.148 2.964V6.636H36.148V2.964H34.148ZM34.148 6.636C34.148 8.07228 35.2757 9.2 36.712 9.2V7.2C36.3803 7.2 36.148 6.96771 36.148 6.636H34.148ZM36.712 9.2H40.52V7.2H36.712V9.2ZM40.52 9.2C40.8517 9.2 41.084 9.43228 41.084 9.764H43.084C43.084 8.32771 41.9563 7.2 40.52 7.2V9.2ZM41.084 9.764V15H43.084V9.764H41.084ZM42.084 14H35.148V16H42.084V14ZM36.148 15V9.764H34.148V15H36.148ZM36.148 9.764C36.148 8.32771 35.0203 7.2 33.584 7.2V9.2C33.9157 9.2 34.148 9.43228 34.148 9.764H36.148ZM33.584 7.2H8.968V9.2H33.584V7.2ZM8.968 7.2C7.53172 7.2 6.404 8.32771 6.404 9.764H8.404C8.404 9.43228 8.63628 9.2 8.968 9.2V7.2ZM6.404 9.764V20.236H8.404V9.764H6.404ZM6.404 20.236C6.404 21.6723 7.53171 22.8 8.968 22.8V20.8C8.63629 20.8 8.404 20.5677 8.404 20.236H6.404ZM8.968 22.8H28.212V20.8H8.968V22.8ZM27.212 21.8V28.6H29.212V21.8H27.212ZM28.212 27.6H8.968V29.6H28.212V27.6ZM8.968 27.6C7.53172 27.6 6.404 28.7277 6.404 30.164H8.404C8.404 29.8323 8.63628 29.6 8.968 29.6V27.6ZM6.404 30.164V49H8.404V30.164H6.404ZM7.404 48H0.468V50H7.404V48ZM1.468 49V30.164H-0.532V49H1.468ZM1.468 30.164C1.468 29.8323 1.70028 29.6 2.032 29.6V27.6C0.595716 27.6 -0.532 28.7277 -0.532 30.164H1.468ZM2.032 29.6H5.84V27.6H2.032V29.6ZM5.84 29.6C7.27629 29.6 8.404 28.4723 8.404 27.036H6.404C6.404 27.3677 6.17172 27.6 5.84 27.6V29.6ZM8.404 27.036V23.364H6.404V27.036H8.404ZM8.404 23.364C8.404 21.9277 7.27629 20.8 5.84 20.8V22.8C6.17172 22.8 6.404 23.0323 6.404 23.364H8.404ZM5.84 20.8H2.032V22.8H5.84V20.8ZM2.032 20.8C1.70029 20.8 1.468 20.5677 1.468 20.236H-0.532C-0.532 21.6723 0.595715 22.8 2.032 22.8V20.8ZM1.468 20.236V9.764H-0.532V20.236H1.468ZM1.468 9.764C1.468 9.43228 1.70028 9.2 2.032 9.2V7.2C0.595716 7.2 -0.532 8.32771 -0.532 9.764H1.468ZM2.032 9.2H5.84V7.2H2.032V9.2ZM5.84 9.2C7.27629 9.2 8.404 8.07228 8.404 6.636H6.404C6.404 6.96771 6.17172 7.2 5.84 7.2V9.2ZM8.404 6.636V2.964H6.404V6.636H8.404ZM70.499 49L69.7063 49.6097L70.0066 50H70.499V49ZM69.411 45.124L70.4018 44.9889L70.2839 44.124H69.411V45.124ZM69.275 45.124V44.124H68.7398L68.4429 44.5693L69.275 45.124ZM50.167 47.028L50.8087 46.2611L50.167 47.028ZM50.507 31.388L51.0617 32.2201L51.0722 32.2129L50.507 31.388ZM60.843 27.92L60.7054 26.9295L60.7015 26.93L60.843 27.92ZM67.507 26.56L67.866 27.4933L67.8814 27.4874L67.8966 27.481L67.507 26.56ZM67.779 20.984L67.1675 21.7753L67.179 21.7842L67.1908 21.7927L67.779 20.984ZM56.695 24.724V25.724H57.6151L57.6915 24.807L56.695 24.724ZM48.467 24.724L47.4678 24.6829L47.425 25.724H48.467V24.724ZM79.407 48.66H80.407V48.1487L79.9925 47.8493L79.407 48.66ZM79.407 49V50H80.407V49H79.407ZM67.235 41.384L66.5749 40.6328L66.5691 40.6379L66.5634 40.643L67.235 41.384ZM69.479 31.456H70.479V29.7035L68.9702 30.5951L69.479 31.456ZM63.019 33.496L63.2377 34.4718L63.2458 34.4699L63.019 33.496ZM57.443 35.536L57.9977 36.368L58.0094 36.3602L58.021 36.352L57.443 35.536ZM71.2916 48.3903C71.1821 48.248 71.0198 47.9246 70.8498 47.3187C70.6854 46.7331 70.5343 45.9607 70.4018 44.9889L68.4201 45.2591C68.5596 46.2819 68.7259 47.1529 68.9242 47.8593C69.1168 48.5454 69.3625 49.1627 69.7063 49.6097L71.2916 48.3903ZM69.411 44.124H69.275V46.124H69.411V44.124ZM68.4429 44.5693C67.5348 45.9315 66.3889 46.9724 64.9991 47.7082L65.9349 49.4758C67.6277 48.5796 69.0205 47.3085 70.107 45.6787L68.4429 44.5693ZM64.9991 47.7082C63.6624 48.4159 61.6951 48.816 59.007 48.816V50.816C61.8495 50.816 64.1889 50.4001 65.9349 49.4758L64.9991 47.7082ZM59.007 48.816C55.5052 48.816 52.8062 47.9325 50.8087 46.2611L49.5252 47.7949C51.9704 49.8409 55.1647 50.816 59.007 50.816V48.816ZM50.8087 46.2611C48.8549 44.6263 47.835 42.3011 47.835 39.14H45.835C45.835 42.7789 47.0364 45.7124 49.5252 47.7949L50.8087 46.2611ZM47.835 39.14C47.835 35.8609 48.9507 33.6274 51.0617 32.2201L49.9523 30.556C47.1672 32.4126 45.835 35.3471 45.835 39.14H47.835ZM51.0722 32.2129C53.3452 30.6555 56.6228 29.533 60.9844 28.91L60.7015 26.93C56.1779 27.5763 52.5647 28.7658 49.9417 30.5631L51.0722 32.2129ZM60.9805 28.9105C64.237 28.4582 66.566 27.9933 67.866 27.4933L67.148 25.6267C66.0906 26.0333 63.977 26.4751 60.7054 26.9295L60.9805 28.9105ZM67.8966 27.481C68.6222 27.174 69.2333 26.7258 69.6583 26.1047C70.0854 25.4805 70.275 24.7538 70.275 23.976H68.275C68.275 24.4222 68.1699 24.7382 68.0077 24.9753C67.8433 25.2155 67.5704 25.4474 67.1173 25.639L67.8966 27.481ZM70.275 23.976C70.275 22.3978 69.632 21.0952 68.3671 20.1753L67.1908 21.7927C67.9206 22.3235 68.275 23.0155 68.275 23.976H70.275ZM68.3904 20.1927C67.1486 19.2331 65.4448 18.828 63.427 18.828V20.828C65.2172 20.828 66.4147 21.1935 67.1675 21.7753L68.3904 20.1927ZM63.427 18.828C61.2111 18.828 59.3548 19.2535 57.9938 20.2433C56.5936 21.2616 55.8538 22.7768 55.6984 24.641L57.6915 24.807C57.8082 23.4072 58.3263 22.4744 59.1701 21.8607C60.0532 21.2185 61.4269 20.828 63.427 20.828V18.828ZM56.695 23.724H48.467V25.724H56.695V23.724ZM49.4661 24.7651C49.5906 21.7361 50.7996 19.2525 53.1298 17.2553L51.8282 15.7367C49.081 18.0915 47.6153 21.0932 47.4678 24.6829L49.4661 24.7651ZM53.1298 17.2553C55.4221 15.2904 58.8258 14.232 63.495 14.232V12.232C58.5535 12.232 54.6132 13.3496 51.8282 15.7367L53.1298 17.2553ZM63.495 14.232C68.2672 14.232 71.6596 15.2788 73.8525 17.1976C76.0198 19.094 77.183 21.9914 77.183 26.084H79.183C79.183 21.6086 77.8981 18.08 75.1695 15.6924C72.4664 13.3272 68.5147 12.232 63.495 12.232V14.232ZM77.183 26.084V43.832H79.183V26.084H77.183ZM77.183 43.832C77.183 45.1874 77.287 46.3392 77.5196 47.2567C77.7466 48.152 78.1337 48.9739 78.8215 49.4707L79.9925 47.8493C79.8643 47.7568 79.6393 47.4793 79.4583 46.7653C79.2829 46.0735 79.183 45.1059 79.183 43.832H77.183ZM78.407 48.66V49H80.407V48.66H78.407ZM79.407 48H70.499V50H79.407V48ZM61.251 44.356C63.9621 44.356 66.2226 43.651 67.9065 42.125L66.5634 40.643C65.346 41.7463 63.6171 42.356 61.251 42.356V44.356ZM67.8951 42.1352C69.5833 40.6516 70.479 38.8232 70.479 36.692H68.479C68.479 38.1874 67.8786 39.4871 66.5749 40.6328L67.8951 42.1352ZM70.479 36.692V31.456H68.479V36.692H70.479ZM68.9702 30.5951C68.1266 31.0936 66.1255 31.7458 62.7922 32.5221L63.2458 34.4699C66.5311 33.7049 68.8367 32.9971 69.9877 32.3169L68.9702 30.5951ZM62.8003 32.5202C60.1466 33.115 58.1233 33.8286 56.865 34.72L58.021 36.352C58.9386 35.702 60.6326 35.0557 63.2377 34.4718L62.8003 32.5202ZM56.8883 34.7039C55.4691 35.65 54.811 37.1294 54.811 38.936H56.811C56.811 37.66 57.2408 36.8726 57.9977 36.368L56.8883 34.7039ZM54.811 38.936C54.811 40.6247 55.3407 42.0524 56.5404 43.0271C57.7003 43.9696 59.328 44.356 61.251 44.356V42.356C59.5472 42.356 58.455 42.0058 57.8016 41.4749C57.1879 40.9763 56.811 40.1939 56.811 38.936H54.811ZM84.0623 49H83.0623V50H84.0623V49ZM84.0623 14.116V13.116H83.0623V14.116H84.0623ZM93.3103 14.116H94.3103V13.116H93.3103V14.116ZM93.3103 49V50H94.3103V49H93.3103ZM84.0623 8.676H83.0623V9.676H84.0623V8.676ZM84.0623 0.379997V-0.620003H83.0623V0.379997H84.0623ZM93.3103 0.379997H94.3103V-0.620003H93.3103V0.379997ZM93.3103 8.676V9.676H94.3103V8.676H93.3103ZM85.0623 49V14.116H83.0623V49H85.0623ZM84.0623 15.116H93.3103V13.116H84.0623V15.116ZM92.3103 14.116V49H94.3103V14.116H92.3103ZM93.3103 48H84.0623V50H93.3103V48ZM85.0623 8.676V0.379997H83.0623V8.676H85.0623ZM84.0623 1.38H93.3103V-0.620003H84.0623V1.38ZM92.3103 0.379997V8.676H94.3103V0.379997H92.3103ZM93.3103 7.676H84.0623V9.676H93.3103V7.676ZM108.177 14.116H109.177V13.116H108.177V14.116ZM108.177 19.692H107.177V20.692H108.177V19.692ZM108.381 19.692V20.692H108.981L109.264 20.1626L108.381 19.692ZM111.985 15.204L112.572 16.0139L112.581 16.0074L112.59 16.0007L111.985 15.204ZM119.125 13.98H120.125V13.2796L119.467 13.0402L119.125 13.98ZM119.125 22.072V23.072H120.125V22.072H119.125ZM118.921 22.072L118.82 23.0669L118.871 23.072H118.921V22.072ZM111.373 24.112L112.034 24.8624L111.373 24.112ZM108.517 49V50H109.517V49H108.517ZM99.2693 49H98.2693V50H99.2693V49ZM99.2693 14.116V13.116H98.2693V14.116H99.2693ZM107.177 14.116V19.692H109.177V14.116H107.177ZM108.177 20.692H108.381V18.692H108.177V20.692ZM109.264 20.1626C110.308 18.2037 111.421 16.8472 112.572 16.0139L111.399 14.3941C109.92 15.4648 108.63 17.1003 107.499 19.2214L109.264 20.1626ZM112.59 16.0007C113.697 15.161 115.126 14.708 116.949 14.708V12.708C114.783 12.708 112.903 13.2523 111.381 14.4073L112.59 16.0007ZM116.949 14.708C117.862 14.708 118.449 14.7981 118.784 14.9198L119.467 13.0402C118.804 12.7992 117.941 12.708 116.949 12.708V14.708ZM118.125 13.98V22.072H120.125V13.98H118.125ZM119.125 21.072H118.921V23.072H119.125V21.072ZM119.022 21.0771C115.688 20.7389 112.873 21.4579 110.712 23.3616L112.034 24.8624C113.681 23.4114 115.898 22.7705 118.82 23.0669L119.022 21.0771ZM110.712 23.3616C108.516 25.2968 107.517 28.2535 107.517 32H109.517C109.517 28.5839 110.423 26.2819 112.034 24.8624L110.712 23.3616ZM107.517 32V49H109.517V32H107.517ZM108.517 48H99.2693V50H108.517V48ZM100.269 49V14.116H98.2693V49H100.269ZM99.2693 15.116H108.177V13.116H99.2693V15.116ZM135.007 1.4V0.399998H134.007V1.4H135.007ZM141.943 1.4H142.943V0.399998H141.943V1.4ZM169.687 35.4V34.4H168.687V35.4H169.687ZM176.623 35.4H177.623V34.4H176.623V35.4ZM135.007 2.4H141.943V0.399998H135.007V2.4ZM140.943 1.4V40.636H142.943V1.4H140.943ZM140.943 40.636C140.943 42.0723 142.071 43.2 143.507 43.2V41.2C143.175 41.2 142.943 40.9677 142.943 40.636H140.943ZM143.507 43.2H168.123V41.2H143.507V43.2ZM168.123 43.2C169.559 43.2 170.687 42.0723 170.687 40.636H168.687C168.687 40.9677 168.455 41.2 168.123 41.2V43.2ZM170.687 40.636V35.4H168.687V40.636H170.687ZM169.687 36.4H176.623V34.4H169.687V36.4ZM175.623 35.4V40.636H177.623V35.4H175.623ZM175.623 40.636C175.623 40.9677 175.391 41.2 175.059 41.2V43.2C176.495 43.2 177.623 42.0723 177.623 40.636H175.623ZM175.059 41.2H171.251V43.2H175.059V41.2ZM171.251 41.2C169.815 41.2 168.687 42.3277 168.687 43.764H170.687C170.687 43.4323 170.919 43.2 171.251 43.2V41.2ZM168.687 43.764V47.436H170.687V43.764H168.687ZM168.687 47.436C168.687 47.7677 168.455 48 168.123 48V50C169.559 50 170.687 48.8723 170.687 47.436H168.687ZM168.123 48H143.507V50H168.123V48ZM143.507 48C143.175 48 142.943 47.7677 142.943 47.436H140.943C140.943 48.8723 142.071 50 143.507 50V48ZM142.943 47.436V43.764H140.943V47.436H142.943ZM142.943 43.764C142.943 42.3277 141.815 41.2 140.379 41.2V43.2C140.711 43.2 140.943 43.4323 140.943 43.764H142.943ZM140.379 41.2H136.571V43.2H140.379V41.2ZM136.571 41.2C136.239 41.2 136.007 40.9677 136.007 40.636H134.007C134.007 42.0723 135.135 43.2 136.571 43.2V41.2ZM136.007 40.636V1.4H134.007V40.636H136.007ZM205.038 49L204.245 49.6097L204.546 50H205.038V49ZM203.95 45.124L204.941 44.9889L204.823 44.124H203.95V45.124ZM203.814 45.124V44.124H203.279L202.982 44.5693L203.814 45.124ZM184.706 47.028L185.348 46.2611L184.706 47.028ZM185.046 31.388L185.601 32.2201L185.611 32.2129L185.046 31.388ZM195.382 27.92L195.244 26.9295L195.241 26.93L195.382 27.92ZM202.046 26.56L202.405 27.4933L202.42 27.4874L202.436 27.481L202.046 26.56ZM202.318 20.984L201.707 21.7753L201.718 21.7842L201.73 21.7927L202.318 20.984ZM191.234 24.724V25.724H192.154L192.231 24.807L191.234 24.724ZM183.006 24.724L182.007 24.6829L181.964 25.724H183.006V24.724ZM213.946 48.66H214.946V48.1487L214.532 47.8493L213.946 48.66ZM213.946 49V50H214.946V49H213.946ZM201.774 41.384L201.114 40.6328L201.108 40.6379L201.103 40.643L201.774 41.384ZM204.018 31.456H205.018V29.7035L203.509 30.5951L204.018 31.456ZM197.558 33.496L197.777 34.4718L197.785 34.4699L197.558 33.496ZM191.982 35.536L192.537 36.368L192.549 36.3602L192.56 36.352L191.982 35.536ZM205.831 48.3903C205.721 48.248 205.559 47.9246 205.389 47.3187C205.224 46.7331 205.073 45.9607 204.941 44.9889L202.959 45.2591C203.099 46.2819 203.265 47.1529 203.463 47.8593C203.656 48.5454 203.902 49.1627 204.245 49.6097L205.831 48.3903ZM203.95 44.124H203.814V46.124H203.95V44.124ZM202.982 44.5693C202.074 45.9315 200.928 46.9724 199.538 47.7082L200.474 49.4758C202.167 48.5796 203.56 47.3085 204.646 45.6787L202.982 44.5693ZM199.538 47.7082C198.201 48.4159 196.234 48.816 193.546 48.816V50.816C196.389 50.816 198.728 50.4001 200.474 49.4758L199.538 47.7082ZM193.546 48.816C190.044 48.816 187.345 47.9325 185.348 46.2611L184.064 47.7949C186.509 49.8409 189.704 50.816 193.546 50.816V48.816ZM185.348 46.2611C183.394 44.6263 182.374 42.3011 182.374 39.14H180.374C180.374 42.7789 181.575 45.7124 184.064 47.7949L185.348 46.2611ZM182.374 39.14C182.374 35.8609 183.49 33.6274 185.601 32.2201L184.491 30.556C181.706 32.4126 180.374 35.3471 180.374 39.14H182.374ZM185.611 32.2129C187.884 30.6555 191.162 29.533 195.523 28.91L195.241 26.93C190.717 27.5763 187.104 28.7658 184.481 30.5631L185.611 32.2129ZM195.52 28.9105C198.776 28.4582 201.105 27.9933 202.405 27.4933L201.687 25.6267C200.63 26.0333 198.516 26.4751 195.244 26.9295L195.52 28.9105ZM202.436 27.481C203.161 27.174 203.772 26.7258 204.197 26.1047C204.624 25.4805 204.814 24.7538 204.814 23.976H202.814C202.814 24.4222 202.709 24.7382 202.547 24.9753C202.382 25.2155 202.109 25.4474 201.656 25.639L202.436 27.481ZM204.814 23.976C204.814 22.3978 204.171 21.0952 202.906 20.1753L201.73 21.7927C202.46 22.3235 202.814 23.0155 202.814 23.976H204.814ZM202.929 20.1927C201.688 19.2331 199.984 18.828 197.966 18.828V20.828C199.756 20.828 200.954 21.1935 201.707 21.7753L202.929 20.1927ZM197.966 18.828C195.75 18.828 193.894 19.2535 192.533 20.2433C191.133 21.2616 190.393 22.7768 190.237 24.641L192.231 24.807C192.347 23.4072 192.865 22.4744 193.709 21.8607C194.592 21.2185 195.966 20.828 197.966 20.828V18.828ZM191.234 23.724H183.006V25.724H191.234V23.724ZM184.005 24.7651C184.13 21.7361 185.339 19.2525 187.669 17.2553L186.367 15.7367C183.62 18.0915 182.154 21.0932 182.007 24.6829L184.005 24.7651ZM187.669 17.2553C189.961 15.2904 193.365 14.232 198.034 14.232V12.232C193.093 12.232 189.152 13.3496 186.367 15.7367L187.669 17.2553ZM198.034 14.232C202.806 14.232 206.199 15.2788 208.392 17.1976C210.559 19.094 211.722 21.9914 211.722 26.084H213.722C213.722 21.6086 212.437 18.08 209.709 15.6924C207.005 13.3272 203.054 12.232 198.034 12.232V14.232ZM211.722 26.084V43.832H213.722V26.084H211.722ZM211.722 43.832C211.722 45.1874 211.826 46.3392 212.059 47.2567C212.286 48.152 212.673 48.9739 213.361 49.4707L214.532 47.8493C214.403 47.7568 214.178 47.4793 213.997 46.7653C213.822 46.0735 213.722 45.1059 213.722 43.832H211.722ZM212.946 48.66V49H214.946V48.66H212.946ZM213.946 48H205.038V50H213.946V48ZM195.79 44.356C198.501 44.356 200.762 43.651 202.446 42.125L201.103 40.643C199.885 41.7463 198.156 42.356 195.79 42.356V44.356ZM202.434 42.1352C204.122 40.6516 205.018 38.8232 205.018 36.692H203.018C203.018 38.1874 202.418 39.4871 201.114 40.6328L202.434 42.1352ZM205.018 36.692V31.456H203.018V36.692H205.018ZM203.509 30.5951C202.666 31.0936 200.665 31.7458 197.331 32.5221L197.785 34.4699C201.07 33.7049 203.376 32.9971 204.527 32.3169L203.509 30.5951ZM197.339 32.5202C194.686 33.115 192.662 33.8286 191.404 34.72L192.56 36.352C193.478 35.702 195.172 35.0557 197.777 34.4718L197.339 32.5202ZM191.427 34.7039C190.008 35.65 189.35 37.1294 189.35 38.936H191.35C191.35 37.66 191.78 36.8726 192.537 36.368L191.427 34.7039ZM189.35 38.936C189.35 40.6247 189.88 42.0524 191.079 43.0271C192.239 43.9696 193.867 44.356 195.79 44.356V42.356C194.086 42.356 192.994 42.0058 192.341 41.4749C191.727 40.9763 191.35 40.1939 191.35 38.936H189.35ZM249.541 49V50H250.541V49H249.541ZM240.633 49H239.633V50H240.633V49ZM240.633 44.92H241.633V43.92H240.633V44.92ZM240.429 44.92V43.92H239.924L239.624 44.3268L240.429 44.92ZM236.213 48.728L235.745 47.8441L235.735 47.8501L236.213 48.728ZM221.525 46.552L222.254 45.8671L221.525 46.552ZM218.329 14.116V13.116H217.329V14.116H218.329ZM227.509 14.116H228.509V13.116H227.509V14.116ZM238.389 39.956L239.142 40.6145L238.389 39.956ZM240.293 14.116V13.116H239.293V14.116H240.293ZM249.541 14.116H250.541V13.116H249.541V14.116ZM249.541 48H240.633V50H249.541V48ZM241.633 49V44.92H239.633V49H241.633ZM240.633 43.92H240.429V45.92H240.633V43.92ZM239.624 44.3268C238.424 45.9554 237.127 47.1126 235.745 47.8442L236.681 49.6118C238.382 48.7114 239.896 47.3299 241.234 45.5132L239.624 44.3268ZM235.735 47.8501C234.431 48.5611 232.684 48.952 230.433 48.952V50.952C232.897 50.952 235.004 50.5268 236.692 49.6059L235.735 47.8501ZM230.433 48.952C226.835 48.952 224.155 47.8889 222.254 45.8671L220.797 47.2369C223.158 49.7484 226.416 50.952 230.433 50.952V48.952ZM222.254 45.8671C220.337 43.8276 219.329 41.0346 219.329 37.372H217.329C217.329 41.4161 218.453 44.743 220.797 47.2369L222.254 45.8671ZM219.329 37.372V14.116H217.329V37.372H219.329ZM218.329 15.116H227.509V13.116H218.329V15.116ZM226.509 14.116V35.808H228.509V14.116H226.509ZM226.509 35.808C226.509 38.049 227.02 39.9163 228.216 41.2256C229.429 42.552 231.184 43.132 233.289 43.132V41.132C231.541 41.132 230.407 40.658 229.693 39.8764C228.963 39.0777 228.509 37.783 228.509 35.808H226.509ZM233.289 43.132C235.674 43.132 237.661 42.3066 239.142 40.6145L237.637 39.2975C236.579 40.5068 235.166 41.132 233.289 41.132V43.132ZM239.142 40.6145C240.604 38.9432 241.293 36.7872 241.293 34.244H239.293C239.293 36.4154 238.713 38.0675 237.637 39.2975L239.142 40.6145ZM241.293 34.244V14.116H239.293V34.244H241.293ZM240.293 15.116H249.541V13.116H240.293V15.116ZM248.541 14.116V49H250.541V14.116H248.541ZM264.567 14.116H265.567V13.116H264.567V14.116ZM264.567 18.876H263.567V19.876H264.567V18.876ZM264.771 18.876V19.876H265.323L265.617 19.4096L264.771 18.876ZM283.811 16.836L283.071 17.508L283.077 17.5149L283.811 16.836ZM287.143 49V50H288.143V49H287.143ZM277.895 49H276.895V50H277.895V49ZM276.263 22.956L275.514 23.6186L275.521 23.6265L275.528 23.6343L276.263 22.956ZM266.743 23.432L266.003 22.7593L265.998 22.7656L265.992 22.7719L266.743 23.432ZM264.771 49V50H265.771V49H264.771ZM255.523 49H254.523V50H255.523V49ZM255.523 14.116V13.116H254.523V14.116H255.523ZM263.567 14.116V18.876H265.567V14.116H263.567ZM264.567 19.876H264.771V17.876H264.567V19.876ZM265.617 19.4096C267.837 15.8908 270.964 14.164 275.107 14.164V12.164C270.275 12.164 266.511 14.2452 263.926 18.3424L265.617 19.4096ZM275.107 14.164C278.433 14.164 281.056 15.2876 283.071 17.508L284.552 16.164C282.124 13.4884 278.944 12.164 275.107 12.164V14.164ZM283.077 17.5149C285.098 19.7006 286.143 22.5708 286.143 26.22H288.143C288.143 22.1626 286.967 18.7768 284.546 16.1571L283.077 17.5149ZM286.143 26.22V49H288.143V26.22H286.143ZM287.143 48H277.895V50H287.143V48ZM278.895 49V27.58H276.895V49H278.895ZM278.895 27.58C278.895 25.4745 278.288 23.6748 276.998 22.2777L275.528 23.6343C276.415 24.5946 276.895 25.8775 276.895 27.58H278.895ZM277.012 22.2934C275.74 20.8556 273.968 20.188 271.843 20.188V22.188C273.526 22.188 274.701 22.6991 275.514 23.6186L277.012 22.2934ZM271.843 20.188C269.524 20.188 267.555 21.0527 266.003 22.7593L267.483 24.1047C268.652 22.8193 270.082 22.188 271.843 22.188V20.188ZM265.992 22.7719C264.488 24.4829 263.771 26.6588 263.771 29.212H265.771C265.771 27.0506 266.369 25.3731 267.494 24.0921L265.992 22.7719ZM263.771 29.212V49H265.771V29.212H263.771ZM264.771 48H255.523V50H264.771V48ZM256.523 49V14.116H254.523V49H256.523ZM255.523 15.116H264.567V13.116H255.523V15.116ZM296.04 44.784L296.77 44.101L296.04 44.784ZM295.904 18.4L295.168 17.7221L295.164 17.7273L295.904 18.4ZM319.296 16.632L319.937 15.8648L319.296 16.632ZM324.396 25.948V26.948H325.572L325.383 25.7873L324.396 25.948ZM315.352 25.948L314.371 26.1441L314.532 26.948H315.352V25.948ZM313.176 22.072L313.836 21.3213L313.176 22.072ZM302.704 23.5L301.901 22.903L302.704 23.5ZM302.636 39.684L301.818 40.26L301.824 40.2688L302.636 39.684ZM315.828 36.692V35.692H314.976L314.84 36.5331L315.828 36.692ZM324.736 36.692L325.732 36.7741L325.821 35.692H324.736V36.692ZM320.044 46.28L320.707 47.0281L320.714 47.0221L320.044 46.28ZM309.028 49.02C303.87 49.02 299.82 47.3624 296.77 44.101L295.309 45.467C298.788 49.1869 303.395 51.02 309.028 51.02V49.02ZM296.77 44.101C293.699 40.8165 292.144 36.6726 292.144 31.592H290.144C290.144 37.1194 291.852 41.7701 295.309 45.467L296.77 44.101ZM292.144 31.592C292.144 26.5035 293.659 22.356 296.643 19.0727L295.164 17.7273C291.802 21.4253 290.144 26.0725 290.144 31.592H292.144ZM296.639 19.0779C299.648 15.8139 303.587 14.164 308.552 14.164V12.164C303.089 12.164 298.596 14.0047 295.168 17.7221L296.639 19.0779ZM308.552 14.164C312.768 14.164 316.106 15.2687 318.654 17.3992L319.937 15.8648C316.955 13.3713 313.13 12.164 308.552 12.164V14.164ZM318.654 17.3992C321.217 19.5419 322.809 22.4227 323.409 26.1087L325.383 25.7873C324.713 21.676 322.905 18.3461 319.937 15.8648L318.654 17.3992ZM324.396 24.948H315.352V26.948H324.396V24.948ZM316.332 25.7519C315.975 23.9667 315.146 22.4741 313.836 21.3213L312.515 22.8227C313.472 23.6645 314.093 24.7559 314.371 26.1441L316.332 25.7519ZM313.836 21.3213C312.5 20.1451 310.851 19.576 308.96 19.576V21.576C310.423 21.576 311.585 22.0042 312.515 22.8227L313.836 21.3213ZM308.96 19.576C305.967 19.576 303.565 20.6672 301.901 22.903L303.506 24.097C304.743 22.4341 306.512 21.576 308.96 21.576V19.576ZM301.901 22.903C300.278 25.0837 299.528 28.0188 299.528 31.592H301.528C301.528 28.2745 302.227 25.8149 303.506 24.097L301.901 22.903ZM299.528 31.592C299.528 35.1195 300.256 38.0421 301.818 40.26L303.453 39.108C302.205 37.3365 301.528 34.8645 301.528 31.592H299.528ZM301.824 40.2688C303.445 42.5161 305.831 43.608 308.824 43.608V41.608C306.376 41.608 304.637 40.7506 303.447 39.0992L301.824 40.2688ZM308.824 43.608C311.001 43.608 312.847 43.0744 314.246 41.8929C315.646 40.7104 316.471 38.9852 316.815 36.8509L314.84 36.5331C314.549 38.3428 313.89 39.5756 312.955 40.3651C312.019 41.1556 310.681 41.608 308.824 41.608V43.608ZM315.828 37.692H324.736V35.692H315.828V37.692ZM323.739 36.6099C323.442 40.2156 321.991 43.1736 319.373 45.5379L320.714 47.0221C323.718 44.309 325.394 40.875 325.732 36.7741L323.739 36.6099ZM319.38 45.5319C316.788 47.8309 313.369 49.02 309.028 49.02V51.02C313.752 51.02 317.677 49.7158 320.707 47.0281L319.38 45.5319ZM329.245 49H328.245V50H329.245V49ZM329.245 1.4V0.399998H328.245V1.4H329.245ZM336.181 1.4H337.181V0.399998H336.181V1.4ZM336.181 49V50H337.181V49H336.181ZM339.649 21.8H338.649V22.8H339.649V21.8ZM339.649 15V14H338.649V15H339.649ZM363.925 49V50H364.925V49H363.925ZM356.989 49H355.989V50H356.989V49ZM330.245 49V1.4H328.245V49H330.245ZM329.245 2.4H336.181V0.399998H329.245V2.4ZM335.181 1.4V49H337.181V1.4H335.181ZM336.181 48H329.245V50H336.181V48ZM340.649 21.8V15H338.649V21.8H340.649ZM339.649 16H355.425V14H339.649V16ZM355.425 16C355.757 16 355.989 16.2323 355.989 16.564H357.989C357.989 15.1277 356.862 14 355.425 14V16ZM355.989 16.564V20.236H357.989V16.564H355.989ZM355.989 20.236C355.989 21.6723 357.117 22.8 358.553 22.8V20.8C358.222 20.8 357.989 20.5677 357.989 20.236H355.989ZM358.553 22.8H362.361V20.8H358.553V22.8ZM362.361 22.8C362.693 22.8 362.925 23.0323 362.925 23.364H364.925C364.925 21.9277 363.798 20.8 362.361 20.8V22.8ZM362.925 23.364V49H364.925V23.364H362.925ZM363.925 48H356.989V50H363.925V48ZM357.989 49V23.364H355.989V49H357.989ZM357.989 23.364C357.989 21.9277 356.862 20.8 355.425 20.8V22.8C355.757 22.8 355.989 23.0323 355.989 23.364H357.989ZM355.425 20.8H339.649V22.8H355.425V20.8Z" fill="white" mask="url(#path-1-outside-1_1_2602)"/>
</svg>
