<svg width="225" height="23" viewBox="0 0 225 23" fill="none" xmlns="http://www.w3.org/2000/svg">
<path d="M0.53 13.69C0.53 13.3 0.83 13 1.22 13H2.9C3.29 13 3.59 12.7 3.59 12.31V10.69C3.59 10.3 3.29 10 2.9 10H1.22C0.83 10 0.53 9.7 0.53 9.31V0.999999H3.59V9.31C3.59 9.7 3.89 10 4.28 10H15.14C15.53 10 15.83 9.7 15.83 9.31V0.999999H18.89V9.31C18.89 9.7 18.59 10 18.2 10H16.52C16.13 10 15.83 10.3 15.83 10.69V12.31C15.83 12.7 16.13 13 16.52 13H18.2C18.59 13 18.89 13.3 18.89 13.69V22H15.83V13.69C15.83 13.3 15.53 13 15.14 13H4.28C3.89 13 3.59 13.3 3.59 13.69V22H0.53V13.69ZM34.816 20.14C33.316 21.68 31.386 22.45 29.026 22.45C26.666 22.45 24.736 21.68 23.236 20.14C21.736 18.58 20.986 16.64 20.986 14.32C20.986 12 21.736 10.07 23.236 8.53C24.736 6.97 26.666 6.19 29.026 6.19C31.386 6.19 33.316 6.97 34.816 8.53C36.316 10.07 37.066 12 37.066 14.32C37.066 16.64 36.316 18.58 34.816 20.14ZM29.026 19.33C30.246 19.33 31.196 18.88 31.876 17.98C32.576 17.06 32.926 15.84 32.926 14.32C32.926 12.8 32.576 11.58 31.876 10.66C31.196 9.74 30.246 9.28 29.026 9.28C27.786 9.28 26.826 9.74 26.146 10.66C25.466 11.56 25.126 12.78 25.126 14.32C25.126 15.84 25.466 17.06 26.146 17.98C26.826 18.88 27.786 19.33 29.026 19.33ZM41.8231 22L37.3231 6.61H41.3731L43.2331 13.75L43.9231 16.63H43.9831C44.2031 15.53 44.4231 14.56 44.6431 13.72L46.5631 6.61H50.0431L52.0531 13.72L52.7731 16.63H52.8331C53.0731 15.55 53.3031 14.59 53.5231 13.75L55.4731 6.61H59.4331L54.8431 22H51.1231L49.0831 14.44L48.3931 11.77H48.3331C48.0731 12.73 47.8331 13.62 47.6131 14.44L45.5131 22H41.8231ZM69.1857 10.69C69.1857 10.3 69.4857 10 69.8757 10H80.7357C81.1257 10 81.4257 10.3 81.4257 10.69V12.31C81.4257 12.7 81.7257 13 82.1157 13H83.7957C84.1857 13 84.4857 13.3 84.4857 13.69V22H81.4257V13.69C81.4257 13.3 81.1257 13 80.7357 13H69.8757C69.4857 13 69.1857 13.3 69.1857 13.69V22H66.1257V13.69C66.1257 13.3 66.4257 13 66.8157 13H68.4957C68.8857 13 69.1857 12.7 69.1857 12.31V10.69ZM66.1257 10V4.69C66.1257 4.3 66.4257 4 66.8157 4H68.4957C68.8857 4 69.1857 3.7 69.1857 3.31V1.69C69.1857 1.3 69.4857 0.999999 69.8757 0.999999H80.7357C81.1257 0.999999 81.4257 1.3 81.4257 1.69V3.31C81.4257 3.7 81.7257 4 82.1157 4H83.7957C84.1857 4 84.4857 4.3 84.4857 4.69V10H81.4257V4.69C81.4257 4.3 81.1257 4 80.7357 4H69.8757C69.4857 4 69.1857 4.3 69.1857 4.69V10H66.1257ZM102.842 21.31C102.842 21.7 102.542 22 102.152 22H91.2917C90.9017 22 90.6017 21.7 90.6017 21.31V19.69C90.6017 19.3 90.3017 19 89.9117 19H88.2317C87.8417 19 87.5417 18.7 87.5417 18.31V4.69C87.5417 4.3 87.8417 4 88.2317 4H89.9117C90.3017 4 90.6017 3.7 90.6017 3.31V1.69C90.6017 1.3 90.9017 0.999999 91.2917 0.999999H102.152C102.542 0.999999 102.842 1.3 102.842 1.69V3.31C102.842 3.7 103.142 4 103.532 4H105.212C105.602 4 105.902 4.3 105.902 4.69V7H102.842V4.69C102.842 4.3 102.542 4 102.152 4H91.2917C90.9017 4 90.6017 4.3 90.6017 4.69V18.31C90.6017 18.7 90.9017 19 91.2917 19H102.152C102.542 19 102.842 18.7 102.842 18.31V13.69C102.842 13.3 102.542 13 102.152 13H96.7217V10H102.152C102.542 10 102.842 10.3 102.842 10.69V12.31C102.842 12.7 103.142 13 103.532 13H105.212C105.602 13 105.902 13.3 105.902 13.69V18.31C105.902 18.7 105.602 19 105.212 19H103.532C103.142 19 102.842 19.3 102.842 19.69V21.31ZM108.958 16.69C108.958 16.3 109.258 16 109.648 16H111.328C111.718 16 112.018 15.7 112.018 15.31V13.69C112.018 13.3 112.318 13 112.708 13H114.388C114.778 13 115.078 12.7 115.078 12.31V10.69C115.078 10.3 114.778 10 114.388 10H112.708C112.318 10 112.018 9.7 112.018 9.31V7.69C112.018 7.3 111.718 7 111.328 7H109.648C109.258 7 108.958 6.7 108.958 6.31V0.999999H112.018V6.31C112.018 6.7 112.318 7 112.708 7H114.388C114.778 7 115.078 7.3 115.078 7.69V9.31C115.078 9.7 115.378 10 115.768 10H120.508C120.898 10 121.198 9.7 121.198 9.31V7.69C121.198 7.3 121.498 7 121.888 7H123.568C123.958 7 124.258 6.7 124.258 6.31V0.999999H127.318V6.31C127.318 6.7 127.018 7 126.628 7H124.948C124.558 7 124.258 7.3 124.258 7.69V9.31C124.258 9.7 123.958 10 123.568 10H121.888C121.498 10 121.198 10.3 121.198 10.69V12.31C121.198 12.7 121.498 13 121.888 13H123.568C123.958 13 124.258 13.3 124.258 13.69V15.31C124.258 15.7 124.558 16 124.948 16H126.628C127.018 16 127.318 16.3 127.318 16.69V22H124.258V16.69C124.258 16.3 123.958 16 123.568 16H121.888C121.498 16 121.198 15.7 121.198 15.31V13.69C121.198 13.3 120.898 13 120.508 13H115.768C115.378 13 115.078 13.3 115.078 13.69V15.31C115.078 15.7 114.778 16 114.388 16H112.708C112.318 16 112.018 16.3 112.018 16.69V22H108.958V16.69ZM141.786 19C141.396 19 141.096 18.7 141.096 18.31V0.999999H144.156V18.31C144.156 18.7 144.456 19 144.846 19H149.586C149.976 19 150.276 18.7 150.276 18.31V0.999999H153.336V18.31C153.336 18.7 153.636 19 154.026 19H158.766C159.156 19 159.456 18.7 159.456 18.31V0.999999H162.516V18.31C162.516 18.7 162.216 19 161.826 19H160.146C159.756 19 159.456 19.3 159.456 19.69V21.31C159.456 21.7 159.156 22 158.766 22H154.026C153.636 22 153.336 21.7 153.336 21.31V19.69C153.336 19.3 153.036 19 152.646 19H150.966C150.576 19 150.276 19.3 150.276 19.69V21.31C150.276 21.7 149.976 22 149.586 22H144.876C144.486 22 144.156 21.7 144.156 21.31V19.69C144.156 19.3 143.856 19 143.466 19H141.786ZM178.459 20.14C176.959 21.68 175.029 22.45 172.669 22.45C170.309 22.45 168.379 21.68 166.879 20.14C165.379 18.58 164.629 16.64 164.629 14.32C164.629 12 165.379 10.07 166.879 8.53C168.379 6.97 170.309 6.19 172.669 6.19C175.029 6.19 176.959 6.97 178.459 8.53C179.959 10.07 180.709 12 180.709 14.32C180.709 16.64 179.959 18.58 178.459 20.14ZM172.669 19.33C173.889 19.33 174.839 18.88 175.519 17.98C176.219 17.06 176.569 15.84 176.569 14.32C176.569 12.8 176.219 11.58 175.519 10.66C174.839 9.74 173.889 9.28 172.669 9.28C171.429 9.28 170.469 9.74 169.789 10.66C169.109 11.56 168.769 12.78 168.769 14.32C168.769 15.84 169.109 17.06 169.789 17.98C170.469 18.88 171.429 19.33 172.669 19.33ZM186.535 6.61V9.07H186.625C187.105 8.17 187.635 7.51 188.215 7.09C188.795 6.65 189.525 6.43 190.405 6.43C190.825 6.43 191.145 6.47 191.365 6.55V10.12H191.275C189.895 9.98 188.785 10.28 187.945 11.02C187.105 11.76 186.685 12.92 186.685 14.5V22H182.605V6.61H186.535ZM203.263 22L198.943 14.98L197.173 16.81V22H193.123V0.549999H197.173V12.43L202.633 6.61H207.523L201.853 12.46L208.213 22H203.263ZM212.77 7.69C212.77 7.3 213.07 7 213.46 7H225.01V10H213.46C213.07 10 212.77 10.3 212.77 10.69V12.31C212.77 12.7 213.07 13 213.46 13H221.26C221.65 13 221.95 13.3 221.95 13.69V15.31C221.95 15.7 222.25 16 222.64 16H224.32C224.71 16 225.01 16.3 225.01 16.69V18.31C225.01 18.7 224.71 19 224.32 19H222.64C222.25 19 221.95 19.3 221.95 19.69V21.31C221.95 21.7 221.65 22 221.26 22H209.71V19H221.26C221.65 19 221.95 18.7 221.95 18.31V16.69C221.95 16.3 221.65 16 221.26 16H213.46C213.07 16 212.77 15.7 212.77 15.31V13.69C212.77 13.3 212.47 13 212.08 13H210.4C210.01 13 209.71 12.7 209.71 12.31V10.69C209.71 10.3 210.01 10 210.4 10H212.08C212.47 10 212.77 9.7 212.77 9.31V7.69Z" fill="white"/>
</svg>
