<svg width="509" height="61" viewBox="0 0 509 61" fill="none" xmlns="http://www.w3.org/2000/svg">
<path d="M47.456 8.2C48.34 8.2 49.02 8.88 49.02 9.764V49H42.084V9.764C42.084 8.88 41.404 8.2 40.52 8.2H29.776C28.892 8.2 28.212 8.88 28.212 9.764V49H21.276V9.764C21.276 8.88 20.596 8.2 19.712 8.2H8.968C8.084 8.2 7.404 8.88 7.404 9.764V49H0.468V9.764C0.468 8.88 1.148 8.2 2.032 8.2H5.84C6.724 8.2 7.404 7.52 7.404 6.636V2.964C7.404 2.08 8.084 1.4 8.968 1.4H19.712C20.596 1.4 21.276 2.08 21.276 2.964V6.636C21.276 7.52 21.956 8.2 22.84 8.2H26.648C27.532 8.2 28.212 7.52 28.212 6.636V2.964C28.212 2.08 28.892 1.4 29.776 1.4H40.452C41.336 1.4 42.084 2.08 42.084 2.964V6.636C42.084 7.52 42.764 8.2 43.648 8.2H47.456ZM86.4476 49H77.5396V44.92H77.3356C76.0663 46.6427 74.661 47.912 73.1196 48.728C71.6236 49.544 69.697 49.952 67.3396 49.952C63.5316 49.952 60.5623 48.8187 58.4316 46.552C56.301 44.2853 55.2356 41.2253 55.2356 37.372V14.116H64.4156V35.808C64.4156 40.024 66.3423 42.132 70.1956 42.132C72.3263 42.132 74.0263 41.4067 75.2956 39.956C76.565 38.5053 77.1996 36.6013 77.1996 34.244V14.116H86.4476V49ZM92.5655 49V0.379998H101.814V49H92.5655ZM105.862 20.236V14.116H110.69V3.236H119.734V14.116H125.718V20.236H119.734V38.732C119.734 41.044 120.89 42.2 123.202 42.2L125.922 42.132V48.932C124.517 49.0227 122.59 49.068 120.142 49.068C117.467 49.068 115.223 48.4333 113.41 47.164C111.597 45.8493 110.69 43.696 110.69 40.704V20.236H105.862ZM130.48 49V14.116H139.728V49H130.48ZM130.48 8.676V0.379998H139.728V8.676H130.48ZM145.007 36.148V28.192H163.435V36.148H145.007ZM169.206 1.4H176.142V40.636C176.142 41.52 176.822 42.2 177.706 42.2H202.322C203.206 42.2 203.886 41.52 203.886 40.636V35.4H210.822V40.636C210.822 41.52 210.142 42.2 209.258 42.2H205.45C204.566 42.2 203.886 42.88 203.886 43.764V47.436C203.886 48.32 203.206 49 202.322 49H177.706C176.822 49 176.142 48.32 176.142 47.436V43.764C176.142 42.88 175.462 42.2 174.578 42.2H170.77C169.886 42.2 169.206 41.52 169.206 40.636V1.4ZM239.237 49C238.784 48.4107 238.421 47.1187 238.149 45.124H238.013C237.016 46.62 235.747 47.776 234.205 48.592C232.664 49.408 230.511 49.816 227.745 49.816C224.073 49.816 221.127 48.8867 218.905 47.028C216.684 45.1693 215.573 42.54 215.573 39.14C215.573 35.604 216.797 33.02 219.245 31.388C221.693 29.7107 225.139 28.5547 229.581 27.92C232.845 27.4667 235.067 27.0133 236.245 26.56C237.424 26.0613 238.013 25.2 238.013 23.976C238.013 22.7067 237.515 21.7093 236.517 20.984C235.52 20.2133 234.069 19.828 232.165 19.828C227.949 19.828 225.705 21.46 225.433 24.724H217.205C217.341 21.4147 218.679 18.672 221.217 16.496C223.756 14.32 227.428 13.232 232.233 13.232C242.025 13.232 246.921 17.516 246.921 26.084V43.832C246.921 46.4613 247.329 48.0707 248.145 48.66V49H239.237ZM229.989 43.356C232.528 43.356 234.523 42.6987 235.973 41.384C237.469 40.0693 238.217 38.5053 238.217 36.692V31.456C237.22 32.0453 235.067 32.7253 231.757 33.496C229.128 34.0853 227.269 34.7653 226.181 35.536C225.093 36.2613 224.549 37.3947 224.549 38.936C224.549 41.8827 226.363 43.356 229.989 43.356ZM253.217 60.424V53.148H256.481C259.926 53.148 261.649 51.5613 261.649 48.388C261.649 46.8467 260.765 43.696 258.997 38.936L249.613 14.116H259.337L264.505 29.824L266.749 37.44H266.885C267.519 34.4933 268.199 31.9547 268.925 29.824L273.821 14.116H283.137L270.965 49.884C269.605 53.8733 268.063 56.616 266.341 58.112C264.663 59.6533 262.102 60.424 258.657 60.424H253.217ZM301.661 50.02C296.04 50.02 291.62 48.2973 288.401 44.852C285.183 41.3613 283.573 36.9187 283.573 31.524C283.573 26.3107 285.183 21.9587 288.401 18.468C291.62 14.932 295.745 13.164 300.777 13.164C306.263 13.164 310.501 15.068 313.493 18.876C316.485 22.684 317.981 27.784 317.981 34.176H292.685C293.048 36.9413 293.977 39.0947 295.473 40.636C296.969 42.132 299.009 42.88 301.593 42.88C304.993 42.88 307.237 41.452 308.325 38.596H317.437C316.757 41.86 315.035 44.58 312.269 46.756C309.504 48.932 305.968 50.02 301.661 50.02ZM300.913 20.304C296.425 20.304 293.728 22.7973 292.821 27.784H308.325C308.189 25.5627 307.441 23.772 306.081 22.412C304.721 21.0067 302.999 20.304 300.913 20.304ZM331.17 14.116V19.692H331.374C332.462 17.652 333.663 16.156 334.978 15.204C336.292 14.2067 337.947 13.708 339.942 13.708C340.894 13.708 341.619 13.7987 342.118 13.98V22.072H341.914C338.786 21.7547 336.27 22.4347 334.366 24.112C332.462 25.7893 331.51 28.4187 331.51 32V49H322.262V14.116H331.17ZM373.775 21.8C374.659 21.8 375.339 22.48 375.339 23.364V27.036C375.339 27.92 376.019 28.6 376.903 28.6H380.711C381.595 28.6 382.275 29.28 382.275 30.164V49H375.339V30.164C375.339 29.28 374.659 28.6 373.775 28.6H366.499C365.615 28.6 364.935 27.92 364.935 27.036V23.364C364.935 22.48 364.255 21.8 363.371 21.8H359.563C358.679 21.8 357.999 21.12 357.999 20.236V1.4H364.935V20.236C364.935 21.12 365.615 21.8 366.499 21.8H373.775ZM382.275 28.6V21.8H391.115C391.999 21.8 392.679 21.12 392.679 20.236V1.4H399.615V20.236C399.615 21.12 398.935 21.8 398.051 21.8H394.243C393.359 21.8 392.679 22.48 392.679 23.364V27.036C392.679 27.92 391.999 28.6 391.115 28.6H382.275ZM406.066 49V14.116H415.314V49H406.066ZM406.066 8.676V0.379998H415.314V8.676H406.066ZM437.661 50.02C432.04 50.02 427.62 48.2973 424.401 44.852C421.183 41.3613 419.573 36.9187 419.573 31.524C419.573 26.3107 421.183 21.9587 424.401 18.468C427.62 14.932 431.745 13.164 436.777 13.164C442.263 13.164 446.501 15.068 449.493 18.876C452.485 22.684 453.981 27.784 453.981 34.176H428.685C429.048 36.9413 429.977 39.0947 431.473 40.636C432.969 42.132 435.009 42.88 437.593 42.88C440.993 42.88 443.237 41.452 444.325 38.596H453.437C452.757 41.86 451.035 44.58 448.269 46.756C445.504 48.932 441.968 50.02 437.661 50.02ZM436.913 20.304C432.425 20.304 429.728 22.7973 428.821 27.784H444.325C444.189 25.5627 443.441 23.772 442.081 22.412C440.721 21.0067 438.999 20.304 436.913 20.304ZM458.398 49V0.379998H467.646V49H458.398ZM508.89 40.636C508.89 41.52 508.21 42.2 507.326 42.2H503.518C502.634 42.2 501.954 42.88 501.954 43.764V47.436C501.954 48.32 501.274 49 500.39 49H482.71C481.826 49 481.146 48.32 481.146 47.436V43.764C481.146 42.88 480.466 42.2 479.582 42.2H475.774C474.89 42.2 474.21 41.52 474.21 40.636V23.364C474.21 22.48 474.89 21.8 475.774 21.8H479.582C480.466 21.8 481.146 21.12 481.146 20.236V16.564C481.146 15.68 481.826 15 482.71 15H498.486V21.8H482.71C481.826 21.8 481.146 22.48 481.146 23.364V40.636C481.146 41.52 481.826 42.2 482.71 42.2H500.39C501.274 42.2 501.954 41.52 501.954 40.636V1.4H508.89V40.636Z" fill="white"/>
</svg>
