<svg width="1137" height="439" viewBox="0 0 1137 439" fill="none" xmlns="http://www.w3.org/2000/svg">
<path d="M641.958 267.523C623.263 316.615 548.751 416.494 400.264 423.273C350.769 427.039 234.266 408.505 164.219 304.242" stroke="#32C6A1" stroke-width="2.42098"/>
<path d="M286.477 160.591C287.015 135.843 301.971 82.313 357.492 66.1731C389.503 56.3547 459.092 59.1523 481.365 148.89" stroke="#32C6A1" stroke-width="2.42098"/>
<path d="M137.195 216.688H209.018" stroke="#32C6A1" stroke-width="2.42098"/>
<path d="M362.336 216.688H434.158" stroke="#32C6A1" stroke-width="2.42098"/>
<path d="M515.664 217.086H576.189" stroke="#32C6A1" stroke-width="2.42098"/>
<path d="M632.678 213.444L626.222 202.953L619.766 213.444L626.222 217.479L632.678 213.444Z" stroke="#4AA3FF" stroke-width="0.806993"/>
<path d="M626.223 221.519L635.1 216.273C637.682 219.824 637.252 223.94 636.714 225.554C635.423 230.719 631.065 232.548 629.048 232.817C623.883 234.108 619.633 231.203 618.153 229.589C613.957 224.101 615.866 218.425 617.346 216.273L626.223 221.519Z" fill="#4AA3FF"/>
<path d="M501.535 221.109L482.571 232.407V247.74L501.535 221.109Z" fill="#6B7090"/>
<path d="M482.571 232.407L463.203 221.109L482.571 247.74V232.407Z" fill="#8C93AD"/>
<path d="M482.571 232.407L463.203 221.109L482.571 247.74M482.571 232.407L501.535 221.109L482.571 247.74M482.571 232.407V247.74" stroke="black" stroke-width="0.0806993"/>
<path fill-rule="evenodd" clip-rule="evenodd" d="M482.162 185.203L463.602 217.079L482.162 208.202V185.203ZM501.639 216.604L501.934 217.079L482.162 228.377L502.741 217.079L501.639 216.604Z" fill="#747998"/>
<path d="M482.162 185.203V208.202L501.639 216.604L482.162 185.203Z" fill="#747998"/>
<path d="M463.602 217.079L482.162 228.377V208.202L463.602 217.079Z" fill="#5D638A"/>
<path d="M482.162 228.377L501.934 217.079L501.639 216.604L482.162 208.202V228.377Z" fill="#5C6289"/>
<path d="M482.162 185.203L463.602 217.079M482.162 185.203V208.202M482.162 185.203L501.639 216.604M482.162 228.377L501.934 217.079L501.639 216.604M482.162 228.377L463.602 217.079M482.162 228.377L502.741 217.079L501.639 216.604M482.162 228.377V208.202M463.602 217.079L482.162 208.202M482.162 208.202L501.639 216.604" stroke="black" stroke-width="0.0806993"/>
<ellipse cx="67.7815" cy="296.957" rx="27.4378" ry="4.03496" fill="#FFEA29"/>
<path d="M40.3438 301V308.263C65.8447 315.042 87.5528 311.087 95.2193 308.263V301C70.6867 308.102 48.4137 303.959 40.3438 301Z" fill="#FFEA29"/>
<path d="M40.3438 310.68V319.733C65.8447 328.183 87.5528 323.254 95.2193 319.733V310.68C70.6867 319.532 48.4137 314.368 40.3438 310.68Z" fill="#FFEA29"/>
<path d="M40.3438 321.992V331.046C65.8447 339.495 87.5528 334.566 95.2193 331.046V321.992C70.6867 330.844 48.4137 325.681 40.3438 321.992Z" fill="#FFEA29"/>
<path d="M57.2821 285.669C58.5733 284.055 64.814 274.774 67.773 270.336C67.773 272.273 74.7674 281.365 78.2645 285.669C79.8785 287.606 80.82 290.78 81.089 292.125C81.4118 300.195 76.1126 304.633 73.4226 305.844C65.3527 308.426 60.1068 305.306 58.4926 303.423C51.0682 296.321 54.5921 288.628 57.2821 285.669Z" fill="#ADE8D9" stroke="white" stroke-width="4.03496"/>
<circle cx="163.002" cy="305.853" r="8.87692" fill="#32C6A1"/>
<circle cx="434.166" cy="217.088" r="8.87692" fill="#32C6A1"/>
<circle cx="576.197" cy="217.088" r="8.87692" fill="#32C6A1"/>
<circle cx="481.768" cy="151.721" r="8.87692" fill="#32C6A1"/>
<rect y="177.539" width="141.224" height="79.8923" rx="39.9461" fill="#32C6A1"/>
<path d="M57.2545 224.006C55.4727 224.006 54.1169 223.606 53.1873 222.805C52.2576 221.992 51.7928 220.83 51.7928 219.319V209.925H54.6011V219.319C54.6011 220.946 55.4662 221.759 57.1964 221.759C58.0615 221.759 58.7135 221.533 59.1525 221.081C59.5916 220.629 59.8111 220.029 59.8111 219.28V209.925H62.6194V219.319C62.6194 220.817 62.161 221.972 61.2443 222.786C60.3404 223.599 59.0105 224.006 57.2545 224.006ZM68.4535 224.064C67.0332 224.064 65.9228 223.754 65.1222 223.134C64.3217 222.502 63.8827 221.643 63.8052 220.558H66.2456C66.4134 221.656 67.1365 222.205 68.4148 222.205C68.9958 222.205 69.4412 222.101 69.7511 221.895C70.0739 221.688 70.2353 221.411 70.2353 221.062C70.2353 220.933 70.2095 220.817 70.1579 220.713C70.1191 220.61 70.0417 220.52 69.9254 220.442C69.8221 220.352 69.7253 220.281 69.6349 220.229C69.5575 220.177 69.4154 220.126 69.2088 220.074C69.0022 220.023 68.8408 219.984 68.7246 219.958C68.6213 219.932 68.4341 219.9 68.163 219.861C67.9047 219.809 67.724 219.771 67.6207 219.745C67.0784 219.642 66.6329 219.538 66.2843 219.435C65.9486 219.319 65.5935 219.157 65.2191 218.951C64.8446 218.731 64.5606 218.441 64.3669 218.079C64.1861 217.705 64.0957 217.259 64.0957 216.743C64.0957 215.71 64.4702 214.922 65.2191 214.38C65.9809 213.838 66.9557 213.567 68.1436 213.567C69.4219 213.567 70.4226 213.864 71.1456 214.458C71.8816 215.039 72.3012 215.839 72.4045 216.859H70.0223C69.919 215.891 69.2798 215.407 68.1049 215.407C67.5755 215.407 67.1558 215.503 66.846 215.697C66.549 215.891 66.4005 216.162 66.4005 216.511C66.4005 216.627 66.4199 216.736 66.4586 216.84C66.5103 216.93 66.5877 217.014 66.691 217.092C66.8072 217.156 66.917 217.214 67.0203 217.266C67.1236 217.305 67.2721 217.35 67.4657 217.401C67.6594 217.44 67.8273 217.479 67.9693 217.518C68.1113 217.543 68.305 217.582 68.5503 217.634C68.7957 217.673 68.9893 217.705 69.1314 217.731C69.5445 217.821 69.8803 217.905 70.1385 217.982C70.4096 218.047 70.7195 218.163 71.0681 218.331C71.4168 218.486 71.6879 218.667 71.8816 218.873C72.0882 219.067 72.2625 219.338 72.4045 219.687C72.5595 220.023 72.6369 220.416 72.6369 220.868C72.6369 221.85 72.2496 222.631 71.4749 223.212C70.7131 223.78 69.7059 224.064 68.4535 224.064ZM78.5874 224.064C76.9863 224.064 75.7274 223.573 74.8107 222.592C73.8939 221.598 73.4356 220.332 73.4356 218.796C73.4356 217.311 73.8939 216.071 74.8107 215.077C75.7274 214.07 76.9024 213.567 78.3356 213.567C79.898 213.567 81.1052 214.109 81.9574 215.193C82.8096 216.278 83.2357 217.731 83.2357 219.551H76.0308C76.1341 220.339 76.3988 220.952 76.8249 221.391C77.251 221.817 77.8321 222.03 78.568 222.03C79.5364 222.03 80.1756 221.624 80.4854 220.81H83.0807C82.8871 221.74 82.3964 222.515 81.6088 223.134C80.8212 223.754 79.814 224.064 78.5874 224.064ZM78.3744 215.6C77.0961 215.6 76.3278 216.31 76.0696 217.731H80.4854C80.4467 217.098 80.2337 216.588 79.8463 216.201C79.459 215.8 78.9683 215.6 78.3744 215.6ZM86.992 213.838V215.426H87.0501C87.36 214.845 87.7021 214.419 88.0766 214.148C88.451 213.864 88.9223 213.722 89.4904 213.722C89.7616 213.722 89.9682 213.747 90.1102 213.799V216.104H90.0521C89.1612 216.013 88.4446 216.207 87.9023 216.685C87.36 217.163 87.0888 217.911 87.0888 218.931V223.773H84.4548V213.838H86.992Z" fill="white"/>
<rect x="203.352" y="177.539" width="167.854" height="79.8923" rx="39.9461" fill="#676868"/>
<path d="M255.261 223.773V209.925H260.664C262.498 209.925 263.97 210.59 265.08 211.92C266.19 213.237 266.746 214.929 266.746 216.995C266.746 219.383 266.01 221.198 264.538 222.437C263.466 223.328 262.097 223.773 260.432 223.773H255.261ZM258.069 221.352H260.238C261.516 221.352 262.446 220.984 263.027 220.248C263.608 219.5 263.899 218.415 263.899 216.995C263.899 215.574 263.589 214.445 262.969 213.605C262.362 212.753 261.478 212.327 260.316 212.327H258.069V221.352ZM272.728 224.064C271.127 224.064 269.868 223.573 268.951 222.592C268.034 221.598 267.576 220.332 267.576 218.796C267.576 217.311 268.034 216.071 268.951 215.077C269.868 214.07 271.043 213.567 272.476 213.567C274.038 213.567 275.246 214.109 276.098 215.193C276.95 216.278 277.376 217.731 277.376 219.551H270.171C270.275 220.339 270.539 220.952 270.965 221.391C271.392 221.817 271.973 222.03 272.709 222.03C273.677 222.03 274.316 221.624 274.626 220.81H277.221C277.028 221.74 276.537 222.515 275.749 223.134C274.962 223.754 273.955 224.064 272.728 224.064ZM272.515 215.6C271.237 215.6 270.468 216.31 270.21 217.731H274.626C274.587 217.098 274.374 216.588 273.987 216.201C273.599 215.8 273.109 215.6 272.515 215.6ZM278.595 227.027V213.838H281.132V215.077H281.191C281.927 214.07 282.901 213.567 284.115 213.567C285.419 213.567 286.465 214.051 287.253 215.019C288.04 215.988 288.434 217.253 288.434 218.815C288.434 220.416 288.04 221.695 287.253 222.65C286.465 223.593 285.426 224.064 284.134 224.064C282.843 224.064 281.888 223.593 281.268 222.65H281.229V227.027H278.595ZM283.573 221.875C284.244 221.875 284.774 221.611 285.161 221.081C285.561 220.552 285.761 219.822 285.761 218.893C285.761 217.899 285.574 217.117 285.2 216.549C284.825 215.981 284.251 215.697 283.476 215.697C282.688 215.697 282.107 215.994 281.733 216.588C281.358 217.169 281.171 217.937 281.171 218.893C281.171 219.809 281.378 220.539 281.791 221.081C282.204 221.611 282.798 221.875 283.573 221.875ZM298.104 222.573C297.136 223.567 295.89 224.064 294.366 224.064C292.843 224.064 291.597 223.567 290.628 222.573C289.66 221.566 289.176 220.313 289.176 218.815C289.176 217.317 289.66 216.071 290.628 215.077C291.597 214.07 292.843 213.567 294.366 213.567C295.89 213.567 297.136 214.07 298.104 215.077C299.073 216.071 299.557 217.317 299.557 218.815C299.557 220.313 299.073 221.566 298.104 222.573ZM294.366 222.05C295.154 222.05 295.767 221.759 296.206 221.178C296.658 220.584 296.884 219.797 296.884 218.815C296.884 217.834 296.658 217.046 296.206 216.452C295.767 215.858 295.154 215.561 294.366 215.561C293.566 215.561 292.946 215.858 292.507 216.452C292.068 217.033 291.848 217.821 291.848 218.815C291.848 219.797 292.068 220.584 292.507 221.178C292.946 221.759 293.566 222.05 294.366 222.05ZM304.81 224.064C303.389 224.064 302.279 223.754 301.479 223.134C300.678 222.502 300.239 221.643 300.162 220.558H302.602C302.77 221.656 303.493 222.205 304.771 222.205C305.352 222.205 305.798 222.101 306.107 221.895C306.43 221.688 306.592 221.411 306.592 221.062C306.592 220.933 306.566 220.817 306.514 220.713C306.475 220.61 306.398 220.52 306.282 220.442C306.178 220.352 306.082 220.281 305.991 220.229C305.914 220.177 305.772 220.126 305.565 220.074C305.359 220.023 305.197 219.984 305.081 219.958C304.978 219.932 304.79 219.9 304.519 219.861C304.261 219.809 304.08 219.771 303.977 219.745C303.435 219.642 302.989 219.538 302.641 219.435C302.305 219.319 301.95 219.157 301.575 218.951C301.201 218.731 300.917 218.441 300.723 218.079C300.542 217.705 300.452 217.259 300.452 216.743C300.452 215.71 300.826 214.922 301.575 214.38C302.337 213.838 303.312 213.567 304.5 213.567C305.778 213.567 306.779 213.864 307.502 214.458C308.238 215.039 308.658 215.839 308.761 216.859H306.379C306.275 215.891 305.636 215.407 304.461 215.407C303.932 215.407 303.512 215.503 303.202 215.697C302.905 215.891 302.757 216.162 302.757 216.511C302.757 216.627 302.776 216.736 302.815 216.84C302.867 216.93 302.944 217.014 303.047 217.092C303.164 217.156 303.273 217.214 303.377 217.266C303.48 217.305 303.628 217.35 303.822 217.401C304.016 217.44 304.184 217.479 304.326 217.518C304.468 217.543 304.661 217.582 304.907 217.634C305.152 217.673 305.346 217.705 305.488 217.731C305.901 217.821 306.237 217.905 306.495 217.982C306.766 218.047 307.076 218.163 307.424 218.331C307.773 218.486 308.044 218.667 308.238 218.873C308.444 219.067 308.619 219.338 308.761 219.687C308.916 220.023 308.993 220.416 308.993 220.868C308.993 221.85 308.606 222.631 307.831 223.212C307.069 223.78 306.062 224.064 304.81 224.064ZM310.181 223.773V213.838H312.816V223.773H310.181ZM310.181 212.288V209.925H312.816V212.288H310.181ZM313.932 215.581V213.838H315.307V210.739H317.883V213.838H319.587V215.581H317.883V220.849C317.883 221.507 318.212 221.837 318.871 221.837L319.645 221.817V223.754C319.245 223.78 318.696 223.793 317.999 223.793C317.237 223.793 316.598 223.612 316.082 223.251C315.565 222.876 315.307 222.263 315.307 221.411V215.581H313.932Z" fill="white"/>
<path d="M884.467 35.9062H816.68V397.842H882.046" stroke="#32C6A1" stroke-width="2.42098"/>
<path d="M882.048 217.891L744.859 217.891" stroke="#32C6A1" stroke-width="2.42098"/>
<circle cx="884.471" cy="36.3144" r="8.87692" fill="#32C6A1"/>
<circle cx="884.471" cy="219.494" r="8.87692" fill="#32C6A1"/>
<circle cx="884.471" cy="397.853" r="8.87692" fill="#32C6A1"/>
<rect x="914.32" width="221.923" height="79.8923" rx="39.9461" fill="#32C6A1"/>
<path d="M945.718 45.7456V43.7314L950.831 37.9404V37.8823H946.299V35.8099H953.891V37.921L948.895 43.5764V43.6345H954.143V45.7456H945.718ZM961.994 45.7456L959.205 41.2135L958.062 42.395V45.7456H955.448V31.8976H958.062V39.5673L961.587 35.8099H964.744L961.084 39.5866L965.19 45.7456H961.994ZM966.234 45.7456V31.8976H969.042V43.4021H975.55V45.7456H966.234ZM976.934 45.7456V35.8099H979.568V45.7456H976.934ZM976.934 34.2605V31.8976H979.568V34.2605H976.934ZM983.841 35.8099V37.1657H983.899C984.584 36.0811 985.565 35.5388 986.843 35.5388C987.863 35.5388 988.689 35.8874 989.322 36.5846C989.955 37.269 990.271 38.1599 990.271 39.2574V45.7456H987.637V39.6447C987.637 39.1024 987.482 38.6634 987.172 38.3277C986.875 37.992 986.456 37.8242 985.913 37.8242C985.332 37.8242 984.848 38.0372 984.461 38.4633C984.086 38.8894 983.899 39.4382 983.899 40.1096V45.7456H981.265V35.8099H983.841ZM998.441 45.7456L995.652 41.2135L994.509 42.395V45.7456H991.895V31.8976H994.509V39.5673L998.034 35.8099H1001.19L997.531 39.5866L1001.64 45.7456H998.441ZM1006.21 46.0361C1004.79 46.0361 1003.68 45.7262 1002.88 45.1065C1002.08 44.4738 1001.64 43.6151 1001.56 42.5305H1004C1004.17 43.6281 1004.9 44.1768 1006.17 44.1768C1006.75 44.1768 1007.2 44.0735 1007.51 43.8669C1007.83 43.6603 1007.99 43.3827 1007.99 43.0341C1007.99 42.905 1007.97 42.7888 1007.92 42.6855C1007.88 42.5822 1007.8 42.4918 1007.68 42.4143C1007.58 42.324 1007.48 42.2529 1007.39 42.2013C1007.32 42.1496 1007.17 42.098 1006.97 42.0464C1006.76 41.9947 1006.6 41.956 1006.48 41.9301C1006.38 41.9043 1006.19 41.872 1005.92 41.8333C1005.66 41.7817 1005.48 41.7429 1005.38 41.7171C1004.84 41.6138 1004.39 41.5105 1004.04 41.4072C1003.71 41.291 1003.35 41.1296 1002.98 40.923C1002.6 40.7035 1002.32 40.413 1002.13 40.0515C1001.95 39.677 1001.85 39.2316 1001.85 38.7151C1001.85 37.6821 1002.23 36.8945 1002.98 36.3522C1003.74 35.8099 1004.71 35.5388 1005.9 35.5388C1007.18 35.5388 1008.18 35.8357 1008.9 36.4297C1009.64 37.0107 1010.06 37.8113 1010.16 38.8313H1007.78C1007.68 37.8629 1007.04 37.3787 1005.86 37.3787C1005.33 37.3787 1004.91 37.4755 1004.6 37.6692C1004.31 37.8629 1004.16 38.1341 1004.16 38.4827C1004.16 38.5989 1004.18 38.7086 1004.22 38.8119C1004.27 38.9023 1004.35 38.9862 1004.45 39.0637C1004.57 39.1283 1004.68 39.1864 1004.78 39.238C1004.88 39.2768 1005.03 39.3219 1005.22 39.3736C1005.42 39.4123 1005.59 39.4511 1005.73 39.4898C1005.87 39.5156 1006.06 39.5544 1006.31 39.606C1006.55 39.6447 1006.75 39.677 1006.89 39.7028C1007.3 39.7932 1007.64 39.8772 1007.9 39.9546C1008.17 40.0192 1008.48 40.1354 1008.83 40.3032C1009.18 40.4582 1009.45 40.639 1009.64 40.8455C1009.85 41.0392 1010.02 41.3104 1010.16 41.659C1010.32 41.9947 1010.4 42.3885 1010.4 42.8404C1010.4 43.8217 1010.01 44.6029 1009.23 45.1839C1008.47 45.7521 1007.46 46.0361 1006.21 46.0361ZM1015.05 45.7456V31.8976H1017.9L1022.51 39.6254C1022.64 39.8449 1022.78 40.116 1022.93 40.4388C1023.1 40.7616 1023.23 41.0328 1023.32 41.2523L1023.48 41.5622H1023.51C1023.46 40.6067 1023.44 39.8061 1023.44 39.1605V31.8976H1026.21V45.7456H1023.49L1018.77 38.0953C1018.64 37.8758 1018.49 37.6111 1018.32 37.3012C1018.16 36.9784 1018.03 36.7073 1017.94 36.4878L1017.78 36.1779H1017.74C1017.79 37.1463 1017.82 37.9533 1017.82 38.5989V45.7456H1015.05ZM1036.56 44.5448C1035.59 45.539 1034.34 46.0361 1032.82 46.0361C1031.3 46.0361 1030.05 45.539 1029.08 44.5448C1028.11 43.5377 1027.63 42.2852 1027.63 40.7874C1027.63 39.2897 1028.11 38.0437 1029.08 37.0495C1030.05 36.0423 1031.3 35.5388 1032.82 35.5388C1034.34 35.5388 1035.59 36.0423 1036.56 37.0495C1037.53 38.0437 1038.01 39.2897 1038.01 40.7874C1038.01 42.2852 1037.53 43.5377 1036.56 44.5448ZM1032.82 44.0219C1033.61 44.0219 1034.22 43.7314 1034.66 43.1503C1035.11 42.5564 1035.34 41.7687 1035.34 40.7874C1035.34 39.8061 1035.11 39.0185 1034.66 38.4246C1034.22 37.8306 1033.61 37.5336 1032.82 37.5336C1032.02 37.5336 1031.4 37.8306 1030.96 38.4246C1030.52 39.0056 1030.3 39.7932 1030.3 40.7874C1030.3 41.7687 1030.52 42.5564 1030.96 43.1503C1031.4 43.7314 1032.02 44.0219 1032.82 44.0219ZM1041.59 45.7456L1038.14 35.8099H1040.81L1042.4 40.9618L1042.85 42.5499H1042.88C1042.97 42.1238 1043.12 41.5944 1043.31 40.9618L1044.94 35.8099H1047.57L1044.1 45.7456H1041.59ZM1054.44 45.7456C1054.31 45.5778 1054.21 45.2098 1054.13 44.6416H1054.09C1053.81 45.0677 1053.44 45.397 1053.01 45.6294C1052.57 45.8618 1051.95 45.978 1051.17 45.978C1050.12 45.978 1049.28 45.7133 1048.65 45.1839C1048.01 44.6546 1047.7 43.9057 1047.7 42.9373C1047.7 41.9301 1048.05 41.1942 1048.74 40.7293C1049.44 40.2516 1050.42 39.9223 1051.69 39.7416C1052.62 39.6125 1053.25 39.4833 1053.59 39.3542C1053.92 39.2122 1054.09 38.9669 1054.09 38.6182C1054.09 38.2567 1053.95 37.9727 1053.66 37.7661C1053.38 37.5466 1052.97 37.4368 1052.42 37.4368C1051.22 37.4368 1050.58 37.9016 1050.51 38.8313H1048.16C1048.2 37.8887 1048.58 37.1076 1049.31 36.4878C1050.03 35.868 1051.07 35.5581 1052.44 35.5581C1055.23 35.5581 1056.63 36.7783 1056.63 39.2186V44.2737C1056.63 45.0225 1056.74 45.4809 1056.98 45.6488V45.7456H1054.44ZM1051.8 44.1381C1052.53 44.1381 1053.1 43.9509 1053.51 43.5764C1053.93 43.202 1054.15 42.7565 1054.15 42.24V40.7487C1053.86 40.9166 1053.25 41.1102 1052.31 41.3297C1051.56 41.4976 1051.03 41.6913 1050.72 41.9108C1050.41 42.1174 1050.25 42.4402 1050.25 42.8792C1050.25 43.7184 1050.77 44.1381 1051.8 44.1381ZM1061.77 45.7456V31.8976H1067.85C1069.42 31.8976 1070.63 32.3302 1071.47 33.1953C1072.3 34.0474 1072.71 35.0998 1072.71 36.3522C1072.71 37.6692 1072.3 38.728 1071.47 39.5285C1070.64 40.3291 1069.51 40.7293 1068.08 40.7293H1064.67V45.7456H1061.77ZM1064.67 34.338V38.4439H1067.58C1068.3 38.4439 1068.86 38.2632 1069.24 37.9016C1069.63 37.5272 1069.82 37.0172 1069.82 36.3716C1069.82 35.726 1069.63 35.2289 1069.24 34.8803C1068.86 34.5187 1068.31 34.338 1067.62 34.338H1064.67ZM1082.05 44.5448C1081.08 45.539 1079.83 46.0361 1078.31 46.0361C1076.79 46.0361 1075.54 45.539 1074.57 44.5448C1073.6 43.5377 1073.12 42.2852 1073.12 40.7874C1073.12 39.2897 1073.6 38.0437 1074.57 37.0495C1075.54 36.0423 1076.79 35.5388 1078.31 35.5388C1079.83 35.5388 1081.08 36.0423 1082.05 37.0495C1083.02 38.0437 1083.5 39.2897 1083.5 40.7874C1083.5 42.2852 1083.02 43.5377 1082.05 44.5448ZM1078.31 44.0219C1079.1 44.0219 1079.71 43.7314 1080.15 43.1503C1080.6 42.5564 1080.83 41.7687 1080.83 40.7874C1080.83 39.8061 1080.6 39.0185 1080.15 38.4246C1079.71 37.8306 1079.1 37.5336 1078.31 37.5336C1077.51 37.5336 1076.89 37.8306 1076.45 38.4246C1076.01 39.0056 1075.79 39.7932 1075.79 40.7874C1075.79 41.7687 1076.01 42.5564 1076.45 43.1503C1076.89 43.7314 1077.51 44.0219 1078.31 44.0219ZM1084.72 45.7456V35.8099H1087.36V45.7456H1084.72ZM1084.72 34.2605V31.8976H1087.36V34.2605H1084.72ZM1091.63 35.8099V37.1657H1091.69C1092.37 36.0811 1093.36 35.5388 1094.63 35.5388C1095.65 35.5388 1096.48 35.8874 1097.11 36.5846C1097.75 37.269 1098.06 38.1599 1098.06 39.2574V45.7456H1095.43V39.6447C1095.43 39.1024 1095.27 38.6634 1094.96 38.3277C1094.67 37.992 1094.25 37.8242 1093.7 37.8242C1093.12 37.8242 1092.64 38.0372 1092.25 38.4633C1091.88 38.8894 1091.69 39.4382 1091.69 40.1096V45.7456H1089.06V35.8099H1091.63ZM1098.91 37.553V35.8099H1100.29V32.7111H1102.87V35.8099H1104.57V37.553H1102.87V42.8211C1102.87 43.4796 1103.2 43.8088 1103.85 43.8088L1104.63 43.7895V45.7262C1104.23 45.7521 1103.68 45.765 1102.98 45.765C1102.22 45.765 1101.58 45.5842 1101.06 45.2227C1100.55 44.8482 1100.29 44.2349 1100.29 43.3827V37.553H1098.91ZM1110.05 46.0361C1108.63 46.0361 1107.52 45.7262 1106.72 45.1065C1105.92 44.4738 1105.48 43.6151 1105.4 42.5305H1107.84C1108.01 43.6281 1108.73 44.1768 1110.01 44.1768C1110.59 44.1768 1111.04 44.0735 1111.35 43.8669C1111.67 43.6603 1111.83 43.3827 1111.83 43.0341C1111.83 42.905 1111.81 42.7888 1111.75 42.6855C1111.72 42.5822 1111.64 42.4918 1111.52 42.4143C1111.42 42.324 1111.32 42.2529 1111.23 42.2013C1111.15 42.1496 1111.01 42.098 1110.81 42.0464C1110.6 41.9947 1110.44 41.956 1110.32 41.9301C1110.22 41.9043 1110.03 41.872 1109.76 41.8333C1109.5 41.7817 1109.32 41.7429 1109.22 41.7171C1108.67 41.6138 1108.23 41.5105 1107.88 41.4072C1107.54 41.291 1107.19 41.1296 1106.82 40.923C1106.44 40.7035 1106.16 40.413 1105.96 40.0515C1105.78 39.677 1105.69 39.2316 1105.69 38.7151C1105.69 37.6821 1106.07 36.8945 1106.82 36.3522C1107.58 35.8099 1108.55 35.5388 1109.74 35.5388C1111.02 35.5388 1112.02 35.8357 1112.74 36.4297C1113.48 37.0107 1113.9 37.8113 1114 38.8313H1111.62C1111.52 37.8629 1110.88 37.3787 1109.7 37.3787C1109.17 37.3787 1108.75 37.4755 1108.44 37.6692C1108.15 37.8629 1108 38.1341 1108 38.4827C1108 38.5989 1108.02 38.7086 1108.05 38.8119C1108.11 38.9023 1108.18 38.9862 1108.29 39.0637C1108.4 39.1283 1108.51 39.1864 1108.62 39.238C1108.72 39.2768 1108.87 39.3219 1109.06 39.3736C1109.26 39.4123 1109.42 39.4511 1109.57 39.4898C1109.71 39.5156 1109.9 39.5544 1110.15 39.606C1110.39 39.6447 1110.59 39.677 1110.73 39.7028C1111.14 39.7932 1111.48 39.8772 1111.73 39.9546C1112.01 40.0192 1112.32 40.1354 1112.66 40.3032C1113.01 40.4582 1113.28 40.639 1113.48 40.8455C1113.68 41.0392 1113.86 41.3104 1114 41.659C1114.16 41.9947 1114.23 42.3885 1114.23 42.8404C1114.23 43.8217 1113.85 44.6029 1113.07 45.1839C1112.31 45.7521 1111.3 46.0361 1110.05 46.0361Z" fill="white"/>
<rect x="914.32" y="175.914" width="221.923" height="79.8923" rx="39.9461" fill="#32C6A1"/>
<path d="M949.612 222.269V208.421H952.42V219.926H958.928V222.269H949.612ZM960.431 222.269V208.421H966.783C968.113 208.421 969.185 208.776 969.999 209.486C970.825 210.196 971.238 211.126 971.238 212.275C971.238 214.044 970.392 215.161 968.701 215.626V215.684C969.359 215.878 969.85 216.188 970.173 216.614C970.509 217.027 970.722 217.647 970.812 218.473C970.838 218.783 970.864 219.151 970.889 219.577C970.928 219.99 970.954 220.319 970.967 220.565C970.993 220.81 971.019 221.055 971.044 221.301C971.083 221.546 971.128 221.74 971.18 221.882C971.245 222.011 971.322 222.095 971.412 222.133V222.269H968.72C968.669 222.243 968.623 222.198 968.585 222.133C968.546 222.056 968.514 221.953 968.488 221.824C968.462 221.694 968.436 221.565 968.41 221.436C968.397 221.294 968.378 221.12 968.352 220.913C968.339 220.694 968.326 220.507 968.314 220.352C968.301 220.184 968.281 219.971 968.255 219.712C968.243 219.441 968.23 219.228 968.217 219.073C968.101 217.498 967.197 216.71 965.505 216.71H963.239V222.269H960.431ZM963.239 210.687V214.541H966.222C966.958 214.541 967.519 214.367 967.907 214.018C968.307 213.67 968.507 213.211 968.507 212.643C968.507 212.062 968.32 211.591 967.946 211.229C967.571 210.868 967.022 210.687 966.299 210.687H963.239ZM972.141 210.784V208.421H983.277V210.784H979.113V222.269H976.305V210.784H972.141ZM987.951 222.269V208.421H994.032C995.607 208.421 996.815 208.854 997.654 209.719C998.48 210.571 998.893 211.623 998.893 212.876C998.893 214.193 998.48 215.251 997.654 216.052C996.827 216.853 995.698 217.253 994.264 217.253H990.856V222.269H987.951ZM990.856 210.861V214.967H993.761C994.484 214.967 995.039 214.787 995.427 214.425C995.814 214.051 996.008 213.541 996.008 212.895C996.008 212.249 995.814 211.752 995.427 211.404C995.039 211.042 994.497 210.861 993.8 210.861H990.856ZM1002.61 212.333V213.922H1002.66C1002.97 213.34 1003.32 212.914 1003.69 212.643C1004.07 212.359 1004.54 212.217 1005.11 212.217C1005.38 212.217 1005.58 212.243 1005.72 212.295V214.599H1005.67C1004.78 214.509 1004.06 214.703 1003.52 215.18C1002.97 215.658 1002.7 216.407 1002.7 217.427V222.269H1000.07V212.333H1002.61ZM1015.02 221.068C1014.05 222.062 1012.81 222.56 1011.28 222.56C1009.76 222.56 1008.51 222.062 1007.54 221.068C1006.58 220.061 1006.09 218.809 1006.09 217.311C1006.09 215.813 1006.58 214.567 1007.54 213.573C1008.51 212.566 1009.76 212.062 1011.28 212.062C1012.81 212.062 1014.05 212.566 1015.02 213.573C1015.99 214.567 1016.47 215.813 1016.47 217.311C1016.47 218.809 1015.99 220.061 1015.02 221.068ZM1011.28 220.545C1012.07 220.545 1012.68 220.255 1013.12 219.674C1013.57 219.08 1013.8 218.292 1013.8 217.311C1013.8 216.33 1013.57 215.542 1013.12 214.948C1012.68 214.354 1012.07 214.057 1011.28 214.057C1010.48 214.057 1009.86 214.354 1009.42 214.948C1008.98 215.529 1008.76 216.317 1008.76 217.311C1008.76 218.292 1008.98 219.08 1009.42 219.674C1009.86 220.255 1010.48 220.545 1011.28 220.545ZM1017.54 225.542C1016.95 225.542 1016.45 225.503 1016.05 225.426V223.547C1016.64 223.534 1017.06 223.463 1017.31 223.334C1017.57 223.218 1017.7 222.947 1017.7 222.521V212.333H1020.33V222.656C1020.33 223.664 1020.11 224.387 1019.67 224.826C1019.21 225.303 1018.5 225.542 1017.54 225.542ZM1017.7 210.784V208.421H1020.33V210.784H1017.7ZM1026.7 222.56C1025.09 222.56 1023.84 222.069 1022.92 221.088C1022 220.093 1021.54 218.828 1021.54 217.292C1021.54 215.807 1022 214.567 1022.92 213.573C1023.84 212.566 1025.01 212.062 1026.44 212.062C1028.01 212.062 1029.21 212.604 1030.07 213.689C1030.92 214.774 1031.34 216.226 1031.34 218.047H1024.14C1024.24 218.834 1024.51 219.448 1024.93 219.887C1025.36 220.313 1025.94 220.526 1026.68 220.526C1027.65 220.526 1028.28 220.119 1028.59 219.306H1031.19C1031 220.235 1030.51 221.01 1029.72 221.63C1028.93 222.25 1027.92 222.56 1026.7 222.56ZM1026.48 214.096C1025.2 214.096 1024.44 214.806 1024.18 216.226H1028.59C1028.56 215.594 1028.34 215.084 1027.95 214.696C1027.57 214.296 1027.08 214.096 1026.48 214.096ZM1037.17 222.56C1035.64 222.56 1034.4 222.062 1033.47 221.068C1032.54 220.074 1032.08 218.822 1032.08 217.311C1032.08 215.8 1032.53 214.548 1033.43 213.554C1034.35 212.559 1035.55 212.062 1037.04 212.062C1038.29 212.062 1039.31 212.391 1040.1 213.05C1040.89 213.708 1041.37 214.593 1041.55 215.703H1038.97C1038.88 215.251 1038.68 214.883 1038.35 214.599C1038.03 214.315 1037.63 214.173 1037.15 214.173C1036.38 214.173 1035.78 214.451 1035.37 215.006C1034.96 215.561 1034.75 216.33 1034.75 217.311C1034.75 218.279 1034.95 219.048 1035.35 219.616C1035.75 220.171 1036.34 220.448 1037.11 220.448C1038.26 220.448 1038.93 219.887 1039.11 218.763H1041.65C1041.56 219.861 1041.11 220.771 1040.31 221.494C1039.51 222.204 1038.46 222.56 1037.17 222.56ZM1042.21 214.076V212.333H1043.59V209.234H1046.17V212.333H1047.87V214.076H1046.17V219.345C1046.17 220.003 1046.5 220.332 1047.15 220.332L1047.93 220.313V222.25C1047.53 222.275 1046.98 222.288 1046.28 222.288C1045.52 222.288 1044.88 222.108 1044.36 221.746C1043.85 221.372 1043.59 220.758 1043.59 219.906V214.076H1042.21ZM1052.69 222.269V208.421H1058.77C1060.35 208.421 1061.56 208.854 1062.4 209.719C1063.22 210.571 1063.64 211.623 1063.64 212.876C1063.64 214.193 1063.22 215.251 1062.4 216.052C1061.57 216.853 1060.44 217.253 1059.01 217.253H1055.6V222.269H1052.69ZM1055.6 210.861V214.967H1058.5C1059.23 214.967 1059.78 214.787 1060.17 214.425C1060.56 214.051 1060.75 213.541 1060.75 212.895C1060.75 212.249 1060.56 211.752 1060.17 211.404C1059.78 211.042 1059.24 210.861 1058.54 210.861H1055.6ZM1072.97 221.068C1072 222.062 1070.76 222.56 1069.23 222.56C1067.71 222.56 1066.46 222.062 1065.5 221.068C1064.53 220.061 1064.04 218.809 1064.04 217.311C1064.04 215.813 1064.53 214.567 1065.5 213.573C1066.46 212.566 1067.71 212.062 1069.23 212.062C1070.76 212.062 1072 212.566 1072.97 213.573C1073.94 214.567 1074.42 215.813 1074.42 217.311C1074.42 218.809 1073.94 220.061 1072.97 221.068ZM1069.23 220.545C1070.02 220.545 1070.64 220.255 1071.07 219.674C1071.53 219.08 1071.75 218.292 1071.75 217.311C1071.75 216.33 1071.53 215.542 1071.07 214.948C1070.64 214.354 1070.02 214.057 1069.23 214.057C1068.43 214.057 1067.81 214.354 1067.37 214.948C1066.94 215.529 1066.72 216.317 1066.72 217.311C1066.72 218.292 1066.94 219.08 1067.37 219.674C1067.81 220.255 1068.43 220.545 1069.23 220.545ZM1075.65 222.269V212.333H1078.28V222.269H1075.65ZM1075.65 210.784V208.421H1078.28V210.784H1075.65ZM1082.56 212.333V213.689H1082.61C1083.3 212.604 1084.28 212.062 1085.56 212.062C1086.58 212.062 1087.4 212.411 1088.04 213.108C1088.67 213.792 1088.99 214.683 1088.99 215.781V222.269H1086.35V216.168C1086.35 215.626 1086.2 215.187 1085.89 214.851C1085.59 214.515 1085.17 214.348 1084.63 214.348C1084.05 214.348 1083.56 214.561 1083.18 214.987C1082.8 215.413 1082.61 215.962 1082.61 216.633V222.269H1079.98V212.333H1082.56ZM1089.84 214.076V212.333H1091.22V209.234H1093.79V212.333H1095.5V214.076H1093.79V219.345C1093.79 220.003 1094.12 220.332 1094.78 220.332L1095.55 220.313V222.25C1095.15 222.275 1094.6 222.288 1093.91 222.288C1093.15 222.288 1092.51 222.108 1091.99 221.746C1091.47 221.372 1091.22 220.758 1091.22 219.906V214.076H1089.84ZM1100.97 222.56C1099.55 222.56 1098.44 222.25 1097.64 221.63C1096.84 220.997 1096.4 220.139 1096.33 219.054H1098.77C1098.93 220.151 1099.66 220.7 1100.94 220.7C1101.52 220.7 1101.96 220.597 1102.27 220.39C1102.6 220.184 1102.76 219.906 1102.76 219.558C1102.76 219.428 1102.73 219.312 1102.68 219.209C1102.64 219.106 1102.56 219.015 1102.45 218.938C1102.34 218.847 1102.25 218.776 1102.16 218.725C1102.08 218.673 1101.94 218.621 1101.73 218.57C1101.52 218.518 1101.36 218.479 1101.25 218.454C1101.14 218.428 1100.96 218.395 1100.68 218.357C1100.43 218.305 1100.25 218.266 1100.14 218.241C1099.6 218.137 1099.15 218.034 1098.81 217.931C1098.47 217.814 1098.11 217.653 1097.74 217.446C1097.37 217.227 1097.08 216.936 1096.89 216.575C1096.71 216.2 1096.62 215.755 1096.62 215.239C1096.62 214.206 1096.99 213.418 1097.74 212.876C1098.5 212.333 1099.48 212.062 1100.66 212.062C1101.94 212.062 1102.94 212.359 1103.67 212.953C1104.4 213.534 1104.82 214.335 1104.93 215.355H1102.54C1102.44 214.386 1101.8 213.902 1100.63 213.902C1100.1 213.902 1099.68 213.999 1099.37 214.193C1099.07 214.386 1098.92 214.657 1098.92 215.006C1098.92 215.122 1098.94 215.232 1098.98 215.335C1099.03 215.426 1099.11 215.51 1099.21 215.587C1099.33 215.652 1099.44 215.71 1099.54 215.761C1099.64 215.8 1099.79 215.845 1099.99 215.897C1100.18 215.936 1100.35 215.974 1100.49 216.013C1100.63 216.039 1100.83 216.078 1101.07 216.129C1101.32 216.168 1101.51 216.2 1101.65 216.226C1102.07 216.317 1102.4 216.401 1102.66 216.478C1102.93 216.543 1103.24 216.659 1103.59 216.827C1103.94 216.982 1104.21 217.162 1104.4 217.369C1104.61 217.563 1104.78 217.834 1104.93 218.182C1105.08 218.518 1105.16 218.912 1105.16 219.364C1105.16 220.345 1104.77 221.126 1104 221.707C1103.23 222.275 1102.23 222.56 1100.97 222.56Z" fill="white"/>
<rect x="914.32" y="359.109" width="221.923" height="79.8923" rx="39.9461" fill="#32C6A1"/>
<path d="M947.378 405.503V391.655H950.186V403.16H956.694V405.503H947.378ZM963.372 405.813C961.5 405.813 960.047 405.419 959.014 404.632C957.982 403.831 957.439 402.695 957.388 401.223H960.138C960.228 402.049 960.519 402.643 961.009 403.005C961.513 403.367 962.262 403.547 963.256 403.547C964.044 403.547 964.689 403.405 965.193 403.121C965.696 402.824 965.948 402.372 965.948 401.765C965.948 401.546 965.916 401.352 965.851 401.184C965.8 401.004 965.683 400.849 965.503 400.72C965.322 400.578 965.167 400.468 965.038 400.39C964.909 400.3 964.67 400.21 964.321 400.119C963.973 400.016 963.708 399.945 963.527 399.906C963.346 399.854 963.011 399.771 962.52 399.654C961.926 399.512 961.435 399.39 961.048 399.286C960.674 399.183 960.254 399.022 959.789 398.802C959.337 398.583 958.976 398.344 958.705 398.086C958.446 397.814 958.227 397.466 958.046 397.04C957.865 396.601 957.775 396.104 957.775 395.548C957.775 394.218 958.259 393.198 959.228 392.488C960.209 391.765 961.494 391.404 963.082 391.404C964.657 391.404 965.916 391.778 966.858 392.527C967.801 393.276 968.324 394.341 968.427 395.723H965.735C965.658 395.051 965.374 394.535 964.883 394.173C964.405 393.812 963.798 393.631 963.062 393.631C962.301 393.631 961.694 393.779 961.242 394.076C960.79 394.373 960.564 394.767 960.564 395.258C960.564 395.787 960.783 396.175 961.222 396.42C961.674 396.665 962.462 396.911 963.585 397.156C964.257 397.298 964.805 397.433 965.232 397.563C965.658 397.679 966.116 397.853 966.607 398.086C967.11 398.305 967.498 398.55 967.769 398.822C968.053 399.093 968.285 399.454 968.466 399.906C968.66 400.345 968.756 400.855 968.756 401.436C968.756 402.805 968.259 403.877 967.265 404.651C966.271 405.426 964.973 405.813 963.372 405.813ZM970.434 405.503V391.655H975.837C977.671 391.655 979.143 392.32 980.253 393.65C981.364 394.967 981.919 396.659 981.919 398.725C981.919 401.113 981.183 402.927 979.711 404.167C978.639 405.058 977.271 405.503 975.605 405.503H970.434ZM973.242 403.082H975.411C976.69 403.082 977.619 402.714 978.2 401.978C978.781 401.23 979.072 400.145 979.072 398.725C979.072 397.304 978.762 396.175 978.142 395.335C977.535 394.483 976.651 394.057 975.489 394.057H973.242V403.082ZM986.7 405.503V391.655H992.781C994.356 391.655 995.564 392.088 996.403 392.953C997.229 393.805 997.643 394.858 997.643 396.11C997.643 397.427 997.229 398.486 996.403 399.286C995.577 400.087 994.447 400.487 993.014 400.487H989.605V405.503H986.7ZM989.605 394.096V398.202H992.51C993.233 398.202 993.788 398.021 994.176 397.659C994.563 397.285 994.757 396.775 994.757 396.129C994.757 395.484 994.563 394.987 994.176 394.638C993.788 394.277 993.246 394.096 992.549 394.096H989.605ZM1001.36 395.568V397.156H1001.41C1001.72 396.575 1002.07 396.149 1002.44 395.878C1002.81 395.594 1003.29 395.452 1003.85 395.452C1004.13 395.452 1004.33 395.477 1004.47 395.529V397.834H1004.42C1003.52 397.743 1002.81 397.937 1002.27 398.415C1001.72 398.893 1001.45 399.641 1001.45 400.661V405.503H998.819V395.568H1001.36ZM1013.77 404.303C1012.8 405.297 1011.55 405.794 1010.03 405.794C1008.51 405.794 1007.26 405.297 1006.29 404.303C1005.32 403.295 1004.84 402.043 1004.84 400.545C1004.84 399.047 1005.32 397.801 1006.29 396.807C1007.26 395.8 1008.51 395.297 1010.03 395.297C1011.55 395.297 1012.8 395.8 1013.77 396.807C1014.74 397.801 1015.22 399.047 1015.22 400.545C1015.22 402.043 1014.74 403.295 1013.77 404.303ZM1010.03 403.78C1010.82 403.78 1011.43 403.489 1011.87 402.908C1012.32 402.314 1012.55 401.527 1012.55 400.545C1012.55 399.564 1012.32 398.776 1011.87 398.182C1011.43 397.588 1010.82 397.291 1010.03 397.291C1009.23 397.291 1008.61 397.588 1008.17 398.182C1007.73 398.763 1007.51 399.551 1007.51 400.545C1007.51 401.527 1007.73 402.314 1008.17 402.908C1008.61 403.489 1009.23 403.78 1010.03 403.78ZM1016.29 408.777C1015.7 408.777 1015.2 408.738 1014.8 408.66V406.782C1015.39 406.769 1015.81 406.698 1016.06 406.569C1016.32 406.452 1016.45 406.181 1016.45 405.755V395.568H1019.08V405.891C1019.08 406.898 1018.86 407.621 1018.42 408.06C1017.96 408.538 1017.25 408.777 1016.29 408.777ZM1016.45 394.018V391.655H1019.08V394.018H1016.45ZM1025.45 405.794C1023.84 405.794 1022.59 405.303 1021.67 404.322C1020.75 403.328 1020.29 402.062 1020.29 400.526C1020.29 399.041 1020.75 397.801 1021.67 396.807C1022.59 395.8 1023.76 395.297 1025.19 395.297C1026.76 395.297 1027.96 395.839 1028.82 396.923C1029.67 398.008 1030.09 399.461 1030.09 401.281H1022.89C1022.99 402.069 1023.26 402.682 1023.68 403.121C1024.11 403.547 1024.69 403.76 1025.43 403.76C1026.39 403.76 1027.03 403.354 1027.34 402.54H1029.94C1029.74 403.47 1029.25 404.245 1028.47 404.864C1027.68 405.484 1026.67 405.794 1025.45 405.794ZM1025.23 397.33C1023.95 397.33 1023.19 398.04 1022.93 399.461H1027.34C1027.3 398.828 1027.09 398.318 1026.7 397.931C1026.32 397.53 1025.83 397.33 1025.23 397.33ZM1035.92 405.794C1034.39 405.794 1033.15 405.297 1032.22 404.303C1031.29 403.308 1030.83 402.056 1030.83 400.545C1030.83 399.035 1031.28 397.782 1032.18 396.788C1033.1 395.794 1034.3 395.297 1035.79 395.297C1037.04 395.297 1038.06 395.626 1038.85 396.284C1039.63 396.943 1040.12 397.827 1040.3 398.938H1037.72C1037.63 398.486 1037.43 398.118 1037.1 397.834C1036.78 397.55 1036.38 397.408 1035.9 397.408C1035.13 397.408 1034.53 397.685 1034.12 398.24C1033.71 398.796 1033.5 399.564 1033.5 400.545C1033.5 401.514 1033.7 402.282 1034.1 402.85C1034.5 403.405 1035.09 403.683 1035.86 403.683C1037.01 403.683 1037.68 403.121 1037.86 401.998H1040.4C1040.31 403.095 1039.86 404.006 1039.06 404.729C1038.26 405.439 1037.21 405.794 1035.92 405.794ZM1040.96 397.311V395.568H1042.34V392.469H1044.92V395.568H1046.62V397.311H1044.92V402.579C1044.92 403.237 1045.24 403.567 1045.9 403.567L1046.68 403.547V405.484C1046.28 405.51 1045.73 405.523 1045.03 405.523C1044.27 405.523 1043.63 405.342 1043.11 404.98C1042.6 404.606 1042.34 403.993 1042.34 403.141V397.311H1040.96ZM1051.44 405.503V391.655H1057.52C1059.1 391.655 1060.31 392.088 1061.15 392.953C1061.97 393.805 1062.38 394.858 1062.38 396.11C1062.38 397.427 1061.97 398.486 1061.15 399.286C1060.32 400.087 1059.19 400.487 1057.76 400.487H1054.35V405.503H1051.44ZM1054.35 394.096V398.202H1057.25C1057.98 398.202 1058.53 398.021 1058.92 397.659C1059.31 397.285 1059.5 396.775 1059.5 396.129C1059.5 395.484 1059.31 394.987 1058.92 394.638C1058.53 394.277 1057.99 394.096 1057.29 394.096H1054.35ZM1071.72 404.303C1070.75 405.297 1069.51 405.794 1067.98 405.794C1066.46 405.794 1065.21 405.297 1064.25 404.303C1063.28 403.295 1062.79 402.043 1062.79 400.545C1062.79 399.047 1063.28 397.801 1064.25 396.807C1065.21 395.8 1066.46 395.297 1067.98 395.297C1069.51 395.297 1070.75 395.8 1071.72 396.807C1072.69 397.801 1073.17 399.047 1073.17 400.545C1073.17 402.043 1072.69 403.295 1071.72 404.303ZM1067.98 403.78C1068.77 403.78 1069.38 403.489 1069.82 402.908C1070.28 402.314 1070.5 401.527 1070.5 400.545C1070.5 399.564 1070.28 398.776 1069.82 398.182C1069.38 397.588 1068.77 397.291 1067.98 397.291C1067.18 397.291 1066.56 397.588 1066.12 398.182C1065.69 398.763 1065.47 399.551 1065.47 400.545C1065.47 401.527 1065.69 402.314 1066.12 402.908C1066.56 403.489 1067.18 403.78 1067.98 403.78ZM1074.4 405.503V395.568H1077.03V405.503H1074.4ZM1074.4 394.018V391.655H1077.03V394.018H1074.4ZM1081.31 395.568V396.923H1081.36C1082.05 395.839 1083.03 395.297 1084.31 395.297C1085.33 395.297 1086.15 395.645 1086.79 396.342C1087.42 397.027 1087.74 397.918 1087.74 399.015V405.503H1085.1V399.403C1085.1 398.86 1084.95 398.421 1084.64 398.086C1084.34 397.75 1083.92 397.582 1083.38 397.582C1082.8 397.582 1082.31 397.795 1081.93 398.221C1081.55 398.647 1081.36 399.196 1081.36 399.867V405.503H1078.73V395.568H1081.31ZM1088.59 397.311V395.568H1089.96V392.469H1092.54V395.568H1094.24V397.311H1092.54V402.579C1092.54 403.237 1092.87 403.567 1093.53 403.567L1094.3 403.547V405.484C1093.9 405.51 1093.35 405.523 1092.66 405.523C1091.89 405.523 1091.26 405.342 1090.74 404.98C1090.22 404.606 1089.96 403.993 1089.96 403.141V397.311H1088.59ZM1099.72 405.794C1098.3 405.794 1097.19 405.484 1096.39 404.864C1095.59 404.232 1095.15 403.373 1095.08 402.288H1097.52C1097.68 403.386 1098.41 403.935 1099.69 403.935C1100.27 403.935 1100.71 403.831 1101.02 403.625C1101.34 403.418 1101.51 403.141 1101.51 402.792C1101.51 402.663 1101.48 402.547 1101.43 402.443C1101.39 402.34 1101.31 402.25 1101.2 402.172C1101.09 402.082 1101 402.011 1100.91 401.959C1100.83 401.907 1100.69 401.856 1100.48 401.804C1100.27 401.753 1100.11 401.714 1100 401.688C1099.89 401.662 1099.7 401.63 1099.43 401.591C1099.18 401.539 1098.99 401.501 1098.89 401.475C1098.35 401.372 1097.9 401.268 1097.55 401.165C1097.22 401.049 1096.86 400.887 1096.49 400.681C1096.12 400.461 1095.83 400.171 1095.64 399.809C1095.46 399.435 1095.37 398.989 1095.37 398.473C1095.37 397.44 1095.74 396.652 1096.49 396.11C1097.25 395.568 1098.23 395.297 1099.41 395.297C1100.69 395.297 1101.69 395.594 1102.42 396.187C1103.15 396.769 1103.57 397.569 1103.68 398.589H1101.29C1101.19 397.621 1100.55 397.137 1099.38 397.137C1098.85 397.137 1098.43 397.233 1098.12 397.427C1097.82 397.621 1097.67 397.892 1097.67 398.24C1097.67 398.357 1097.69 398.466 1097.73 398.57C1097.78 398.66 1097.86 398.744 1097.96 398.822C1098.08 398.886 1098.19 398.944 1098.29 398.996C1098.39 399.035 1098.54 399.08 1098.74 399.131C1098.93 399.17 1099.1 399.209 1099.24 399.248C1099.38 399.273 1099.58 399.312 1099.82 399.364C1100.07 399.403 1100.26 399.435 1100.4 399.461C1100.82 399.551 1101.15 399.635 1101.41 399.712C1101.68 399.777 1101.99 399.893 1102.34 400.061C1102.69 400.216 1102.96 400.397 1103.15 400.603C1103.36 400.797 1103.53 401.068 1103.68 401.417C1103.83 401.753 1103.91 402.146 1103.91 402.598C1103.91 403.58 1103.52 404.361 1102.75 404.942C1101.98 405.51 1100.98 405.794 1099.72 405.794Z" fill="white"/>
<path fill-rule="evenodd" clip-rule="evenodd" d="M692.459 198.631L704.208 205.68L699.4 208.565L693.74 205.297C692.952 204.843 691.983 204.843 691.196 205.297L685.526 208.57L680.71 205.68L692.459 198.631ZM683.007 210.025L679.401 207.862C677.754 206.874 677.754 204.487 679.401 203.499L691.15 196.449C691.956 195.966 692.962 195.966 693.768 196.449L705.517 203.499C707.164 204.487 707.164 206.874 705.517 207.862L701.92 210.02L703.725 211.062C704.512 211.517 704.997 212.356 704.997 213.265V215.302L708.561 213.324C710.24 212.392 712.307 213.585 712.339 215.505L712.57 229.205C712.585 230.145 712.082 231.016 711.261 231.472L699.281 238.123C697.602 239.055 695.535 237.862 695.503 235.941L695.433 231.786L693.74 232.764C692.952 233.219 691.983 233.219 691.196 232.764L689.357 231.703L689.286 235.941C689.254 237.862 687.187 239.055 685.508 238.123L673.528 231.472C672.707 231.016 672.204 230.145 672.219 229.205L672.45 215.505C672.482 213.585 674.549 212.392 676.228 213.324L679.938 215.384V213.265C679.938 212.356 680.423 211.517 681.21 211.062L683.007 210.025ZM697.953 230.332L698.047 235.899L710.026 229.248L709.796 215.548L704.997 218.212V224.796C704.997 225.705 704.512 226.544 703.725 226.999L697.953 230.332ZM702.453 219.624V224.796L697.904 227.422L697.816 222.198L702.453 219.624ZM702.453 216.715L696.581 219.974C695.76 220.43 695.257 221.302 695.273 222.241L695.384 228.877L692.468 230.561L689.406 228.794L689.516 222.241C689.532 221.302 689.029 220.43 688.208 219.974L682.482 216.796V213.265L685.501 211.522L691.15 214.911C691.956 215.395 692.962 215.395 693.768 214.911L699.425 211.517L702.453 213.265V216.715ZM686.973 222.198L682.482 219.705V224.796L686.886 227.339L686.973 222.198ZM679.938 224.796V218.293L674.993 215.548L674.763 229.248L686.742 235.899L686.838 230.248L681.21 226.999C680.423 226.544 679.938 225.705 679.938 224.796ZM696.906 210.062L692.459 212.73L688.021 210.067L692.468 207.5L696.906 210.062Z" fill="url(#paint0_linear_1_2824)"/>
<defs>
<linearGradient id="paint0_linear_1_2824" x1="712.268" y1="210.686" x2="695.577" y2="239.6" gradientUnits="userSpaceOnUse">
<stop stop-color="#9F57F2"/>
<stop offset="0.5" stop-color="#4B67EF"/>
<stop offset="1" stop-color="#77F6D3"/>
</linearGradient>
</defs>
</svg>
