<svg width="586" height="61" viewBox="0 0 586 61" fill="none" xmlns="http://www.w3.org/2000/svg">
<path d="M8.968 49C8.084 49 7.404 48.32 7.404 47.436V43.764C7.404 42.88 6.724 42.2 5.84 42.2H2.032C1.148 42.2 0.468 41.52 0.468 40.636V9.764C0.468 8.88 1.148 8.2 2.032 8.2H5.84C6.724 8.2 7.404 7.52 7.404 6.636V2.964C7.404 2.08 8.084 1.4 8.968 1.4H33.584C34.468 1.4 35.148 2.08 35.148 2.964V6.636C35.148 7.52 35.828 8.2 36.712 8.2H40.52C41.404 8.2 42.084 8.88 42.084 9.764V40.636C42.084 41.52 41.404 42.2 40.52 42.2H36.712C35.828 42.2 35.148 42.88 35.148 43.764V47.436C35.148 48.32 34.468 49 33.584 49H8.968ZM7.404 40.636C7.404 41.52 8.084 42.2 8.968 42.2H33.584C34.468 42.2 35.148 41.52 35.148 40.636V9.764C35.148 8.88 34.468 8.2 33.584 8.2H8.968C8.084 8.2 7.404 8.88 7.404 9.764V40.636ZM79.475 49H70.567V44.92H70.363C69.0936 46.6427 67.6883 47.912 66.147 48.728C64.651 49.544 62.7243 49.952 60.367 49.952C56.559 49.952 53.5896 48.8187 51.459 46.552C49.3283 44.2853 48.263 41.2253 48.263 37.372V14.116H57.443V35.808C57.443 40.024 59.3696 42.132 63.223 42.132C65.3536 42.132 67.0536 41.4067 68.323 39.956C69.5923 38.5053 70.227 36.6013 70.227 34.244V14.116H79.475V49ZM94.3648 14.116V19.692H94.5688C95.6568 17.652 96.8582 16.156 98.1728 15.204C99.4875 14.2067 101.142 13.708 103.137 13.708C104.089 13.708 104.814 13.7987 105.313 13.98V22.072H105.109C101.981 21.7547 99.4648 22.4347 97.5608 24.112C95.6568 25.7893 94.7048 28.4187 94.7048 32V49H85.4568V14.116H94.3648ZM122.759 42.2C121.875 42.2 121.195 41.52 121.195 40.636V35.4H128.131V40.636C128.131 41.52 128.811 42.2 129.695 42.2H154.311C155.195 42.2 155.875 41.52 155.875 40.636V9.764C155.875 8.88 155.195 8.2 154.311 8.2H134.999V1.4H154.311C155.195 1.4 155.875 2.08 155.875 2.964V6.636C155.875 7.52 156.555 8.2 157.439 8.2H161.247C162.131 8.2 162.811 8.88 162.811 9.764V40.636C162.811 41.52 162.131 42.2 161.247 42.2H157.439C156.555 42.2 155.875 42.88 155.875 43.764V47.436C155.875 48.32 155.195 49 154.311 49H129.695C128.811 49 128.131 48.32 128.131 47.436V43.764C128.131 42.88 127.451 42.2 126.567 42.2H122.759ZM198.91 44.784C195.51 48.2747 191.135 50.02 185.786 50.02C180.436 50.02 176.062 48.2747 172.662 44.784C169.262 41.248 167.562 36.8507 167.562 31.592C167.562 26.3333 169.262 21.9587 172.662 18.468C176.062 14.932 180.436 13.164 185.786 13.164C191.135 13.164 195.51 14.932 198.91 18.468C202.31 21.9587 204.01 26.3333 204.01 31.592C204.01 36.8507 202.31 41.248 198.91 44.784ZM185.786 42.948C188.551 42.948 190.704 41.928 192.246 39.888C193.832 37.8027 194.626 35.0373 194.626 31.592C194.626 28.1467 193.832 25.3813 192.246 23.296C190.704 21.2107 188.551 20.168 185.786 20.168C182.975 20.168 180.799 21.2107 179.258 23.296C177.716 25.336 176.946 28.1013 176.946 31.592C176.946 35.0373 177.716 37.8027 179.258 39.888C180.799 41.928 182.975 42.948 185.786 42.948ZM239.248 49H230.34V44.92H230.136C228.867 46.6427 227.462 47.912 225.92 48.728C224.424 49.544 222.498 49.952 220.14 49.952C216.332 49.952 213.363 48.8187 211.232 46.552C209.102 44.2853 208.036 41.2253 208.036 37.372V14.116H217.216V35.808C217.216 40.024 219.143 42.132 222.996 42.132C225.127 42.132 226.827 41.4067 228.096 39.956C229.366 38.5053 230 36.6013 230 34.244V14.116H239.248V49ZM254.138 14.116V19.692H254.342C255.43 17.652 256.632 16.156 257.946 15.204C259.261 14.2067 260.916 13.708 262.91 13.708C263.862 13.708 264.588 13.7987 265.086 13.98V22.072H264.882C261.754 21.7547 259.238 22.4347 257.334 24.112C255.43 25.7893 254.478 28.4187 254.478 32V49H245.23V14.116H254.138ZM276.482 16.564C276.482 15.68 277.162 15 278.046 15H295.726C296.61 15 297.29 15.68 297.29 16.564V20.236C297.29 21.12 297.97 21.8 298.854 21.8H302.662C303.546 21.8 304.226 22.48 304.226 23.364V49H297.29V23.364C297.29 22.48 296.61 21.8 295.726 21.8H278.046C277.162 21.8 276.482 22.48 276.482 23.364V49H269.546V23.364C269.546 22.48 270.226 21.8 271.11 21.8H274.918C275.802 21.8 276.482 21.12 276.482 20.236V16.564ZM327.095 50.02C321.474 50.02 317.054 48.2973 313.835 44.852C310.616 41.3613 309.007 36.9187 309.007 31.524C309.007 26.3107 310.616 21.9587 313.835 18.468C317.054 14.932 321.179 13.164 326.211 13.164C331.696 13.164 335.935 15.068 338.927 18.876C341.919 22.684 343.415 27.784 343.415 34.176H318.119C318.482 36.9413 319.411 39.0947 320.907 40.636C322.403 42.132 324.443 42.88 327.027 42.88C330.427 42.88 332.671 41.452 333.759 38.596H342.871C342.191 41.86 340.468 44.58 337.703 46.756C334.938 48.932 331.402 50.02 327.095 50.02ZM326.347 20.304C321.859 20.304 319.162 22.7973 318.255 27.784H333.759C333.623 25.5627 332.875 23.772 331.515 22.412C330.155 21.0067 328.432 20.304 326.347 20.304ZM347.447 60.424V53.148H350.711C354.156 53.148 355.879 51.5613 355.879 48.388C355.879 46.8467 354.995 43.696 353.227 38.936L343.843 14.116H353.567L358.735 29.824L360.979 37.44H361.115C361.75 34.4933 362.43 31.9547 363.155 29.824L368.051 14.116H377.367L365.195 49.884C363.835 53.8733 362.294 56.616 360.571 58.112C358.894 59.6533 356.332 60.424 352.887 60.424H347.447ZM399.334 23.364C399.334 22.48 400.014 21.8 400.898 21.8H425.514C426.398 21.8 427.078 22.48 427.078 23.364V27.036C427.078 27.92 427.758 28.6 428.642 28.6H432.45C433.334 28.6 434.014 29.28 434.014 30.164V49H427.078V30.164C427.078 29.28 426.398 28.6 425.514 28.6H400.898C400.014 28.6 399.334 29.28 399.334 30.164V49H392.398V30.164C392.398 29.28 393.078 28.6 393.962 28.6H397.77C398.654 28.6 399.334 27.92 399.334 27.036V23.364ZM392.398 21.8V9.764C392.398 8.88 393.078 8.2 393.962 8.2H397.77C398.654 8.2 399.334 7.52 399.334 6.636V2.964C399.334 2.08 400.014 1.4 400.898 1.4H425.514C426.398 1.4 427.078 2.08 427.078 2.964V6.636C427.078 7.52 427.758 8.2 428.642 8.2H432.45C433.334 8.2 434.014 8.88 434.014 9.764V21.8H427.078V9.764C427.078 8.88 426.398 8.2 425.514 8.2H400.898C400.014 8.2 399.334 8.88 399.334 9.764V21.8H392.398ZM449.713 0.379998V18.672H449.917C451.231 16.768 452.659 15.3853 454.201 14.524C455.787 13.6173 457.737 13.164 460.049 13.164C463.63 13.164 466.531 14.388 468.753 16.836C470.974 19.2387 472.085 22.3667 472.085 26.22V49H462.837V27.58C462.837 25.676 462.293 24.1347 461.205 22.956C460.162 21.7773 458.689 21.188 456.785 21.188C454.745 21.188 453.045 21.936 451.685 23.432C450.37 24.928 449.713 26.8547 449.713 29.212V49H440.465V0.379998H449.713ZM494.173 50.02C488.552 50.02 484.132 48.2973 480.913 44.852C477.694 41.3613 476.085 36.9187 476.085 31.524C476.085 26.3107 477.694 21.9587 480.913 18.468C484.132 14.932 488.257 13.164 493.289 13.164C498.774 13.164 503.013 15.068 506.005 18.876C508.997 22.684 510.493 27.784 510.493 34.176H485.197C485.56 36.9413 486.489 39.0947 487.985 40.636C489.481 42.132 491.521 42.88 494.105 42.88C497.505 42.88 499.749 41.452 500.837 38.596H509.949C509.269 41.86 507.546 44.58 504.781 46.756C502.016 48.932 498.48 50.02 494.173 50.02ZM493.425 20.304C488.937 20.304 486.24 22.7973 485.333 27.784H500.837C500.701 25.5627 499.953 23.772 498.593 22.412C497.233 21.0067 495.51 20.304 493.425 20.304ZM536.737 49C536.284 48.4107 535.921 47.1187 535.649 45.124H535.513C534.516 46.62 533.247 47.776 531.705 48.592C530.164 49.408 528.011 49.816 525.245 49.816C521.573 49.816 518.627 48.8867 516.405 47.028C514.184 45.1693 513.073 42.54 513.073 39.14C513.073 35.604 514.297 33.02 516.745 31.388C519.193 29.7107 522.639 28.5547 527.081 27.92C530.345 27.4667 532.567 27.0133 533.745 26.56C534.924 26.0613 535.513 25.2 535.513 23.976C535.513 22.7067 535.015 21.7093 534.017 20.984C533.02 20.2133 531.569 19.828 529.665 19.828C525.449 19.828 523.205 21.46 522.933 24.724H514.705C514.841 21.4147 516.179 18.672 518.717 16.496C521.256 14.32 524.928 13.232 529.733 13.232C539.525 13.232 544.421 17.516 544.421 26.084V43.832C544.421 46.4613 544.829 48.0707 545.645 48.66V49H536.737ZM527.489 43.356C530.028 43.356 532.023 42.6987 533.473 41.384C534.969 40.0693 535.717 38.5053 535.717 36.692V31.456C534.72 32.0453 532.567 32.7253 529.257 33.496C526.628 34.0853 524.769 34.7653 523.681 35.536C522.593 36.2613 522.049 37.3947 522.049 38.936C522.049 41.8827 523.863 43.356 527.489 43.356ZM585.457 40.636C585.457 41.52 584.777 42.2 583.893 42.2H580.085C579.201 42.2 578.521 42.88 578.521 43.764V47.436C578.521 48.32 577.841 49 576.957 49H559.277C558.393 49 557.713 48.32 557.713 47.436V43.764C557.713 42.88 557.033 42.2 556.149 42.2H552.341C551.457 42.2 550.777 41.52 550.777 40.636V23.364C550.777 22.48 551.457 21.8 552.341 21.8H556.149C557.033 21.8 557.713 21.12 557.713 20.236V16.564C557.713 15.68 558.393 15 559.277 15H575.053V21.8H559.277C558.393 21.8 557.713 22.48 557.713 23.364V40.636C557.713 41.52 558.393 42.2 559.277 42.2H576.957C577.841 42.2 578.521 41.52 578.521 40.636V1.4H585.457V40.636Z" fill="white"/>
</svg>
