<svg width="788" height="53" viewBox="0 0 788 53" fill="none" xmlns="http://www.w3.org/2000/svg">
<path d="M35.148 29.036C35.148 29.92 34.468 30.6 33.584 30.6H14.272V23.8H33.584C34.468 23.8 35.148 23.12 35.148 22.236V11.764C35.148 10.88 34.468 10.2 33.584 10.2H8.968C8.084 10.2 7.404 10.88 7.404 11.764V51H0.468V11.764C0.468 10.88 1.148 10.2 2.032 10.2H5.84C6.724 10.2 7.404 9.52 7.404 8.636V4.964C7.404 4.08 8.084 3.4 8.968 3.4H33.584C34.468 3.4 35.148 4.08 35.148 4.964V8.636C35.148 9.52 35.828 10.2 36.712 10.2H40.52C41.404 10.2 42.084 10.88 42.084 11.764V22.236C42.084 23.12 41.404 23.8 40.52 23.8H36.712C35.828 23.8 35.148 24.48 35.148 25.364V29.036ZM55.947 18.564C55.947 17.68 56.627 17 57.511 17H75.191C76.075 17 76.755 17.68 76.755 18.564V22.236C76.755 23.12 77.435 23.8 78.319 23.8H82.127C83.011 23.8 83.691 24.48 83.691 25.364V30.6H76.755V25.364C76.755 24.48 76.075 23.8 75.191 23.8H57.511C56.627 23.8 55.947 24.48 55.947 25.364V51H49.011V25.364C49.011 24.48 49.691 23.8 50.575 23.8H54.383C55.267 23.8 55.947 23.12 55.947 22.236V18.564ZM99.1477 51C98.2637 51 97.5837 50.32 97.5837 49.436V45.764C97.5837 44.88 96.9037 44.2 96.0197 44.2H92.2117C91.3277 44.2 90.6477 43.52 90.6477 42.636V25.364C90.6477 24.48 91.3277 23.8 92.2117 23.8H96.0197C96.9037 23.8 97.5837 23.12 97.5837 22.236V18.564C97.5837 17.68 98.2637 17 99.1477 17H116.828C117.712 17 118.392 17.68 118.392 18.564V22.236C118.392 23.12 119.072 23.8 119.956 23.8H123.764C124.648 23.8 125.328 24.48 125.328 25.364V42.636C125.328 43.52 124.648 44.2 123.764 44.2H119.956C119.072 44.2 118.392 44.88 118.392 45.764V49.436C118.392 50.32 117.712 51 116.828 51H99.1477ZM97.5837 42.636C97.5837 43.52 98.2637 44.2 99.1477 44.2H116.828C117.712 44.2 118.392 43.52 118.392 42.636V25.364C118.392 24.48 117.712 23.8 116.828 23.8H99.1477C98.2637 23.8 97.5837 24.48 97.5837 25.364V42.636ZM140.784 51C139.9 51 139.22 50.32 139.22 49.436V45.764C139.22 44.88 138.54 44.2 137.656 44.2H133.848C132.964 44.2 132.284 43.52 132.284 42.636V25.364C132.284 24.48 132.964 23.8 133.848 23.8H137.656C138.54 23.8 139.22 23.12 139.22 22.236V18.564C139.22 17.68 138.54 17 137.656 17H133.848C132.964 17 132.284 16.32 132.284 15.436V3.4H139.22V15.436C139.22 16.32 139.9 17 140.784 17H156.56V23.8H140.784C139.9 23.8 139.22 24.48 139.22 25.364V42.636C139.22 43.52 139.9 44.2 140.784 44.2H163.496V51H140.784ZM178.902 51C178.018 51 177.338 50.32 177.338 49.436V45.764C177.338 44.88 176.658 44.2 175.774 44.2H171.966C171.082 44.2 170.402 43.52 170.402 42.636V25.364C170.402 24.48 171.082 23.8 171.966 23.8H175.774C176.658 23.8 177.338 23.12 177.338 22.236V18.564C177.338 17.68 178.018 17 178.902 17H196.582C197.466 17 198.146 17.68 198.146 18.564V22.236C198.146 23.12 198.826 23.8 199.71 23.8H203.518C204.402 23.8 205.082 24.48 205.082 25.364V42.636C205.082 43.52 204.402 44.2 203.518 44.2H199.71C198.826 44.2 198.146 44.88 198.146 45.764V49.436C198.146 50.32 197.466 51 196.582 51H178.902ZM177.338 42.636C177.338 43.52 178.018 44.2 178.902 44.2H196.582C197.466 44.2 198.146 43.52 198.146 42.636V25.364C198.146 24.48 197.466 23.8 196.582 23.8H178.902C178.018 23.8 177.338 24.48 177.338 25.364V42.636ZM239.782 30.6V25.364C239.782 24.48 239.102 23.8 238.218 23.8H220.538C219.654 23.8 218.974 24.48 218.974 25.364V42.636C218.974 43.52 219.654 44.2 220.538 44.2H238.218C239.102 44.2 239.782 43.52 239.782 42.636V37.4H246.718V42.636C246.718 43.52 246.038 44.2 245.154 44.2H241.346C240.462 44.2 239.782 44.88 239.782 45.764V49.436C239.782 50.32 239.102 51 238.218 51H220.538C219.654 51 218.974 50.32 218.974 49.436V45.764C218.974 44.88 218.294 44.2 217.41 44.2H213.602C212.718 44.2 212.038 43.52 212.038 42.636V25.364C212.038 24.48 212.718 23.8 213.602 23.8H217.41C218.294 23.8 218.974 23.12 218.974 22.236V18.564C218.974 17.68 219.654 17 220.538 17H238.218C239.102 17 239.782 17.68 239.782 18.564V22.236C239.782 23.12 240.462 23.8 241.346 23.8H245.154C246.038 23.8 246.718 24.48 246.718 25.364V30.6H239.782ZM262.175 51C261.291 51 260.611 50.32 260.611 49.436V45.764C260.611 44.88 259.931 44.2 259.047 44.2H255.239C254.355 44.2 253.675 43.52 253.675 42.636V25.364C253.675 24.48 254.355 23.8 255.239 23.8H259.047C259.931 23.8 260.611 23.12 260.611 22.236V18.564C260.611 17.68 261.291 17 262.175 17H279.855C280.739 17 281.419 17.68 281.419 18.564V22.236C281.419 23.12 282.099 23.8 282.983 23.8H286.791C287.675 23.8 288.355 24.48 288.355 25.364V42.636C288.355 43.52 287.675 44.2 286.791 44.2H282.983C282.099 44.2 281.419 44.88 281.419 45.764V49.436C281.419 50.32 280.739 51 279.855 51H262.175ZM260.611 42.636C260.611 43.52 261.291 44.2 262.175 44.2H279.855C280.739 44.2 281.419 43.52 281.419 42.636V25.364C281.419 24.48 280.739 23.8 279.855 23.8H262.175C261.291 23.8 260.611 24.48 260.611 25.364V42.636ZM309.184 49.436C309.184 50.32 308.504 51 307.62 51H295.312V44.2H307.62C308.504 44.2 309.184 43.52 309.184 42.636V11.764C309.184 10.88 308.504 10.2 307.62 10.2H295.312V3.4H307.62C308.504 3.4 309.184 4.08 309.184 4.964V8.636C309.184 9.52 309.864 10.2 310.748 10.2H314.556C315.44 10.2 316.12 10.88 316.12 11.764V42.636C316.12 43.52 316.8 44.2 317.684 44.2H329.992V51H317.684C316.8 51 316.12 50.32 316.12 49.436V45.764C316.12 44.88 315.44 44.2 314.556 44.2H310.748C309.864 44.2 309.184 44.88 309.184 45.764V49.436ZM368.189 25.364C368.189 24.48 368.869 23.8 369.753 23.8H394.369C395.253 23.8 395.933 24.48 395.933 25.364V29.036C395.933 29.92 396.613 30.6 397.497 30.6H401.305C402.189 30.6 402.869 31.28 402.869 32.164V51H395.933V32.164C395.933 31.28 395.253 30.6 394.369 30.6H369.753C368.869 30.6 368.189 31.28 368.189 32.164V51H361.253V32.164C361.253 31.28 361.933 30.6 362.817 30.6H366.625C367.509 30.6 368.189 29.92 368.189 29.036V25.364ZM361.253 23.8V11.764C361.253 10.88 361.933 10.2 362.817 10.2H366.625C367.509 10.2 368.189 9.52 368.189 8.636V4.964C368.189 4.08 368.869 3.4 369.753 3.4H394.369C395.253 3.4 395.933 4.08 395.933 4.964V8.636C395.933 9.52 396.613 10.2 397.497 10.2H401.305C402.189 10.2 402.869 10.88 402.869 11.764V23.8H395.933V11.764C395.933 10.88 395.253 10.2 394.369 10.2H369.753C368.869 10.2 368.189 10.88 368.189 11.764V23.8H361.253ZM418.636 21.216H418.84C421.152 16.5013 424.62 14.144 429.244 14.144C430.287 14.144 431.057 14.2573 431.556 14.484V22.236H431.284C430.559 22.0547 429.765 21.964 428.904 21.964C426.048 21.9187 423.668 22.848 421.764 24.752C419.86 26.6107 418.908 29.2853 418.908 32.776V51H410.272V14.688H418.636V21.216ZM452.829 52.088C450.018 52.088 447.48 51.5893 445.213 50.592C442.946 49.5947 440.997 48.2347 439.365 46.512C437.778 44.7893 436.554 42.772 435.693 40.46C434.832 38.1027 434.401 35.5867 434.401 32.912C434.401 30.192 434.832 27.676 435.693 25.364C436.554 23.0067 437.778 20.9667 439.365 19.244C440.952 17.5213 442.856 16.184 445.077 15.232C447.344 14.2347 449.882 13.736 452.693 13.736C455.005 13.736 457.09 14.0533 458.949 14.688C460.853 15.3227 462.485 16.2067 463.845 17.34C465.25 18.4733 466.384 19.856 467.245 21.488C468.152 23.0747 468.764 24.8427 469.081 26.792H460.649C460.241 24.7973 459.357 23.2333 457.997 22.1C456.682 20.9213 454.937 20.332 452.761 20.332C451.174 20.332 449.769 20.6493 448.545 21.284C447.366 21.8733 446.369 22.7347 445.553 23.868C444.782 25.0013 444.193 26.3387 443.785 27.88C443.377 29.4213 443.173 31.0987 443.173 32.912C443.173 34.68 443.377 36.3347 443.785 37.876C444.193 39.372 444.782 40.6867 445.553 41.82C446.369 42.908 447.366 43.7693 448.545 44.404C449.769 45.0387 451.174 45.356 452.761 45.356C455.164 45.356 457.045 44.6987 458.405 43.384C459.81 42.0693 460.626 40.2107 460.853 37.808H469.285C469.149 39.9387 468.673 41.888 467.857 43.656C467.041 45.3787 465.908 46.8747 464.457 48.144C463.052 49.368 461.374 50.32 459.425 51C457.476 51.7253 455.277 52.088 452.829 52.088ZM483.588 14.008C483.588 14.5067 483.565 15.368 483.52 16.592C483.52 17.7707 483.497 18.8813 483.452 19.924H483.656C484.88 17.9747 486.398 16.456 488.212 15.368C490.07 14.28 492.292 13.736 494.876 13.736C498.82 13.736 501.88 14.8693 504.056 17.136C506.277 19.3573 507.388 22.44 507.388 26.384V51H498.752V27.812C498.752 25.636 498.14 23.936 496.916 22.712C495.737 21.488 494.037 20.876 491.816 20.876C490.592 20.876 489.481 21.1027 488.484 21.556C487.486 21.964 486.625 22.576 485.9 23.392C485.174 24.1627 484.608 25.092 484.2 26.18C483.792 27.268 483.588 28.4467 483.588 29.716V51H474.952V0.407999H483.588V14.008ZM514.859 0.407999H523.699V8.772H514.859V0.407999ZM514.995 14.688H523.631V51H514.995V14.688ZM539.488 51C538.604 51 537.924 50.32 537.924 49.436V45.764C537.924 44.88 537.244 44.2 536.36 44.2H532.552C531.668 44.2 530.988 43.52 530.988 42.636V25.364C530.988 24.48 531.668 23.8 532.552 23.8H536.36C537.244 23.8 537.924 23.12 537.924 22.236V18.564C537.924 17.68 537.244 17 536.36 17H532.552C531.668 17 530.988 16.32 530.988 15.436V3.4H537.924V15.436C537.924 16.32 538.604 17 539.488 17H555.264V23.8H539.488C538.604 23.8 537.924 24.48 537.924 25.364V42.636C537.924 43.52 538.604 44.2 539.488 44.2H562.2V51H539.488ZM586.241 52.088C583.339 52.088 580.733 51.5893 578.421 50.592C576.154 49.5947 574.227 48.2347 572.641 46.512C571.054 44.7893 569.83 42.772 568.969 40.46C568.153 38.1027 567.745 35.5867 567.745 32.912C567.745 30.192 568.175 27.676 569.037 25.364C569.898 23.0067 571.122 20.9667 572.709 19.244C574.295 17.5213 576.199 16.184 578.421 15.232C580.642 14.2347 583.09 13.736 585.765 13.736C588.439 13.736 590.797 14.1893 592.837 15.096C594.922 15.9573 596.735 17.204 598.277 18.836C600.045 20.74 601.359 23.0747 602.221 25.84C603.082 28.56 603.49 31.62 603.445 35.02H576.313C576.63 38.148 577.605 40.6867 579.237 42.636C580.914 44.54 583.271 45.492 586.309 45.492C588.394 45.492 590.094 45.084 591.409 44.268C592.769 43.4067 593.743 42.228 594.333 40.732H602.765C602.311 42.364 601.609 43.8827 600.657 45.288C599.75 46.648 598.594 47.8493 597.189 48.892C595.783 49.8893 594.151 50.66 592.293 51.204C590.479 51.7933 588.462 52.088 586.241 52.088ZM585.765 19.992C582.909 19.992 580.733 20.876 579.237 22.644C577.741 24.412 576.811 26.724 576.449 29.58H594.537C594.355 26.588 593.494 24.2533 591.953 22.576C590.457 20.8533 588.394 19.992 585.765 19.992ZM626.083 52.088C623.272 52.088 620.734 51.5893 618.467 50.592C616.2 49.5947 614.251 48.2347 612.619 46.512C611.032 44.7893 609.808 42.772 608.947 40.46C608.086 38.1027 607.655 35.5867 607.655 32.912C607.655 30.192 608.086 27.676 608.947 25.364C609.808 23.0067 611.032 20.9667 612.619 19.244C614.206 17.5213 616.11 16.184 618.331 15.232C620.598 14.2347 623.136 13.736 625.947 13.736C628.259 13.736 630.344 14.0533 632.203 14.688C634.107 15.3227 635.739 16.2067 637.099 17.34C638.504 18.4733 639.638 19.856 640.499 21.488C641.406 23.0747 642.018 24.8427 642.335 26.792H633.903C633.495 24.7973 632.611 23.2333 631.251 22.1C629.936 20.9213 628.191 20.332 626.015 20.332C624.428 20.332 623.023 20.6493 621.799 21.284C620.62 21.8733 619.623 22.7347 618.807 23.868C618.036 25.0013 617.447 26.3387 617.039 27.88C616.631 29.4213 616.427 31.0987 616.427 32.912C616.427 34.68 616.631 36.3347 617.039 37.876C617.447 39.372 618.036 40.6867 618.807 41.82C619.623 42.908 620.62 43.7693 621.799 44.404C623.023 45.0387 624.428 45.356 626.015 45.356C628.418 45.356 630.299 44.6987 631.659 43.384C633.064 42.0693 633.88 40.2107 634.107 37.808H642.539C642.403 39.9387 641.927 41.888 641.111 43.656C640.295 45.3787 639.162 46.8747 637.711 48.144C636.306 49.368 634.628 50.32 632.679 51C630.73 51.7253 628.531 52.088 626.083 52.088ZM656.23 51C655.346 51 654.666 50.32 654.666 49.436V45.764C654.666 44.88 653.986 44.2 653.102 44.2H649.294C648.41 44.2 647.73 43.52 647.73 42.636V25.364C647.73 24.48 648.41 23.8 649.294 23.8H653.102C653.986 23.8 654.666 23.12 654.666 22.236V18.564C654.666 17.68 653.986 17 653.102 17H649.294C648.41 17 647.73 16.32 647.73 15.436V3.4H654.666V15.436C654.666 16.32 655.346 17 656.23 17H672.006V23.8H656.23C655.346 23.8 654.666 24.48 654.666 25.364V42.636C654.666 43.52 655.346 44.2 656.23 44.2H678.942V51H656.23ZM709.715 51V45.832H709.579C708.264 47.8267 706.746 49.3453 705.023 50.388C703.346 51.4307 701.215 51.952 698.631 51.952C694.642 51.952 691.536 50.8187 689.315 48.552C687.139 46.24 686.051 43.112 686.051 39.168V14.688H694.687V37.944C694.687 40.12 695.276 41.7973 696.455 42.976C697.634 44.1547 699.311 44.744 701.487 44.744C703.935 44.744 705.884 43.928 707.335 42.296C708.786 40.6187 709.511 38.5107 709.511 35.972V14.688H718.079V51H709.715ZM734.331 21.216H734.535C736.847 16.5013 740.315 14.144 744.939 14.144C745.982 14.144 746.753 14.2573 747.251 14.484V22.236H746.979C746.254 22.0547 745.461 21.964 744.599 21.964C741.743 21.9187 739.363 22.848 737.459 24.752C735.555 26.6107 734.603 29.2853 734.603 32.776V51H725.967V14.688H734.331V21.216ZM785.568 23.8C786.452 23.8 787.132 24.48 787.132 25.364V29.036C787.132 29.92 786.452 30.6 785.568 30.6H781.76C780.876 30.6 780.196 31.28 780.196 32.164V35.836C780.196 36.72 779.516 37.4 778.632 37.4H762.856V30.6H778.632C779.516 30.6 780.196 29.92 780.196 29.036V25.364C780.196 24.48 779.516 23.8 778.632 23.8H760.952C760.068 23.8 759.388 24.48 759.388 25.364V42.636C759.388 43.52 760.068 44.2 760.952 44.2H787.132V51H760.952C760.068 51 759.388 50.32 759.388 49.436V45.764C759.388 44.88 758.708 44.2 757.824 44.2H754.016C753.132 44.2 752.452 43.52 752.452 42.636V25.364C752.452 24.48 753.132 23.8 754.016 23.8H757.824C758.708 23.8 759.388 23.12 759.388 22.236V18.564C759.388 17.68 760.068 17 760.952 17H778.632C779.516 17 780.196 17.68 780.196 18.564V22.236C780.196 23.12 780.876 23.8 781.76 23.8H785.568Z" fill="white"/>
</svg>
