<svg width="725" height="98" viewBox="0 0 725 98" fill="none" xmlns="http://www.w3.org/2000/svg">
<path d="M0.37 79V0.349996H37.11C44.0033 0.349996 49.5767 2.33 53.83 6.29C58.1567 10.25 60.32 15.4567 60.32 21.91C60.32 31.9567 55.7733 38.4467 46.68 41.38V41.71C50.5667 43.1033 53.3167 45.3033 54.93 48.31C56.6167 51.2433 57.6433 55.7167 58.01 61.73C58.7433 71.7767 59.9533 77.3867 61.64 78.56V79H50.97C50.1633 78.34 49.5767 76.9467 49.21 74.82C48.9167 72.6933 48.55 68.22 48.11 61.4C47.7433 55.68 46.3133 51.6467 43.82 49.3C41.4 46.9533 37.5133 45.78 32.16 45.78H10.27V79H0.37ZM10.27 8.93V37.75H33.59C39.0167 37.75 43.1233 36.5033 45.91 34.01C48.6967 31.4433 50.09 27.8867 50.09 23.34C50.09 18.4267 48.8433 14.7967 46.35 12.45C43.8567 10.1033 39.7867 8.93 34.14 8.93H10.27ZM94.7955 80.54C86.3622 80.54 79.6522 77.7167 74.6655 72.07C69.7522 66.35 67.2955 59.2 67.2955 50.62C67.2955 42.1867 69.7889 35.11 74.7755 29.39C79.8355 23.5967 86.3255 20.7 94.2455 20.7C102.606 20.7 109.059 23.6333 113.606 29.5C118.152 35.2933 120.426 43.03 120.426 52.71H76.4255C76.7922 58.7233 78.5522 63.6367 81.7055 67.45C84.9322 71.19 89.2955 73.06 94.7955 73.06C103.302 73.06 108.546 69.1733 110.526 61.4H119.216C117.896 67.4867 115.109 72.2167 110.856 75.59C106.602 78.89 101.249 80.54 94.7955 80.54ZM106.126 32.58C103.266 29.3533 99.3055 27.74 94.2455 27.74C89.1855 27.74 85.1522 29.4267 82.1455 32.8C79.2122 36.1733 77.3789 40.5733 76.6455 46H110.856C110.562 40.28 108.986 35.8067 106.126 32.58ZM173.578 65.47C173.578 66.9 172.478 68 171.048 68H164.888C163.458 68 162.358 69.1 162.358 70.53V76.47C162.358 77.9 161.258 79 159.828 79H153.668C152.238 79 151.138 77.9 151.138 76.47V70.53C151.138 69.1 150.038 68 148.608 68H142.448C141.018 68 139.918 66.9 139.918 65.47V59.53C139.918 58.1 138.818 57 137.388 57H131.228C129.798 57 128.698 55.9 128.698 54.47V24H139.918V54.47C139.918 55.9 141.018 57 142.448 57H148.608C150.038 57 151.138 58.1 151.138 59.53V65.47C151.138 66.9 152.238 68 153.668 68H159.828C161.258 68 162.358 66.9 162.358 65.47V59.53C162.358 58.1 163.458 57 164.888 57H171.048C172.478 57 173.578 55.9 173.578 54.47V24H184.798V54.47C184.798 55.9 183.698 57 182.268 57H176.108C174.678 57 173.578 58.1 173.578 59.53V65.47ZM240.711 71.96C235.725 77.68 229.088 80.54 220.801 80.54C212.515 80.54 205.841 77.68 200.781 71.96C195.795 66.24 193.301 59.1267 193.301 50.62C193.301 42.1133 195.795 35 200.781 29.28C205.841 23.56 212.515 20.7 220.801 20.7C229.088 20.7 235.725 23.56 240.711 29.28C245.698 35 248.191 42.1133 248.191 50.62C248.191 59.1267 245.698 66.24 240.711 71.96ZM207.161 66.79C210.388 70.97 214.935 73.06 220.801 73.06C226.668 73.06 231.178 70.97 234.331 66.79C237.485 62.5367 239.061 57.1467 239.061 50.62C239.061 44.02 237.448 38.63 234.221 34.45C231.068 30.1967 226.595 28.07 220.801 28.07C214.935 28.07 210.388 30.1967 207.161 34.45C204.008 38.7033 202.431 44.0933 202.431 50.62C202.431 57.1467 204.008 62.5367 207.161 66.79ZM257.407 79V0.349996H266.317V79H257.407ZM323.877 79H314.967V71.19H314.747C310.273 77.2767 304.553 80.32 297.587 80.32C291.72 80.32 287.063 78.67 283.617 75.37C280.17 71.9967 278.447 67.3767 278.447 61.51V22.13H287.357V61.29C287.357 64.9567 288.457 67.8167 290.657 69.87C292.93 71.9233 296.083 72.95 300.117 72.95C304.59 72.95 308.183 71.4467 310.897 68.44C313.61 65.4333 314.967 61.6567 314.967 57.11V22.13H323.877V79ZM332.295 29.39V22.13H340.545V4.2H349.455V22.13H360.455V29.39H349.455V66.35C349.455 69.87 351.362 71.63 355.175 71.63C356.788 71.63 358.365 71.3733 359.905 70.86H360.235V78.56C357.815 79.0733 355.432 79.33 353.085 79.33C344.725 79.33 340.545 75.6633 340.545 68.33V29.39H332.295ZM369.655 79V22.13H378.565V79H369.655ZM369.655 11.35V0.349996H378.565V11.35H369.655ZM434.93 71.96C429.943 77.68 423.307 80.54 415.02 80.54C406.733 80.54 400.06 77.68 395 71.96C390.013 66.24 387.52 59.1267 387.52 50.62C387.52 42.1133 390.013 35 395 29.28C400.06 23.56 406.733 20.7 415.02 20.7C423.307 20.7 429.943 23.56 434.93 29.28C439.917 35 442.41 42.1133 442.41 50.62C442.41 59.1267 439.917 66.24 434.93 71.96ZM401.38 66.79C404.607 70.97 409.153 73.06 415.02 73.06C420.887 73.06 425.397 70.97 428.55 66.79C431.703 62.5367 433.28 57.1467 433.28 50.62C433.28 44.02 431.667 38.63 428.44 34.45C425.287 30.1967 420.813 28.07 415.02 28.07C409.153 28.07 404.607 30.1967 401.38 34.45C398.227 38.7033 396.65 44.0933 396.65 50.62C396.65 57.1467 398.227 62.5367 401.38 66.79ZM460.206 22.13V29.61H460.426C464.826 23.7433 470.839 20.81 478.466 20.81C484.479 20.81 489.173 22.3867 492.546 25.54C495.919 28.6933 497.606 33.2033 497.606 39.07V79H488.696V39.84C488.696 36.1733 487.559 33.35 485.286 31.37C483.013 29.3167 479.859 28.29 475.826 28.29C471.279 28.29 467.539 29.7567 464.606 32.69C461.673 35.6233 460.206 39.4 460.206 44.02V79H451.296V22.13H460.206ZM509.411 79V22.13H518.321V79H509.411ZM509.411 11.35V0.349996H518.321V11.35H509.411ZM530.026 35V24H572.376C573.806 24 574.906 25.1 574.906 26.53V32.47C574.906 33.9 576.006 35 577.436 35H583.596C585.026 35 586.126 36.1 586.126 37.53V43.47C586.126 44.9 585.026 46 583.596 46H577.436C576.006 46 574.906 47.1 574.906 48.53V54.47C574.906 55.9 573.806 57 572.376 57H543.776C542.346 57 541.246 58.1 541.246 59.53V65.47C541.246 66.9 542.346 68 543.776 68H586.126V79H543.776C542.346 79 541.246 77.9 541.246 76.47V70.53C541.246 69.1 540.146 68 538.716 68H532.556C531.126 68 530.026 66.9 530.026 65.47V59.53C530.026 58.1 531.126 57 532.556 57H538.716C540.146 57 541.246 55.9 541.246 54.47V48.53C541.246 47.1 542.346 46 543.776 46H572.376C573.806 46 574.906 44.9 574.906 43.47V37.53C574.906 36.1 573.806 35 572.376 35H530.026ZM597.82 79V22.13H606.73V79H597.82ZM597.82 11.35V0.349996H606.73V11.35H597.82ZM627.784 22.13V29.61H628.004C632.404 23.7433 638.418 20.81 646.044 20.81C652.058 20.81 656.751 22.3867 660.124 25.54C663.498 28.6933 665.184 33.2033 665.184 39.07V79H656.274V39.84C656.274 36.1733 655.138 33.35 652.864 31.37C650.591 29.3167 647.438 28.29 643.404 28.29C638.858 28.29 635.118 29.7567 632.184 32.69C629.251 35.6233 627.784 39.4 627.784 44.02V79H618.874V22.13H627.784ZM699.649 97.92C692.389 97.92 686.669 96.5267 682.489 93.74C678.383 91.0267 676.073 87.1767 675.559 82.19H683.809C684.616 87.9833 689.823 90.88 699.429 90.88C710.283 90.88 715.709 86.0033 715.709 76.25V68.22H715.489C713.216 71.1533 710.796 73.3533 708.229 74.82C705.663 76.2867 702.473 77.02 698.659 77.02C691.326 77.02 685.349 74.38 680.729 69.1C676.109 63.82 673.799 57.0733 673.799 48.86C673.799 40.28 676.109 33.46 680.729 28.4C685.423 23.34 691.216 20.81 698.109 20.81C705.589 20.81 711.383 23.67 715.489 29.39H715.709V22.13H724.619V75.92C724.619 83.18 722.383 88.6433 717.909 92.31C713.509 96.05 707.423 97.92 699.649 97.92ZM699.099 69.54C710.613 69.54 716.369 62.5 716.369 48.42C716.369 35 710.576 28.29 698.989 28.29C693.783 28.29 689.786 30.16 686.999 33.9C684.286 37.64 682.929 42.6633 682.929 48.97C682.929 55.2767 684.323 60.3 687.109 64.04C689.896 67.7067 693.893 69.54 699.099 69.54Z" fill="white"/>
</svg>
