<svg width="710" height="64" viewBox="0 0 710 64" fill="none" xmlns="http://www.w3.org/2000/svg">
<path d="M40.52 9.2C41.404 9.2 42.084 9.88 42.084 10.764V16H35.148V10.764C35.148 9.88 34.468 9.2 33.584 9.2H8.968C8.084 9.2 7.404 9.88 7.404 10.764V21.236C7.404 22.12 8.084 22.8 8.968 22.8H33.584C34.468 22.8 35.148 23.48 35.148 24.364V28.036C35.148 28.92 35.828 29.6 36.712 29.6H40.52C41.404 29.6 42.084 30.28 42.084 31.164V41.636C42.084 42.52 41.404 43.2 40.52 43.2H36.712C35.828 43.2 35.148 43.88 35.148 44.764V48.436C35.148 49.32 34.468 50 33.584 50H8.968C8.084 50 7.404 49.32 7.404 48.436V44.764C7.404 43.88 6.724 43.2 5.84 43.2H2.032C1.148 43.2 0.468 42.52 0.468 41.636V36.4H7.404V41.636C7.404 42.52 8.084 43.2 8.968 43.2H33.584C34.468 43.2 35.148 42.52 35.148 41.636V31.164C35.148 30.28 34.468 29.6 33.584 29.6H8.968C8.084 29.6 7.404 28.92 7.404 28.036V24.364C7.404 23.48 6.724 22.8 5.84 22.8H2.032C1.148 22.8 0.468 22.12 0.468 21.236V10.764C0.468 9.88 1.148 9.2 2.032 9.2H5.84C6.724 9.2 7.404 8.52 7.404 7.636V3.964C7.404 3.08 8.084 2.4 8.968 2.4H33.584C34.468 2.4 35.148 3.08 35.148 3.964V7.636C35.148 8.52 35.828 9.2 36.712 9.2H40.52ZM76.755 48.436C76.755 49.32 76.075 50 75.191 50H57.511C56.627 50 55.947 49.32 55.947 48.436V44.764C55.947 43.88 55.267 43.2 54.383 43.2H50.575C49.691 43.2 49.011 42.52 49.011 41.636V16H55.947V41.636C55.947 42.52 56.627 43.2 57.511 43.2H75.191C76.075 43.2 76.755 42.52 76.755 41.636V16H83.691V41.636C83.691 42.52 83.011 43.2 82.127 43.2H78.319C77.435 43.2 76.755 43.88 76.755 44.764V48.436ZM90.6477 24.364C90.6477 23.48 91.3277 22.8 92.2117 22.8H96.0197C96.9037 22.8 97.5837 22.12 97.5837 21.236V17.564C97.5837 16.68 98.2637 16 99.1477 16H116.828C117.712 16 118.392 16.68 118.392 17.564V21.236C118.392 22.12 119.072 22.8 119.956 22.8H123.764C124.648 22.8 125.328 23.48 125.328 24.364V41.636C125.328 42.52 124.648 43.2 123.764 43.2H119.956C119.072 43.2 118.392 43.88 118.392 44.764V48.436C118.392 49.32 117.712 50 116.828 50H101.052V43.2H116.828C117.712 43.2 118.392 42.52 118.392 41.636V24.364C118.392 23.48 117.712 22.8 116.828 22.8H99.1477C98.2637 22.8 97.5837 23.48 97.5837 24.364V63.6H90.6477V24.364ZM132.284 24.364C132.284 23.48 132.964 22.8 133.848 22.8H137.656C138.54 22.8 139.22 22.12 139.22 21.236V17.564C139.22 16.68 139.9 16 140.784 16H158.464C159.348 16 160.028 16.68 160.028 17.564V21.236C160.028 22.12 160.708 22.8 161.592 22.8H165.4C166.284 22.8 166.964 23.48 166.964 24.364V41.636C166.964 42.52 166.284 43.2 165.4 43.2H161.592C160.708 43.2 160.028 43.88 160.028 44.764V48.436C160.028 49.32 159.348 50 158.464 50H142.688V43.2H158.464C159.348 43.2 160.028 42.52 160.028 41.636V24.364C160.028 23.48 159.348 22.8 158.464 22.8H140.784C139.9 22.8 139.22 23.48 139.22 24.364V63.6H132.284V24.364ZM182.421 50C181.537 50 180.857 49.32 180.857 48.436V44.764C180.857 43.88 180.177 43.2 179.293 43.2H175.485C174.601 43.2 173.921 42.52 173.921 41.636V24.364C173.921 23.48 174.601 22.8 175.485 22.8H179.293C180.177 22.8 180.857 22.12 180.857 21.236V17.564C180.857 16.68 181.537 16 182.421 16H200.101C200.985 16 201.665 16.68 201.665 17.564V21.236C201.665 22.12 202.345 22.8 203.229 22.8H207.037C207.921 22.8 208.601 23.48 208.601 24.364V41.636C208.601 42.52 207.921 43.2 207.037 43.2H203.229C202.345 43.2 201.665 43.88 201.665 44.764V48.436C201.665 49.32 200.985 50 200.101 50H182.421ZM180.857 41.636C180.857 42.52 181.537 43.2 182.421 43.2H200.101C200.985 43.2 201.665 42.52 201.665 41.636V24.364C201.665 23.48 200.985 22.8 200.101 22.8H182.421C181.537 22.8 180.857 23.48 180.857 24.364V41.636ZM222.494 17.564C222.494 16.68 223.174 16 224.058 16H241.738C242.622 16 243.302 16.68 243.302 17.564V21.236C243.302 22.12 243.982 22.8 244.866 22.8H248.674C249.558 22.8 250.238 23.48 250.238 24.364V29.6H243.302V24.364C243.302 23.48 242.622 22.8 241.738 22.8H224.058C223.174 22.8 222.494 23.48 222.494 24.364V50H215.558V24.364C215.558 23.48 216.238 22.8 217.122 22.8H220.93C221.814 22.8 222.494 22.12 222.494 21.236V17.564ZM265.695 50C264.811 50 264.131 49.32 264.131 48.436V44.764C264.131 43.88 263.451 43.2 262.567 43.2H258.759C257.875 43.2 257.195 42.52 257.195 41.636V24.364C257.195 23.48 257.875 22.8 258.759 22.8H262.567C263.451 22.8 264.131 22.12 264.131 21.236V17.564C264.131 16.68 263.451 16 262.567 16H258.759C257.875 16 257.195 15.32 257.195 14.436V2.4H264.131V14.436C264.131 15.32 264.811 16 265.695 16H281.471V22.8H265.695C264.811 22.8 264.131 23.48 264.131 24.364V41.636C264.131 42.52 264.811 43.2 265.695 43.2H288.407V50H265.695ZM328.428 22.8C329.312 22.8 329.992 23.48 329.992 24.364V28.036C329.992 28.92 329.312 29.6 328.428 29.6H324.62C323.736 29.6 323.056 30.28 323.056 31.164V34.836C323.056 35.72 322.376 36.4 321.492 36.4H305.716V29.6H321.492C322.376 29.6 323.056 28.92 323.056 28.036V24.364C323.056 23.48 322.376 22.8 321.492 22.8H303.812C302.928 22.8 302.248 23.48 302.248 24.364V41.636C302.248 42.52 302.928 43.2 303.812 43.2H329.992V50H303.812C302.928 50 302.248 49.32 302.248 48.436V44.764C302.248 43.88 301.568 43.2 300.684 43.2H296.876C295.992 43.2 295.312 42.52 295.312 41.636V24.364C295.312 23.48 295.992 22.8 296.876 22.8H300.684C301.568 22.8 302.248 22.12 302.248 21.236V17.564C302.248 16.68 302.928 16 303.812 16H321.492C322.376 16 323.056 16.68 323.056 17.564V21.236C323.056 22.12 323.736 22.8 324.62 22.8H328.428ZM371.628 41.636C371.628 42.52 370.948 43.2 370.064 43.2H366.256C365.372 43.2 364.692 43.88 364.692 44.764V48.436C364.692 49.32 364.012 50 363.128 50H345.448C344.564 50 343.884 49.32 343.884 48.436V44.764C343.884 43.88 343.204 43.2 342.32 43.2H338.512C337.628 43.2 336.948 42.52 336.948 41.636V24.364C336.948 23.48 337.628 22.8 338.512 22.8H342.32C343.204 22.8 343.884 22.12 343.884 21.236V17.564C343.884 16.68 344.564 16 345.448 16H361.224V22.8H345.448C344.564 22.8 343.884 23.48 343.884 24.364V41.636C343.884 42.52 344.564 43.2 345.448 43.2H363.128C364.012 43.2 364.692 42.52 364.692 41.636V2.4H371.628V41.636ZM402.89 2.4H409.826V41.636C409.826 42.52 410.506 43.2 411.39 43.2H436.006C436.89 43.2 437.57 42.52 437.57 41.636V36.4H444.506V41.636C444.506 42.52 443.826 43.2 442.942 43.2H439.134C438.25 43.2 437.57 43.88 437.57 44.764V48.436C437.57 49.32 436.89 50 436.006 50H411.39C410.506 50 409.826 49.32 409.826 48.436V44.764C409.826 43.88 409.146 43.2 408.262 43.2H404.454C403.57 43.2 402.89 42.52 402.89 41.636V2.4ZM475.437 50C475.12 49.592 474.848 49.0253 474.621 48.3C474.44 47.5293 474.304 46.532 474.213 45.308H474.077C472.898 46.8947 471.425 48.232 469.657 49.32C467.889 50.3627 465.554 50.884 462.653 50.884C460.885 50.884 459.23 50.6573 457.689 50.204C456.193 49.7507 454.901 49.0707 453.813 48.164C452.725 47.2573 451.864 46.1467 451.229 44.832C450.594 43.472 450.277 41.908 450.277 40.14C450.277 38.1 450.64 36.4227 451.365 35.108C452.136 33.748 453.178 32.66 454.493 31.844C455.808 31.028 457.372 30.416 459.185 30.008C460.998 29.5547 462.993 29.192 465.169 28.92C468.161 28.5573 470.405 28.0587 471.901 27.424C473.397 26.744 474.145 25.588 474.145 23.956C474.145 22.3693 473.601 21.1 472.513 20.148C471.425 19.196 469.793 18.72 467.617 18.72C465.169 18.72 463.333 19.2413 462.109 20.284C460.93 21.3267 460.296 22.7547 460.205 24.568H452.045C452.09 23.0267 452.43 21.5533 453.065 20.148C453.745 18.6973 454.72 17.428 455.989 16.34C457.304 15.252 458.913 14.3907 460.817 13.756C462.721 13.076 464.965 12.736 467.549 12.736C469.634 12.736 471.47 12.8947 473.057 13.212C474.689 13.5293 476.094 14.0733 477.273 14.844C480.718 16.9293 482.441 20.3747 482.441 25.18V44.288C482.441 45.784 482.554 46.94 482.781 47.756C483.053 48.572 483.393 49.116 483.801 49.388V50H475.437ZM465.169 44.968C466.665 44.968 467.98 44.7413 469.113 44.288C470.246 43.7893 471.198 43.1773 471.969 42.452C472.74 41.6813 473.329 40.82 473.737 39.868C474.145 38.8707 474.349 37.8507 474.349 36.808V31.436C473.488 31.98 472.422 32.456 471.153 32.864C469.884 33.2267 468.592 33.544 467.277 33.816C464.602 34.3147 462.54 34.972 461.089 35.788C459.638 36.5587 458.913 37.9413 458.913 39.936C458.913 40.888 459.072 41.704 459.389 42.384C459.752 43.0187 460.205 43.54 460.749 43.948C461.338 44.3107 462.018 44.5827 462.789 44.764C463.56 44.9 464.353 44.968 465.169 44.968ZM496.016 62.376C495.744 62.376 495.291 62.3533 494.656 62.308C494.022 62.308 493.364 62.2853 492.684 62.24C492.004 62.1947 491.37 62.1493 490.78 62.104C490.191 62.0587 489.828 62.0133 489.692 61.968V54.964H490.168C490.259 55.0093 490.44 55.0547 490.712 55.1C491.03 55.1453 491.37 55.168 491.732 55.168C492.14 55.2133 492.526 55.236 492.888 55.236C493.251 55.2813 493.546 55.304 493.772 55.304C495.223 55.304 496.379 54.9867 497.24 54.352C498.102 53.7627 498.714 52.7427 499.076 51.292C499.076 51.1107 499.076 50.7933 499.076 50.34C499.122 49.8867 499.144 49.3653 499.144 48.776C499.144 48.1867 499.099 47.5747 499.008 46.94C498.963 46.3053 498.85 45.7387 498.668 45.24L486.156 13.688H495.336L501.32 30.552C501.683 31.6853 502.046 32.9093 502.408 34.224C502.816 35.5387 503.156 36.7627 503.428 37.896C503.746 39.2107 504.063 40.5253 504.38 41.84H504.516C504.834 40.48 505.174 39.1427 505.536 37.828C505.854 36.6947 506.194 35.4933 506.556 34.224C506.919 32.9093 507.282 31.6853 507.644 30.552L513.424 13.688H522.128L508.052 52.04C507.282 54.0347 506.511 55.6893 505.74 57.004C504.97 58.364 504.108 59.4293 503.156 60.2C502.204 61.016 501.139 61.5827 499.96 61.9C498.827 62.2173 497.512 62.376 496.016 62.376ZM542.081 51.088C539.179 51.088 536.573 50.5893 534.261 49.592C531.994 48.5947 530.067 47.2347 528.481 45.512C526.894 43.7893 525.67 41.772 524.809 39.46C523.993 37.1027 523.585 34.5867 523.585 31.912C523.585 29.192 524.015 26.676 524.877 24.364C525.738 22.0067 526.962 19.9667 528.549 18.244C530.135 16.5213 532.039 15.184 534.261 14.232C536.482 13.2347 538.93 12.736 541.605 12.736C544.279 12.736 546.637 13.1893 548.677 14.096C550.762 14.9573 552.575 16.204 554.117 17.836C555.885 19.74 557.199 22.0747 558.061 24.84C558.922 27.56 559.33 30.62 559.285 34.02H532.153C532.47 37.148 533.445 39.6867 535.077 41.636C536.754 43.54 539.111 44.492 542.149 44.492C544.234 44.492 545.934 44.084 547.249 43.268C548.609 42.4067 549.583 41.228 550.173 39.732H558.605C558.151 41.364 557.449 42.8827 556.497 44.288C555.59 45.648 554.434 46.8493 553.029 47.892C551.623 48.8893 549.991 49.66 548.133 50.204C546.319 50.7933 544.302 51.088 542.081 51.088ZM541.605 18.992C538.749 18.992 536.573 19.876 535.077 21.644C533.581 23.412 532.651 25.724 532.289 28.58H550.377C550.195 25.588 549.334 23.2533 547.793 21.576C546.297 19.8533 544.234 18.992 541.605 18.992ZM573.695 20.216H573.899C576.211 15.5013 579.679 13.144 584.303 13.144C585.345 13.144 586.116 13.2573 586.615 13.484V21.236H586.343C585.617 21.0547 584.824 20.964 583.963 20.964C581.107 20.9187 578.727 21.848 576.823 23.752C574.919 25.6107 573.967 28.2853 573.967 31.776V50H565.331V13.688H573.695V20.216ZM598.752 17.564C598.752 16.68 599.432 16 600.316 16H626.496V22.8H600.316C599.432 22.8 598.752 23.48 598.752 24.364V28.036C598.752 28.92 599.432 29.6 600.316 29.6H617.996C618.88 29.6 619.56 30.28 619.56 31.164V34.836C619.56 35.72 620.24 36.4 621.124 36.4H624.932C625.816 36.4 626.496 37.08 626.496 37.964V41.636C626.496 42.52 625.816 43.2 624.932 43.2H621.124C620.24 43.2 619.56 43.88 619.56 44.764V48.436C619.56 49.32 618.88 50 617.996 50H591.816V43.2H617.996C618.88 43.2 619.56 42.52 619.56 41.636V37.964C619.56 37.08 618.88 36.4 617.996 36.4H600.316C599.432 36.4 598.752 35.72 598.752 34.836V31.164C598.752 30.28 598.072 29.6 597.188 29.6H593.38C592.496 29.6 591.816 28.92 591.816 28.036V24.364C591.816 23.48 592.496 22.8 593.38 22.8H597.188C598.072 22.8 598.752 22.12 598.752 21.236V17.564ZM632.364 50C632.455 47.008 632.954 44.4693 633.86 42.384C634.767 40.2533 635.991 38.3267 637.532 36.604C639.572 34.3373 641.907 32.32 644.536 30.552C647.211 28.784 649.75 27.1067 652.152 25.52C653.286 24.7947 654.283 24.1147 655.144 23.48C656.051 22.8 656.799 22.0973 657.388 21.372C658.023 20.6013 658.499 19.7853 658.816 18.924C659.134 18.0173 659.292 17.02 659.292 15.932C659.292 13.484 658.544 11.5347 657.048 10.084C655.598 8.588 653.58 7.84 650.996 7.84C648.186 7.84 646.032 8.70133 644.536 10.424C642.904 12.192 642.088 14.8213 642.088 18.312H633.316C633.316 15.728 633.634 13.484 634.268 11.58C634.903 9.676 635.855 7.93066 637.124 6.344C638.575 4.53066 640.502 3.12533 642.904 2.128C645.352 1.08533 648.208 0.563996 651.472 0.563996C654.102 0.563996 656.459 0.94933 658.544 1.72C660.675 2.49066 662.466 3.556 663.916 4.916C665.367 6.276 666.478 7.88533 667.248 9.744C668.019 11.5573 668.404 13.552 668.404 15.728C668.404 17.496 668.155 19.06 667.656 20.42C667.203 21.78 666.546 23.004 665.684 24.092C664.868 25.18 663.871 26.2 662.692 27.152C661.559 28.0587 660.335 28.9427 659.02 29.804C657.751 30.756 656.391 31.708 654.94 32.66C653.535 33.5667 652.13 34.5187 650.724 35.516C649.364 36.468 648.095 37.4653 646.916 38.508C645.738 39.5507 644.786 40.684 644.06 41.908V42.248H667.996V50H632.364ZM681.427 17.564C681.427 16.68 682.107 16 682.991 16H709.171V22.8H682.991C682.107 22.8 681.427 23.48 681.427 24.364V28.036C681.427 28.92 682.107 29.6 682.991 29.6H700.671C701.555 29.6 702.235 30.28 702.235 31.164V34.836C702.235 35.72 702.915 36.4 703.799 36.4H707.607C708.491 36.4 709.171 37.08 709.171 37.964V41.636C709.171 42.52 708.491 43.2 707.607 43.2H703.799C702.915 43.2 702.235 43.88 702.235 44.764V48.436C702.235 49.32 701.555 50 700.671 50H674.491V43.2H700.671C701.555 43.2 702.235 42.52 702.235 41.636V37.964C702.235 37.08 701.555 36.4 700.671 36.4H682.991C682.107 36.4 681.427 35.72 681.427 34.836V31.164C681.427 30.28 680.747 29.6 679.863 29.6H676.055C675.171 29.6 674.491 28.92 674.491 28.036V24.364C674.491 23.48 675.171 22.8 676.055 22.8H679.863C680.747 22.8 681.427 22.12 681.427 21.236V17.564Z" fill="white"/>
</svg>
