<svg width="367" height="101" viewBox="0 0 367 101" fill="none" xmlns="http://www.w3.org/2000/svg">
<path d="M28.66 79V15.53C28.66 14.1 27.56 13 26.13 13H0.61V1.99999H26.13C27.56 1.99999 28.66 3.09999 28.66 4.52999V10.47C28.66 11.9 29.76 13 31.19 13H37.35C38.78 13 39.88 11.9 39.88 10.47V4.52999C39.88 3.09999 40.98 1.99999 42.41 1.99999H67.93V13H42.41C40.98 13 39.88 14.1 39.88 15.53V79H28.66ZM88.4854 22.13V31.59H88.7054C90.5387 28.5833 92.9221 26.1633 95.8554 24.33C98.7887 22.4233 102.052 21.47 105.645 21.47C106.965 21.47 108.175 21.69 109.275 22.13V30.71H108.945C107.845 30.3433 106.525 30.16 104.985 30.16C100.439 30.16 96.5521 31.7733 93.3254 35C90.0987 38.1533 88.4854 42.2967 88.4854 47.43V79H79.5754V22.13H88.4854ZM159.792 79.55C154.145 79.55 150.882 76.7267 150.002 71.08H149.892C145.199 77.0933 138.892 80.1 130.972 80.1C125.325 80.1 120.705 78.7433 117.112 76.03C113.519 73.3167 111.722 69.3933 111.722 64.26C111.722 61.62 112.125 59.3467 112.932 57.44C113.812 55.46 114.912 53.8833 116.232 52.71C117.552 51.4633 119.349 50.4 121.622 49.52C123.969 48.5667 126.205 47.87 128.332 47.43C130.459 46.9167 133.172 46.4033 136.472 45.89C138.599 45.5967 140.102 45.3767 140.982 45.23C141.935 45.01 143.145 44.7167 144.612 44.35C146.079 43.91 147.105 43.4333 147.692 42.92C148.279 42.4067 148.829 41.71 149.342 40.83C149.855 39.95 150.112 38.9233 150.112 37.75C150.112 34.5233 148.975 32.0667 146.702 30.38C144.502 28.62 141.385 27.74 137.352 27.74C128.185 27.74 123.455 31.92 123.162 40.28H114.582C114.729 34.4867 116.709 29.83 120.522 26.31C124.409 22.79 129.982 21.03 137.242 21.03C151.249 21.03 158.252 27.0433 158.252 39.07V66.13C158.252 68.6233 158.655 70.3833 159.462 71.41C160.342 72.4367 161.955 72.6933 164.302 72.18H164.632V78.67C163.165 79.2567 161.552 79.55 159.792 79.55ZM132.952 73.28C138.452 73.28 142.705 71.7033 145.712 68.55C148.719 65.3233 150.222 61.8033 150.222 57.99V48.31C147.509 49.9967 143.182 51.39 137.242 52.49C135.042 52.93 133.319 53.2967 132.072 53.59C130.825 53.81 129.395 54.25 127.782 54.91C126.169 55.4967 124.959 56.1567 124.152 56.89C123.345 57.6233 122.649 58.6133 122.062 59.86C121.475 61.0333 121.182 62.4267 121.182 64.04C121.182 70.2 125.105 73.28 132.952 73.28ZM193.206 80.65C185.433 80.65 179.273 77.9733 174.726 72.62C170.253 67.1933 168.016 59.8967 168.016 50.73C168.016 41.49 170.363 34.1933 175.056 28.84C179.75 23.4867 185.726 20.81 192.986 20.81C200.686 20.81 206.626 23.9267 210.806 30.16H211.026V0.349996H219.936V79H211.026V72.07H210.806C206.333 77.79 200.466 80.65 193.206 80.65ZM193.536 73.17C199.623 73.17 204.133 71.1533 207.066 67.12C210.073 63.0867 211.576 57.66 211.576 50.84C211.576 44.0933 209.963 38.6667 206.736 34.56C203.583 30.4533 199.146 28.4 193.426 28.4C188.22 28.4 184.186 30.49 181.326 34.67C178.54 38.7767 177.146 44.1667 177.146 50.84C177.146 57.5133 178.54 62.9033 181.326 67.01C184.186 71.1167 188.256 73.17 193.536 73.17ZM232.007 79V22.13H240.917V79H232.007ZM232.007 11.35V0.349996H240.917V11.35H232.007ZM261.972 22.13V29.61H262.192C266.592 23.7433 272.605 20.81 280.232 20.81C286.245 20.81 290.938 22.3867 294.312 25.54C297.685 28.6933 299.372 33.2033 299.372 39.07V79H290.462V39.84C290.462 36.1733 289.325 33.35 287.052 31.37C284.778 29.3167 281.625 28.29 277.592 28.29C273.045 28.29 269.305 29.7567 266.372 32.69C263.438 35.6233 261.972 39.4 261.972 44.02V79H253.062V22.13H261.972ZM310.737 101V90H353.087C354.517 90 355.617 88.9 355.617 87.47V37.53C355.617 36.1 354.517 35 353.087 35H324.487C323.057 35 321.957 36.1 321.957 37.53V65.47C321.957 66.9 323.057 68 324.487 68H350.007V79H324.487C323.057 79 321.957 77.9 321.957 76.47V70.53C321.957 69.1 320.857 68 319.427 68H313.267C311.837 68 310.737 66.9 310.737 65.47V37.53C310.737 36.1 311.837 35 313.267 35H319.427C320.857 35 321.957 33.9 321.957 32.47V26.53C321.957 25.1 323.057 24 324.487 24H353.087C354.517 24 355.617 25.1 355.617 26.53V32.47C355.617 33.9 356.717 35 358.147 35H364.307C365.737 35 366.837 36.1 366.837 37.53V87.47C366.837 88.9 365.737 90 364.307 90H358.147C356.717 90 355.617 91.1 355.617 92.53V98.47C355.617 99.9 354.517 101 353.087 101H310.737Z" fill="white"/>
</svg>
