<svg width="466" height="262" viewBox="0 0 466 262" fill="none" xmlns="http://www.w3.org/2000/svg">
<path d="M25 0V50.0002" stroke="#77F6D3" stroke-width="5.91719"/>
<path d="M42.7739 7.41895L7.226 42.581" stroke="#77F6D3" stroke-width="5.91719"/>
<path d="M50 25.0742L-2.3534e-06 24.9258" stroke="#77F6D3" stroke-width="5.91719"/>
<path d="M42.6069 42.748L7.39288 7.25167" stroke="#77F6D3" stroke-width="5.91719"/>
<path d="M3.468 124.164C3.468 123.28 4.148 122.6 5.032 122.6H8.84C9.724 122.6 10.404 121.92 10.404 121.036V117.364C10.404 116.48 9.724 115.8 8.84 115.8H5.032C4.148 115.8 3.468 115.12 3.468 114.236V95.4H10.404V114.236C10.404 115.12 11.084 115.8 11.968 115.8H36.584C37.468 115.8 38.148 115.12 38.148 114.236V95.4H45.084V114.236C45.084 115.12 44.404 115.8 43.52 115.8H39.712C38.828 115.8 38.148 116.48 38.148 117.364V121.036C38.148 121.92 38.828 122.6 39.712 122.6H43.52C44.404 122.6 45.084 123.28 45.084 124.164V143H38.148V124.164C38.148 123.28 37.468 122.6 36.584 122.6H11.968C11.084 122.6 10.404 123.28 10.404 124.164V143H3.468V124.164ZM81.183 138.784C77.783 142.275 73.4083 144.02 68.059 144.02C62.7096 144.02 58.335 142.275 54.935 138.784C51.535 135.248 49.835 130.851 49.835 125.592C49.835 120.333 51.535 115.959 54.935 112.468C58.335 108.932 62.7096 107.164 68.059 107.164C73.4083 107.164 77.783 108.932 81.183 112.468C84.583 115.959 86.283 120.333 86.283 125.592C86.283 130.851 84.583 135.248 81.183 138.784ZM68.059 136.948C70.8243 136.948 72.9776 135.928 74.519 133.888C76.1056 131.803 76.899 129.037 76.899 125.592C76.899 122.147 76.1056 119.381 74.519 117.296C72.9776 115.211 70.8243 114.168 68.059 114.168C65.2483 114.168 63.0723 115.211 61.531 117.296C59.9896 119.336 59.219 122.101 59.219 125.592C59.219 129.037 59.9896 131.803 61.531 133.888C63.0723 135.928 65.2483 136.948 68.059 136.948ZM97.0658 143L86.8658 108.116H96.0458L100.262 124.3L101.826 130.828H101.962C102.46 128.335 102.959 126.136 103.458 124.232L107.81 108.116H115.698L120.254 124.232L121.886 130.828H122.022C122.566 128.38 123.087 126.204 123.586 124.3L128.006 108.116H136.982L126.578 143H118.146L113.522 125.864L111.958 119.812H111.822C111.232 121.988 110.688 124.005 110.19 125.864L105.43 143H97.0658ZM159.088 117.364C159.088 116.48 159.768 115.8 160.652 115.8H185.268C186.152 115.8 186.832 116.48 186.832 117.364V121.036C186.832 121.92 187.512 122.6 188.396 122.6H192.204C193.088 122.6 193.768 123.28 193.768 124.164V143H186.832V124.164C186.832 123.28 186.152 122.6 185.268 122.6H160.652C159.768 122.6 159.088 123.28 159.088 124.164V143H152.152V124.164C152.152 123.28 152.832 122.6 153.716 122.6H157.524C158.408 122.6 159.088 121.92 159.088 121.036V117.364ZM152.152 115.8V103.764C152.152 102.88 152.832 102.2 153.716 102.2H157.524C158.408 102.2 159.088 101.52 159.088 100.636V96.964C159.088 96.08 159.768 95.4 160.652 95.4H185.268C186.152 95.4 186.832 96.08 186.832 96.964V100.636C186.832 101.52 187.512 102.2 188.396 102.2H192.204C193.088 102.2 193.768 102.88 193.768 103.764V115.8H186.832V103.764C186.832 102.88 186.152 102.2 185.268 102.2H160.652C159.768 102.2 159.088 102.88 159.088 103.764V115.8H152.152ZM235.375 141.436C235.375 142.32 234.695 143 233.811 143H209.195C208.311 143 207.631 142.32 207.631 141.436V137.764C207.631 136.88 206.951 136.2 206.067 136.2H202.259C201.375 136.2 200.695 135.52 200.695 134.636V103.764C200.695 102.88 201.375 102.2 202.259 102.2H206.067C206.951 102.2 207.631 101.52 207.631 100.636V96.964C207.631 96.08 208.311 95.4 209.195 95.4H233.811C234.695 95.4 235.375 96.08 235.375 96.964V100.636C235.375 101.52 236.055 102.2 236.939 102.2H240.747C241.631 102.2 242.311 102.88 242.311 103.764V109H235.375V103.764C235.375 102.88 234.695 102.2 233.811 102.2H209.195C208.311 102.2 207.631 102.88 207.631 103.764V134.636C207.631 135.52 208.311 136.2 209.195 136.2H233.811C234.695 136.2 235.375 135.52 235.375 134.636V124.164C235.375 123.28 234.695 122.6 233.811 122.6H221.503V115.8H233.811C234.695 115.8 235.375 116.48 235.375 117.364V121.036C235.375 121.92 236.055 122.6 236.939 122.6H240.747C241.631 122.6 242.311 123.28 242.311 124.164V134.636C242.311 135.52 241.631 136.2 240.747 136.2H236.939C236.055 136.2 235.375 136.88 235.375 137.764V141.436ZM249.238 130.964C249.238 130.08 249.918 129.4 250.802 129.4H254.61C255.494 129.4 256.174 128.72 256.174 127.836V124.164C256.174 123.28 256.854 122.6 257.738 122.6H261.546C262.43 122.6 263.11 121.92 263.11 121.036V117.364C263.11 116.48 262.43 115.8 261.546 115.8H257.738C256.854 115.8 256.174 115.12 256.174 114.236V110.564C256.174 109.68 255.494 109 254.61 109H250.802C249.918 109 249.238 108.32 249.238 107.436V95.4H256.174V107.436C256.174 108.32 256.854 109 257.738 109H261.546C262.43 109 263.11 109.68 263.11 110.564V114.236C263.11 115.12 263.79 115.8 264.674 115.8H275.418C276.302 115.8 276.982 115.12 276.982 114.236V110.564C276.982 109.68 277.662 109 278.546 109H282.354C283.238 109 283.918 108.32 283.918 107.436V95.4H290.854V107.436C290.854 108.32 290.174 109 289.29 109H285.482C284.598 109 283.918 109.68 283.918 110.564V114.236C283.918 115.12 283.238 115.8 282.354 115.8H278.546C277.662 115.8 276.982 116.48 276.982 117.364V121.036C276.982 121.92 277.662 122.6 278.546 122.6H282.354C283.238 122.6 283.918 123.28 283.918 124.164V127.836C283.918 128.72 284.598 129.4 285.482 129.4H289.29C290.174 129.4 290.854 130.08 290.854 130.964V143H283.918V130.964C283.918 130.08 283.238 129.4 282.354 129.4H278.546C277.662 129.4 276.982 128.72 276.982 127.836V124.164C276.982 123.28 276.302 122.6 275.418 122.6H264.674C263.79 122.6 263.11 123.28 263.11 124.164V127.836C263.11 128.72 262.43 129.4 261.546 129.4H257.738C256.854 129.4 256.174 130.08 256.174 130.964V143H249.238V130.964ZM5.032 231.2C4.148 231.2 3.468 230.52 3.468 229.636V190.4H10.404V229.636C10.404 230.52 11.084 231.2 11.968 231.2H22.712C23.596 231.2 24.276 230.52 24.276 229.636V190.4H31.212V229.636C31.212 230.52 31.892 231.2 32.776 231.2H43.52C44.404 231.2 45.084 230.52 45.084 229.636V190.4H52.02V229.636C52.02 230.52 51.34 231.2 50.456 231.2H46.648C45.764 231.2 45.084 231.88 45.084 232.764V236.436C45.084 237.32 44.404 238 43.52 238H32.776C31.892 238 31.212 237.32 31.212 236.436V232.764C31.212 231.88 30.532 231.2 29.648 231.2H25.84C24.956 231.2 24.276 231.88 24.276 232.764V236.436C24.276 237.32 23.596 238 22.712 238H12.036C11.152 238 10.404 237.32 10.404 236.436V232.764C10.404 231.88 9.724 231.2 8.84 231.2H5.032ZM88.1556 233.784C84.7556 237.275 80.381 239.02 75.0316 239.02C69.6823 239.02 65.3076 237.275 61.9076 233.784C58.5076 230.248 56.8076 225.851 56.8076 220.592C56.8076 215.333 58.5076 210.959 61.9076 207.468C65.3076 203.932 69.6823 202.164 75.0316 202.164C80.381 202.164 84.7556 203.932 88.1556 207.468C91.5556 210.959 93.2556 215.333 93.2556 220.592C93.2556 225.851 91.5556 230.248 88.1556 233.784ZM75.0316 231.948C77.797 231.948 79.9503 230.928 81.4916 228.888C83.0783 226.803 83.8716 224.037 83.8716 220.592C83.8716 217.147 83.0783 214.381 81.4916 212.296C79.9503 210.211 77.797 209.168 75.0316 209.168C72.221 209.168 70.045 210.211 68.5036 212.296C66.9623 214.336 66.1916 217.101 66.1916 220.592C66.1916 224.037 66.9623 226.803 68.5036 228.888C70.045 230.928 72.221 231.948 75.0316 231.948ZM106.463 203.116V208.692H106.667C107.755 206.652 108.956 205.156 110.271 204.204C111.585 203.207 113.24 202.708 115.235 202.708C116.187 202.708 116.912 202.799 117.411 202.98V211.072H117.207C114.079 210.755 111.563 211.435 109.659 213.112C107.755 214.789 106.803 217.419 106.803 221V238H97.5545V203.116H106.463ZM144.378 238L134.586 222.088L130.574 226.236V238H121.394V189.38H130.574V216.308L142.95 203.116H154.034L141.182 216.376L155.598 238H144.378ZM165.927 205.564C165.927 204.68 166.607 204 167.491 204H193.671V210.8H167.491C166.607 210.8 165.927 211.48 165.927 212.364V216.036C165.927 216.92 166.607 217.6 167.491 217.6H185.171C186.055 217.6 186.735 218.28 186.735 219.164V222.836C186.735 223.72 187.415 224.4 188.299 224.4H192.107C192.991 224.4 193.671 225.08 193.671 225.964V229.636C193.671 230.52 192.991 231.2 192.107 231.2H188.299C187.415 231.2 186.735 231.88 186.735 232.764V236.436C186.735 237.32 186.055 238 185.171 238H158.991V231.2H185.171C186.055 231.2 186.735 230.52 186.735 229.636V225.964C186.735 225.08 186.055 224.4 185.171 224.4H167.491C166.607 224.4 165.927 223.72 165.927 222.836V219.164C165.927 218.28 165.247 217.6 164.363 217.6H160.555C159.671 217.6 158.991 216.92 158.991 216.036V212.364C158.991 211.48 159.671 210.8 160.555 210.8H164.363C165.247 210.8 165.927 210.12 165.927 209.236V205.564Z" fill="white"/>
</svg>
